{
.appVersion = "1075";
DisplayStrings = (
"/fita-cy"
);
classes = (
{
automatic = 1;

glyphs = (
{
color = 4;
glyphname = A;
layers = (
{
anchors = (
{
name = bottom;
position = "{313, 0}";
},
{
name = ogonek;
position = "{563, 0}";
},
{
name = top;
position = "{309, 700}";
}
);
background = {
paths = (
{
closed = 1;
nodes = (
"365 718 LINE",
"295 718 LINE",
"100 183 LINE SMOOTH",
"78 123 OFFCURVE",
"60 69 OFFCURVE",
"4 69 CURVE",
"4 0 LINE",
"218 0 LINE",
"218 80 LINE",
"204 80 OFFCURVE",
"168 79 OFFCURVE",
"147 77 CURVE",
"158 100 OFFCURVE",
"172 140 OFFCURVE",
"179 158 CURVE SMOOTH",
"195 205 LINE",
"412 209 LINE",
"432 154 LINE SMOOTH",
"451 104 OFFCURVE",
"450 66 OFFCURVE",
"395 66 CURVE",
"395 0 LINE",
"664 0 LINE",
"664 77 LINE",
"650 77 OFFCURVE",
"628 76 OFFCURVE",
"606 74 CURVE",
"603 104 OFFCURVE",
"586 153 OFFCURVE",
"578 173 CURVE SMOOTH"
);
},
{
closed = 1;
nodes = (
"387 280 LINE",
"220 280 LINE",
"265 410 LINE SMOOTH",
"287 472 OFFCURVE",
"297 519 OFFCURVE",
"302 542 CURVE",
"303 542 LINE",
"309 505 OFFCURVE",
"324 453 OFFCURVE",
"341 405 CURVE SMOOTH"
);
}
);
};
layerId = UUID0;
paths = (
{
closed = 1;
nodes = (
"181 0 LINE",
"181 44 LINE",
"155 43 OFFCURVE",
"129 41 OFFCURVE",
"103 40 CURVE",
"112 62 OFFCURVE",
"118 77 OFFCURVE",
"128 109 CURVE",
"163 216 LINE",
"423 222 LINE",
"458 128 LINE SMOOTH",
"472 91 OFFCURVE",
"484 35 OFFCURVE",
"409 33 CURVE",
"409 0 LINE",
"638 0 LINE",
"638 44 LINE",
"615 43 OFFCURVE",
"593 41 OFFCURVE",
"570 40 CURVE",
"572 70 OFFCURVE",
"555 122 OFFCURVE",
"544 150 CURVE SMOOTH",
"321 719 LINE",
"297 719 LINE",
"91 158 LINE SMOOTH",
"63 84 OFFCURVE",
"54 33 OFFCURVE",
"-6 33 CURVE",
"-6 0 LINE"
);
},
{
closed = 1;
nodes = (
"249 460 LINE",
"263 498 OFFCURVE",
"277 535 OFFCURVE",
"291 573 CURVE",
"293 573 LINE",
"308 532 OFFCURVE",
"323 491 OFFCURVE",
"338 450 CURVE",
"409 259 LINE",
"178 259 LINE"
);
}
);
width = 626;
},
{
anchors = (
{
name = bottom;
position = "{334, 0}";
},
{
name = ogonek;
position = "{601, 0}";
},
{
name = top;
position = "{329, 700}";
}
);
layerId = "4C2B4986-1645-43C1-94B7-5E4C57EFF0D9";
paths = (
{
closed = 1;
nodes = (
"218 0 LINE",
"218 80 LINE",
"204 80 OFFCURVE",
"168 79 OFFCURVE",
"147 77 CURVE",
"158 100 OFFCURVE",
"172 140 OFFCURVE",
"179 158 CURVE SMOOTH",
"195 205 LINE",
"412 209 LINE",
"432 154 LINE SMOOTH",
"451 104 OFFCURVE",
"450 66 OFFCURVE",
"395 66 CURVE",
"395 0 LINE",
"664 0 LINE",
"664 77 LINE",
"650 77 OFFCURVE",
"628 76 OFFCURVE",
"606 74 CURVE",
"603 104 OFFCURVE",
"586 153 OFFCURVE",
"578 173 CURVE SMOOTH",
"365 718 LINE",
"295 718 LINE",
"100 183 LINE SMOOTH",
"78 123 OFFCURVE",
"60 69 OFFCURVE",
"4 69 CURVE",
"4 0 LINE"
);
},
{
closed = 1;
nodes = (
"265 410 LINE SMOOTH",
"287 472 OFFCURVE",
"297 519 OFFCURVE",
"302 542 CURVE",
"303 542 LINE",
"309 505 OFFCURVE",
"324 453 OFFCURVE",
"341 405 CURVE SMOOTH",
"387 280 LINE",
"220 280 LINE"
);
}
);
width = 668;
}
);
leftKerningGroup = A;
rightKerningGroup = A;
unicode = 0041;
},
{
color = 4;
glyphname = AE;
layers = (
{
background = {
paths = (
{
closed = 1;
nodes = (
"538 544 LINE SMOOTH",
"538 625 OFFCURVE",
"539 661 OFFCURVE",
"614 663 CURVE SMOOTH",
"700 665 LINE SMOOTH",
"775 667 OFFCURVE",
"835 643 OFFCURVE",
"835 525 CURVE",
"868 525 LINE",
"863 700 LINE",
"382 700 LINE",
"382 656 LINE",
"406 657 OFFCURVE",
"430 659 OFFCURVE",
"454 660 CURVE",
"452 640 OFFCURVE",
"451 615 OFFCURVE",
"451 588 CURVE SMOOTH",
"451 156 LINE SMOOTH",
"451 85 OFFCURVE",
"457 36 OFFCURVE",
"382 33 CURVE",
"382 0 LINE",
"898 0 LINE",
"904 195 LINE",
"870 195 LINE",
"870 76 OFFCURVE",
"813 41 OFFCURVE",
"726 40 CURVE SMOOTH",
"535 37 LINE",
"537 54 OFFCURVE",
"538 79 OFFCURVE",
"538 115 CURVE SMOOTH"
);
},
{
closed = 1;
nodes = (
"528 344 LINE",
"611 347 LINE SMOOTH",
"696 350 OFFCURVE",
"730 347 OFFCURVE",
"730 259 CURVE",
"763 259 LINE",
"763 469 LINE",
"719 469 LINE",
"726 383 LINE",
"528 384 LINE"
);
}
);
};
guideLines = (
{
angle = 90;
position = "{451, 400}";
}
);
layerId = UUID0;
paths = (
{
closed = 1;
nodes = (
"166 0 LINE",
"166 44 LINE",
"90 40 LINE",
"113 74 OFFCURVE",
"136 109 OFFCURVE",
"159 143 CURVE",
"208 216 LINE",
"451 221 LINE",
"451 130 LINE SMOOTH",
"451 56 OFFCURVE",
"437 40 OFFCURVE",
"382 36 CURVE",
"382 0 LINE",
"898 0 LINE",
"904 195 LINE",
"870 195 LINE",
"870 79 OFFCURVE",
"817 36 OFFCURVE",
"732 37 CURVE SMOOTH",
"535 40 LINE",
"537 57 OFFCURVE",
"538 82 OFFCURVE",
"538 118 CURVE SMOOTH",
"538 344 LINE",
"611 347 LINE SMOOTH",
"696 350 OFFCURVE",
"730 347 OFFCURVE",
"730 259 CURVE",
"763 259 LINE",
"763 469 LINE",
"719 469 LINE",
"726 383 LINE",
"538 384 LINE",
"538 544 LINE SMOOTH",
"538 625 OFFCURVE",
"539 661 OFFCURVE",
"614 663 CURVE SMOOTH",
"700 665 LINE SMOOTH",
"775 667 OFFCURVE",
"835 643 OFFCURVE",
"835 525 CURVE",
"868 525 LINE",
"863 700 LINE",
"362 700 LINE",
"362 656 LINE",
"452 660 LINE",
"91 125 LINE SMOOTH",
"64 85 OFFCURVE",
"32 33 OFFCURVE",
"-21 33 CURVE",
"-21 0 LINE"
);
},
{
closed = 1;
nodes = (
"451 582 LINE",
"451 259 LINE",
"236 259 LINE"
);
}
);
width = 949;
},
{
guideLines = (
{
angle = 90;
position = "{432, 341}";
}
);
layerId = "4C2B4986-1645-43C1-94B7-5E4C57EFF0D9";
paths = (
{
closed = 1;
nodes = (
"218 0 LINE",
"218 77 LINE",
"138 75 LINE",
"159 91 OFFCURVE",
"180 120 OFFCURVE",
"201 151 CURVE SMOOTH",
"236 202 LINE",
"432 207 LINE",
"432 153 LINE SMOOTH",
"432 72 OFFCURVE",
"406 68 OFFCURVE",
"361 66 CURVE",
"361 0 LINE",
"889 0 LINE",
"895 220 LINE",
"829 220 LINE",
"829 112 OFFCURVE",
"766 76 OFFCURVE",
"707 76 CURVE SMOOTH",
"573 76 LINE",
"575 93 OFFCURVE",
"577 128 OFFCURVE",
"577 164 CURVE SMOOTH",
"577 328 LINE",
"603 329 LINE SMOOTH",
"657 330 OFFCURVE",
"701 325 OFFCURVE",
"701 241 CURVE",
"767 241 LINE",
"767 484 LINE",
"690 484 LINE",
"694 397 LINE",
"577 397 LINE",
"577 547 LINE SMOOTH",
"577 625 OFFCURVE",
"602 633 OFFCURVE",
"644 634 CURVE SMOOTH",
"680 635 LINE SMOOTH",
"734 637 OFFCURVE",
"801 615 OFFCURVE",
"801 506 CURVE",
"867 506 LINE",
"861 700 LINE",
"361 700 LINE",
"361 623 LINE",
"436 626 LINE",
"113 171 LINE SMOOTH",
"80 124 OFFCURVE",
"41 66 OFFCURVE",
"-6 66 CURVE",
"-6 0 LINE"
);
},
{
closed = 1;
nodes = (
"432 500 LINE",
"432 276 LINE",
"285 276 LINE"
);
}
);
width = 935;
}
);
leftKerningGroup = A;
rightKerningGroup = E;
unicode = 00C6;
},
{
color = 4;
glyphname = B;
layers = (
{
layerId = UUID0;
paths = (
{
closed = 1;
nodes = (
"347 0 LINE SMOOTH",
"482 0 OFFCURVE",
"583 73 OFFCURVE",
"583 196 CURVE SMOOTH",
"583 299 OFFCURVE",
"508 374 OFFCURVE",
"361 374 CURVE",
"361 376 LINE",
"471 396 OFFCURVE",
"525 466 OFFCURVE",
"526 531 CURVE SMOOTH",
"528 649 OFFCURVE",
"436 702 OFFCURVE",
"281 702 CURVE SMOOTH",
"201 702 OFFCURVE",
"128 701 OFFCURVE",
"55 700 CURVE",
"55 656 LINE",
"79 657 OFFCURVE",
"103 659 OFFCURVE",
"127 660 CURVE",
"125 643 OFFCURVE",
"124 617 OFFCURVE",
"124 581 CURVE SMOOTH",
"124 161 LINE SMOOTH",
"124 86 OFFCURVE",
"130 35 OFFCURVE",
"55 33 CURVE",
"55 0 LINE"
);
},
{
closed = 1;
nodes = (
"210 57 OFFCURVE",
"211 82 OFFCURVE",
"211 118 CURVE SMOOTH",
"211 344 LINE",
"243 346 OFFCURVE",
"274 347 OFFCURVE",
"314 347 CURVE SMOOTH",
"405 347 OFFCURVE",
"486 312 OFFCURVE",
"486 190 CURVE SMOOTH",
"486 90 OFFCURVE",
"417 38 OFFCURVE",
"314 38 CURVE SMOOTH",
"301 38 OFFCURVE",
"239 37 OFFCURVE",
"208 40 CURVE"
);
},
{
closed = 1;
nodes = (
"211 569 LINE SMOOTH",
"211 642 OFFCURVE",
"221 666 OFFCURVE",
"286 666 CURVE SMOOTH",
"352 666 OFFCURVE",
"433 644 OFFCURVE",
"435 536 CURVE SMOOTH",
"436 462 OFFCURVE",
"398 387 OFFCURVE",
"284 385 CURVE SMOOTH",
"211 383 LINE"
);
}
);
width = 622;
},
{
layerId = "4C2B4986-1645-43C1-94B7-5E4C57EFF0D9";
paths = (
{
closed = 1;
nodes = (
"390 0 LINE SMOOTH",
"530 0 OFFCURVE",
"633 69 OFFCURVE",
"633 199 CURVE SMOOTH",
"633 282 OFFCURVE",
"572 357 OFFCURVE",
"439 378 CURVE",
"439 379 LINE",
"533 404 OFFCURVE",
"579 462 OFFCURVE",
"583 520 CURVE SMOOTH",
"589 642 OFFCURVE",
"487 703 OFFCURVE",
"327 702 CURVE SMOOTH",
"235 701 OFFCURVE",
"142 701 OFFCURVE",
"50 700 CURVE",
"50 623 LINE",
"64 624 OFFCURVE",
"104 625 OFFCURVE",
"125 626 CURVE",
"123 609 OFFCURVE",
"121 572 OFFCURVE",
"121 536 CURVE SMOOTH",
"121 153 LINE SMOOTH",
"121 72 OFFCURVE",
"95 68 OFFCURVE",
"50 66 CURVE",
"50 0 LINE"
);
},
{
closed = 1;
nodes = (
"264 88 OFFCURVE",
"266 123 OFFCURVE",
"266 159 CURVE SMOOTH",
"266 322 LINE",
"292 323 OFFCURVE",
"313 323 OFFCURVE",
"347 323 CURVE SMOOTH",
"411 323 OFFCURVE",
"476 294 OFFCURVE",
"476 202 CURVE SMOOTH",
"476 128 OFFCURVE",
"440 76 OFFCURVE",
"359 72 CURVE SMOOTH",
"328 71 OFFCURVE",
"297 71 OFFCURVE",
"262 71 CURVE"
);
},
{
closed = 1;
nodes = (
"266 548 LINE SMOOTH",
"266 625 OFFCURVE",
"292 631 OFFCURVE",
"324 632 CURVE SMOOTH",
"375 633 OFFCURVE",
"430 607 OFFCURVE",
"430 528 CURVE SMOOTH",
"430 455 OFFCURVE",
"402 396 OFFCURVE",
"318 394 CURVE SMOOTH",
"266 393 LINE"
);
}
);
width = 661;
}
);
leftKerningGroup = I;
unicode = 0042;
},
{
color = 4;
glyphname = C;
layers = (
{
anchors = (
{
name = bottom;
position = "{365, 0}";
},
{
name = top;
position = "{389, 700}";
}
);
layerId = UUID0;
paths = (
{
closed = 1;
nodes = (
"644 477 LINE",
"644 709 LINE",
"590 709 LINE",
"595 655 LINE",
"533 696 OFFCURVE",
"468 716 OFFCURVE",
"393 716 CURVE SMOOTH",
"160 716 OFFCURVE",
"46 527 OFFCURVE",
"46 339 CURVE SMOOTH",
"46 140 OFFCURVE",
"185 -16 OFFCURVE",
"386 -16 CURVE SMOOTH",
"468 -16 OFFCURVE",
"583 11 OFFCURVE",
"669 130 CURVE",
"643 151 LINE",
"589 76 OFFCURVE",
"499 36 OFFCURVE",
"412 36 CURVE SMOOTH",
"264 36 OFFCURVE",
"144 165 OFFCURVE",
"144 354 CURVE SMOOTH",
"144 550 OFFCURVE",
"258 675 OFFCURVE",
"400 675 CURVE SMOOTH",
"516 675 OFFCURVE",
"594 602 OFFCURVE",
"608 477 CURVE"
);
}
);
width = 699;
},
{
anchors = (
{
name = bottom;
position = "{326, 0}";
},
{
name = top;
position = "{403, 700}";
}
);
layerId = "4C2B4986-1645-43C1-94B7-5E4C57EFF0D9";
paths = (
{
closed = 1;
nodes = (
"631 476 LINE",
"631 709 LINE",
"554 709 LINE",
"558 667 LINE",
"503 699 OFFCURVE",
"437 716 OFFCURVE",
"385 716 CURVE SMOOTH",
"152 716 OFFCURVE",
"35 522 OFFCURVE",
"35 340 CURVE SMOOTH",
"35 141 OFFCURVE",
"172 -16 OFFCURVE",
"378 -16 CURVE SMOOTH",
"460 -16 OFFCURVE",
"581 9 OFFCURVE",
"679 144 CURVE",
"631 188 LINE",
"575 111 OFFCURVE",
"486 65 OFFCURVE",
"402 65 CURVE SMOOTH",
"268 65 OFFCURVE",
"192 188 OFFCURVE",
"192 360 CURVE SMOOTH",
"192 504 OFFCURVE",
"258 644 OFFCURVE",
"398 644 CURVE SMOOTH",
"491 643 OFFCURVE",
"548 587 OFFCURVE",
"566 476 CURVE"
);
}
);
width = 688;
}
);
leftKerningGroup = O;
rightKerningGroup = C;
unicode = 0043;
},
{
color = 4;
glyphname = Ccedilla;
layers = (
{
components = (
{
name = C;
},
{
name = cedillacomb.case;
transform = "{1, 0, 0, 1, 283, 0}";
}
);
layerId = UUID0;
width = 699;
},
{
background = {
paths = (
{
closed = 1;
nodes = (
"632 476 LINE",
"632 709 LINE",
"555 709 LINE",
"558 667 LINE",
"557 667 LINE",
"504 699 OFFCURVE",
"438 716 OFFCURVE",
"385 716 CURVE SMOOTH",
"152 716 OFFCURVE",
"36 522 OFFCURVE",
"36 340 CURVE SMOOTH",
"36 169 OFFCURVE",
"136 29 OFFCURVE",
"294 -7 CURVE",
"268 -121 LINE",
"309 -136 LINE",
"329 -120 OFFCURVE",
"376 -109 OFFCURVE",
"376 -146 CURVE SMOOTH",
"376 -187 OFFCURVE",
"289 -214 OFFCURVE",
"257 -220 CURVE",
"265 -275 LINE",
"342 -264 OFFCURVE",
"495 -219 OFFCURVE",
"495 -125 CURVE SMOOTH",
"495 -78 OFFCURVE",
"460 -53 OFFCURVE",
"419 -52 CURVE SMOOTH",
"401 -51 OFFCURVE",
"367 -59 OFFCURVE",
"351 -67 CURVE",
"350 -67 LINE",
"369 -16 LINE",
"372 -16 OFFCURVE",
"375 -16 OFFCURVE",
"378 -16 CURVE SMOOTH",
"461 -16 OFFCURVE",
"582 9 OFFCURVE",
"679 144 CURVE",
"631 188 LINE",
"576 111 OFFCURVE",
"486 65 OFFCURVE",
"403 65 CURVE SMOOTH",
"268 65 OFFCURVE",
"193 188 OFFCURVE",
"193 360 CURVE SMOOTH",
"193 504 OFFCURVE",
"259 644 OFFCURVE",
"398 644 CURVE SMOOTH",
"492 643 OFFCURVE",
"548 587 OFFCURVE",
"566 476 CURVE"
);
}
);
};
components = (
{
name = C;
},
{
name = cedillacomb.case;
transform = "{1, 0, 0, 1, 242, 0}";
}
);
layerId = "4C2B4986-1645-43C1-94B7-5E4C57EFF0D9";
width = 688;
}
);
leftKerningGroup = O;
rightKerningGroup = C;
unicode = 00C7;
},
{
color = 4;
glyphname = D;
layers = (
{
anchors = (
{
name = center;
position = "{373, 350}";
},
{
name = top;
position = "{346, 700}";
}
);
layerId = UUID0;
paths = (
{
closed = 1;
nodes = (
"55 0 LINE",
"318 0 LINE SMOOTH",
"569 0 OFFCURVE",
"699 165 OFFCURVE",
"699 349 CURVE SMOOTH",
"699 590 OFFCURVE",
"532 702 OFFCURVE",
"291 701 CURVE SMOOTH",
"55 700 LINE",
"55 656 LINE",
"79 657 OFFCURVE",
"103 659 OFFCURVE",
"127 660 CURVE",
"125 640 OFFCURVE",
"124 615 OFFCURVE",
"124 588 CURVE SMOOTH",
"124 156 LINE SMOOTH",
"124 85 OFFCURVE",
"130 36 OFFCURVE",
"55 33 CURVE"
);
},
{
closed = 1;
nodes = (
"211 544 LINE SMOOTH",
"211 615 OFFCURVE",
"205 664 OFFCURVE",
"280 664 CURVE SMOOTH",
"500 664 OFFCURVE",
"601 542 OFFCURVE",
"601 353 CURVE SMOOTH",
"601 174 OFFCURVE",
"487 38 OFFCURVE",
"315 38 CURVE SMOOTH",
"307 38 OFFCURVE",
"261 37 OFFCURVE",
"208 40 CURVE",
"210 57 OFFCURVE",
"211 82 OFFCURVE",
"211 118 CURVE SMOOTH"
);
}
);
width = 745;
},
{
anchors = (
{
name = center;
position = "{380, 350}";
},
{
name = top;
position = "{360, 700}";
}
);
layerId = "4C2B4986-1645-43C1-94B7-5E4C57EFF0D9";
paths = (
{
closed = 1;
nodes = (
"50 0 LINE",
"336 0 LINE SMOOTH",
"616 0 OFFCURVE",
"724 194 OFFCURVE",
"724 357 CURVE SMOOTH",
"724 523 OFFCURVE",
"605 702 OFFCURVE",
"341 701 CURVE SMOOTH",
"50 700 LINE",
"50 623 LINE",
"64 624 OFFCURVE",
"104 625 OFFCURVE",
"125 626 CURVE",
"123 609 OFFCURVE",
"121 572 OFFCURVE",
"121 536 CURVE SMOOTH",
"121 153 LINE SMOOTH",
"121 72 OFFCURVE",
"95 68 OFFCURVE",
"50 66 CURVE"
);
},
{
closed = 1;
nodes = (
"266 549 LINE SMOOTH",
"266 626 OFFCURVE",
"290 636 OFFCURVE",
"339 634 CURVE SMOOTH",
"478 630 OFFCURVE",
"566 540 OFFCURVE",
"566 336 CURVE SMOOTH",
"566 203 OFFCURVE",
"503 73 OFFCURVE",
"357 73 CURVE SMOOTH",
"333 73 OFFCURVE",
"281 76 OFFCURVE",
"262 74 CURVE",
"264 91 OFFCURVE",
"266 128 OFFCURVE",
"266 164 CURVE SMOOTH"
);
}
);
width = 759;
}
);
leftKerningGroup = I;
rightKerningGroup = D;
unicode = 0044;
},
{
color = 4;
glyphname = Eth;
layers = (
{
background = {
anchors = (
{
name = center;
position = "{390, 350}";
},
{
name = top;
position = "{390, 700}";
}
);
paths = (
{
closed = 1;
nodes = (
"305 700 LINE",
"305 656 LINE",
"377 660 LINE",
"375 640 OFFCURVE",
"374 615 OFFCURVE",
"374 588 CURVE SMOOTH",
"374 378 LINE",
"16 378 LINE",
"16 544 LINE SMOOTH",
"16 615 OFFCURVE",
"10 664 OFFCURVE",
"85 667 CURVE",
"85 700 LINE",
"-140 700 LINE",
"-140 656 LINE",
"-68 660 LINE",
"-70 640 OFFCURVE",
"-71 615 OFFCURVE",
"-71 588 CURVE SMOOTH",
"-71 156 LINE SMOOTH",
"-71 85 OFFCURVE",
"-65 36 OFFCURVE",
"-140 33 CURVE",
"-140 0 LINE",
"85 0 LINE",
"85 44 LINE",
"13 40 LINE",
"15 57 OFFCURVE",
"16 83 OFFCURVE",
"16 119 CURVE SMOOTH",
"16 334 LINE",
"374 338 LINE",
"374 156 LINE SMOOTH",
"374 85 OFFCURVE",
"380 36 OFFCURVE",
"305 33 CURVE",
"305 0 LINE",
"530 0 LINE",
"530 44 LINE",
"458 40 LINE",
"460 57 OFFCURVE",
"461 83 OFFCURVE",
"461 119 CURVE SMOOTH",
"461 544 LINE SMOOTH",
"461 615 OFFCURVE",
"455 664 OFFCURVE",
"530 667 CURVE",
"530 700 LINE"
);
}
);
};
components = (
{
name = D;
transform = "{1, 0, 0, 1, 1, 0}";
}
);
layerId = UUID0;
paths = (
{
closed = 1;
nodes = (
"393 335 LINE",
"393 377 LINE",
"19 377 LINE",
"19 335 LINE"
);
}
);
width = 746;
},
{
background = {
anchors = (
{
name = center;
position = "{403, 350}";
},
{
name = top;
position = "{403, 700}";
}
);
paths = (
{
closed = 1;
nodes = (
"274 700 LINE",
"274 623 LINE",
"289 624 OFFCURVE",
"328 625 OFFCURVE",
"350 626 CURVE",
"347 609 OFFCURVE",
"346 572 OFFCURVE",
"346 536 CURVE SMOOTH",
"346 391 LINE",
"70 391 LINE",
"70 547 LINE SMOOTH",
"70 628 OFFCURVE",
"97 632 OFFCURVE",
"142 634 CURVE",
"142 700 LINE",
"-146 700 LINE",
"-146 623 LINE",
"-131 624 OFFCURVE",
"-92 625 OFFCURVE",
"-70 626 CURVE",
"-73 609 OFFCURVE",
"-74 572 OFFCURVE",
"-74 536 CURVE SMOOTH",
"-74 153 LINE SMOOTH",
"-74 72 OFFCURVE",
"-101 68 OFFCURVE",
"-146 66 CURVE",
"-146 0 LINE",
"142 0 LINE",
"142 77 LINE",
"127 77 OFFCURVE",
"88 76 OFFCURVE",
"66 74 CURVE",
"69 91 OFFCURVE",
"70 128 OFFCURVE",
"70 164 CURVE SMOOTH",
"70 312 LINE",
"346 315 LINE",
"346 153 LINE SMOOTH",
"346 72 OFFCURVE",
"319 68 OFFCURVE",
"274 66 CURVE",
"274 0 LINE",
"562 0 LINE",
"562 77 LINE",
"547 77 OFFCURVE",
"508 76 OFFCURVE",
"486 74 CURVE",
"489 91 OFFCURVE",
"490 128 OFFCURVE",
"490 164 CURVE SMOOTH",
"490 547 LINE SMOOTH",
"490 628 OFFCURVE",
"517 632 OFFCURVE",
"562 634 CURVE",
"562 700 LINE"
);
}
);
};
components = (
{
name = D;
transform = "{1, 0, 0, 1, 1, 0}";
}
);
layerId = "4C2B4986-1645-43C1-94B7-5E4C57EFF0D9";
paths = (
{
closed = 1;
nodes = (
"421 316 LINE",
"421 391 LINE",
"30 391 LINE",
"30 312 LINE"
);
}
);
width = 759;
}
);
leftKerningGroup = I;
rightKerningGroup = D;
unicode = 00D0;
},
{
color = 4;
glyphname = Dcroat;
layers = (
{
components = (
{
name = Eth;
}
);
layerId = UUID0;
width = 746;
},
{
background = {
paths = (
{
closed = 1;
nodes = (
"476 547 LINE",
"476 628 OFFCURVE",
"502 632 OFFCURVE",
"547 634 CURVE",
"547 700 LINE",
"260 700 LINE",
"260 623 LINE",
"274 624 OFFCURVE",
"313 625 OFFCURVE",
"335 626 CURVE",
"333 609 OFFCURVE",
"331 572 OFFCURVE",
"331 536 CURVE SMOOTH",
"331 391 LINE",
"56 391 LINE",
"56 547 LINE SMOOTH",
"56 628 OFFCURVE",
"82 632 OFFCURVE",
"127 634 CURVE",
"127 700 LINE",
"-160 700 LINE",
"-160 623 LINE",
"-146 624 OFFCURVE",
"-106 625 OFFCURVE",
"-85 626 CURVE",
"-87 609 OFFCURVE",
"-89 572 OFFCURVE",
"-89 536 CURVE SMOOTH",
"-89 153 LINE SMOOTH",
"-89 72 OFFCURVE",
"-115 68 OFFCURVE",
"-160 66 CURVE",
"-160 0 LINE",
"127 0 LINE",
"127 77 LINE",
"113 77 OFFCURVE",
"73 76 OFFCURVE",
"52 74 CURVE",
"54 91 OFFCURVE",
"56 128 OFFCURVE",
"56 164 CURVE SMOOTH",
"56 312 LINE",
"331 315 LINE",
"331 153 LINE SMOOTH",
"331 72 OFFCURVE",
"305 68 OFFCURVE",
"260 66 CURVE",
"260 0 LINE",
"547 0 LINE",
"547 77 LINE",
"533 77 OFFCURVE",
"493 76 OFFCURVE",
"472 74 CURVE",
"474 91 OFFCURVE",
"476 128 OFFCURVE",
"476 164 CURVE SMOOTH"
);
}
);
};
components = (
{
name = Eth;
}
);
layerId = "4C2B4986-1645-43C1-94B7-5E4C57EFF0D9";
width = 759;
}
);
leftKerningGroup = I;
rightKerningGroup = D;
unicode = 0110;
userData = {
public.markColor = "0.75,0.75,0.75,1";
};
},
{
color = 4;
glyphname = E;
layers = (
{
anchors = (
{
name = bottom;
position = "{372, 0}";
},
{
name = ogonek;
position = "{560, 5}";
},
{
name = top;
position = "{327, 700}";
},
{
name = topleft;
position = "{20, 700}";
}
);
layerId = UUID0;
paths = (
{
closed = 1;
nodes = (
"436 259 LINE",
"436 469 LINE",
"392 469 LINE",
"399 383 LINE",
"211 384 LINE",
"211 544 LINE SMOOTH",
"211 625 OFFCURVE",
"212 661 OFFCURVE",
"287 663 CURVE SMOOTH",
"373 665 LINE SMOOTH",
"448 667 OFFCURVE",
"508 643 OFFCURVE",
"508 525 CURVE",
"541 525 LINE",
"536 700 LINE",
"55 700 LINE",
"55 656 LINE",
"79 657 OFFCURVE",
"103 659 OFFCURVE",
"127 660 CURVE",
"125 640 OFFCURVE",
"124 615 OFFCURVE",
"124 588 CURVE SMOOTH",
"124 156 LINE SMOOTH",
"124 85 OFFCURVE",
"130 36 OFFCURVE",
"55 33 CURVE",
"55 0 LINE",
"571 0 LINE",
"577 195 LINE",
"543 195 LINE",
"543 76 OFFCURVE",
"486 41 OFFCURVE",
"399 40 CURVE SMOOTH",
"208 37 LINE",
"210 54 OFFCURVE",
"211 79 OFFCURVE",
"211 115 CURVE SMOOTH",
"211 344 LINE",
"284 347 LINE SMOOTH",
"369 350 OFFCURVE",
"403 347 OFFCURVE",
"403 259 CURVE"
);
}
);
width = 622;
},
{
anchors = (
{
name = bottom;
position = "{383, 0}";
},
{
name = ogonek;
position = "{562, 5}";
},
{
name = top;
position = "{324, 700}";
},
{
name = topleft;
position = "{20, 700}";
}
);
layerId = "4C2B4986-1645-43C1-94B7-5E4C57EFF0D9";
paths = (
{
closed = 1;
nodes = (
"456 241 LINE",
"456 484 LINE",
"379 484 LINE",
"383 397 LINE",
"266 397 LINE",
"266 547 LINE SMOOTH",
"266 625 OFFCURVE",
"291 633 OFFCURVE",
"333 634 CURVE SMOOTH",
"369 635 LINE SMOOTH",
"423 637 OFFCURVE",
"490 615 OFFCURVE",
"490 506 CURVE",
"556 506 LINE",
"550 700 LINE",
"50 700 LINE",
"50 623 LINE",
"64 624 OFFCURVE",
"104 625 OFFCURVE",
"125 626 CURVE",
"123 609 OFFCURVE",
"121 572 OFFCURVE",
"121 536 CURVE SMOOTH",
"121 153 LINE SMOOTH",
"121 72 OFFCURVE",
"95 68 OFFCURVE",
"50 66 CURVE",
"50 0 LINE",
"578 0 LINE",
"583 220 LINE",
"518 220 LINE",
"518 112 OFFCURVE",
"455 76 OFFCURVE",
"396 76 CURVE SMOOTH",
"262 76 LINE",
"264 93 OFFCURVE",
"266 128 OFFCURVE",
"266 164 CURVE SMOOTH",
"266 328 LINE",
"292 329 LINE SMOOTH",
"346 330 OFFCURVE",
"390 325 OFFCURVE",
"390 241 CURVE"
);
}
);
width = 624;
}
);
leftKerningGroup = I;
rightKerningGroup = E;
unicode = 0045;
},
{
color = 7;
glyphname = Ezh;
layers = (
{
background = {
anchors = (
{
name = bottom;
position = "{314, 0}";
},
{
name = top;
position = "{306, 700}";
}
);
paths = (
{
closed = 1;
nodes = (
"339 353 LINE",
"582 665 LINE",
"583 700 LINE",
"81 700 LINE",
"75 493 LINE",
"109 493 LINE",
"109 607 OFFCURVE",
"148 658 OFFCURVE",
"227 659 CURVE SMOOTH",
"487 663 LINE",
"461 634 OFFCURVE",
"440 603 OFFCURVE",
"420 573 CURVE SMOOTH",
"364 504 OFFCURVE",
"297 424 OFFCURVE",
"253 371 CURVE"
);
},
{
closed = 1;
nodes = (
"445 -16 OFFCURVE",
"574 57 OFFCURVE",
"574 201 CURVE SMOOTH",
"574 299 OFFCURVE",
"498 375 OFFCURVE",
"350 375 CURVE",
"291 375 LINE",
"279 348 LINE",
"412 347 OFFCURVE",
"475 301 OFFCURVE",
"475 202 CURVE SMOOTH",
"475 89 OFFCURVE",
"390 32 OFFCURVE",
"291 32 CURVE SMOOTH",
"205 32 OFFCURVE",
"120 76 OFFCURVE",
"66 151 CURVE",
"40 130 LINE",
"111 31 OFFCURVE",
"206 -16 OFFCURVE",
"313 -16 CURVE SMOOTH"
);
},
{
closed = 1;
nodes = (
"306 348 LINE",
"296 389 LINE",
"211 389 LINE",
"211 347 LINE"
);
}
);
};
components = (
{
name = "Dzeabkhasian-cy";
}
);
layerId = UUID0;
width = 613;
},
{
background = {
paths = (
{
closed = 1;
nodes = (
"380 365 LINE",
"590 625 LINE",
"590 700 LINE",
"81 700 LINE",
"75 487 LINE",
"141 487 LINE",
"141 595 OFFCURVE",
"194 637 OFFCURVE",
"268 635 CURVE SMOOTH",
"439 630 LINE",
"439 629 LINE",
"414 599 OFFCURVE",
"399 568 OFFCURVE",
"369 531 CURVE SMOOTH",
"232 365 LINE"
);
},
{
closed = 1;
nodes = (
"380 365 LINE",
"590 625 LINE",
"590 700 LINE",
"81 700 LINE",
"75 487 LINE",
"141 487 LINE",
"141 595 OFFCURVE",
"194 637 OFFCURVE",
"268 635 CURVE SMOOTH",
"439 630 LINE",
"439 629 LINE",
"414 599 OFFCURVE",
"399 568 OFFCURVE",
"369 531 CURVE SMOOTH",
"232 365 LINE"
);
}
);
};
components = (
{
name = "Dzeabkhasian-cy";
}
);
layerId = "4C2B4986-1645-43C1-94B7-5E4C57EFF0D9";
width = 649;
}
);
unicode = 01B7;
},
{
color = 4;
glyphname = F;
layers = (
{
layerId = UUID0;
paths = (
{
closed = 1;
nodes = (
"310 0 LINE",
"310 44 LINE",
"276 43 OFFCURVE",
"242 41 OFFCURVE",
"208 40 CURVE",
"210 57 OFFCURVE",
"211 83 OFFCURVE",
"211 119 CURVE SMOOTH",
"211 329 LINE",
"271 332 LINE SMOOTH",
"355 336 OFFCURVE",
"390 332 OFFCURVE",
"390 243 CURVE",
"422 243 LINE",
"422 454 LINE",
"378 454 LINE",
"385 367 LINE",
"211 368 LINE",
"211 540 LINE SMOOTH",
"211 609 OFFCURVE",
"206 661 OFFCURVE",
"280 663 CURVE SMOOTH",
"353 665 LINE SMOOTH",
"428 667 OFFCURVE",
"491 643 OFFCURVE",
"491 525 CURVE",
"524 525 LINE",
"519 700 LINE",
"55 700 LINE",
"55 656 LINE",
"79 657 OFFCURVE",
"103 659 OFFCURVE",
"127 660 CURVE",
"125 640 OFFCURVE",
"124 615 OFFCURVE",
"124 588 CURVE SMOOTH",
"124 156 LINE SMOOTH",
"124 85 OFFCURVE",
"130 36 OFFCURVE",
"55 33 CURVE",
"55 0 LINE"
);
}
);
width = 548;
},
{
layerId = "4C2B4986-1645-43C1-94B7-5E4C57EFF0D9";
paths = (
{
closed = 1;
nodes = (
"351 0 LINE",
"351 77 LINE",
"336 77 OFFCURVE",
"283 76 OFFCURVE",
"262 74 CURVE",
"264 91 OFFCURVE",
"266 128 OFFCURVE",
"266 164 CURVE SMOOTH",
"266 304 LINE",
"278 304 LINE SMOOTH",
"332 306 OFFCURVE",
"376 300 OFFCURVE",
"376 216 CURVE",
"442 216 LINE",
"442 459 LINE",
"365 459 LINE",
"369 373 LINE",
"266 373 LINE",
"266 547 LINE SMOOTH",
"266 625 OFFCURVE",
"291 633 OFFCURVE",
"333 634 CURVE SMOOTH",
"369 635 LINE SMOOTH",
"423 637 OFFCURVE",
"490 615 OFFCURVE",
"490 506 CURVE",
"556 506 LINE",
"550 700 LINE",
"50 700 LINE",
"50 623 LINE",
"64 624 OFFCURVE",
"104 625 OFFCURVE",
"125 626 CURVE",
"123 609 OFFCURVE",
"121 572 OFFCURVE",
"121 536 CURVE SMOOTH",
"121 153 LINE SMOOTH",
"121 72 OFFCURVE",
"95 68 OFFCURVE",
"50 66 CURVE",
"50 0 LINE"
);
}
);
width = 571;
}
);
leftKerningGroup = I;
unicode = 0046;
},
{
color = 4;
glyphname = G;
layers = (
{
anchors = (
{
name = bottom;
position = "{427, 0}";
},
{
name = top;
position = "{396, 700}";
}
);
layerId = UUID0;
paths = (
{
closed = 1;
nodes = (
"431 -16 OFFCURVE",
"492 -6 OFFCURVE",
"533 10 CURVE SMOOTH",
"581 29 OFFCURVE",
"619 36 OFFCURVE",
"641 36 CURVE SMOOTH",
"668 36 LINE",
"668 189 LINE SMOOTH",
"668 216 OFFCURVE",
"665 308 OFFCURVE",
"740 308 CURVE",
"740 341 LINE",
"514 341 LINE",
"514 297 LINE",
"537 298 OFFCURVE",
"561 300 OFFCURVE",
"584 301 CURVE",
"584 269 OFFCURVE",
"584 236 OFFCURVE",
"584 204 CURVE",
"584 82 LINE",
"532 47 OFFCURVE",
"466 32 OFFCURVE",
"413 32 CURVE SMOOTH",
"255 32 OFFCURVE",
"145 169 OFFCURVE",
"145 358 CURVE SMOOTH",
"145 544 OFFCURVE",
"260 676 OFFCURVE",
"402 676 CURVE SMOOTH",
"518 676 OFFCURVE",
"608 605 OFFCURVE",
"617 480 CURVE",
"653 480 LINE",
"653 709 LINE",
"598 709 LINE",
"602 661 LINE",
"546 695 OFFCURVE",
"467 716 OFFCURVE",
"395 716 CURVE SMOOTH",
"162 716 OFFCURVE",
"47 523 OFFCURVE",
"47 335 CURVE SMOOTH",
"47 116 OFFCURVE",
"186 -16 OFFCURVE",
"387 -16 CURVE SMOOTH"
);
}
);
width = 761;
},
{
anchors = (
{
name = bottom;
position = "{433, 0}";
},
{
name = top;
position = "{387, 700}";
}
);
layerId = "4C2B4986-1645-43C1-94B7-5E4C57EFF0D9";
paths = (
{
closed = 1;
nodes = (
"436 -16 OFFCURVE",
"484 -4 OFFCURVE",
"526 8 CURVE SMOOTH",
"570 21 OFFCURVE",
"607 34 OFFCURVE",
"646 34 CURVE SMOOTH",
"670 34 LINE",
"670 194 LINE SMOOTH",
"670 270 OFFCURVE",
"692 279 OFFCURVE",
"737 281 CURVE",
"737 347 LINE",
"471 347 LINE",
"471 270 LINE",
"485 271 OFFCURVE",
"525 271 OFFCURVE",
"546 273 CURVE",
"544 256 OFFCURVE",
"542 219 OFFCURVE",
"542 183 CURVE SMOOTH",
"542 90 LINE",
"505 72 OFFCURVE",
"439 63 OFFCURVE",
"401 63 CURVE SMOOTH",
"265 63 OFFCURVE",
"192 188 OFFCURVE",
"192 360 CURVE SMOOTH",
"192 504 OFFCURVE",
"257 644 OFFCURVE",
"396 644 CURVE SMOOTH",
"490 643 OFFCURVE",
"564 587 OFFCURVE",
"582 476 CURVE",
"647 476 LINE",
"647 709 LINE",
"570 709 LINE",
"574 667 LINE",
"520 699 OFFCURVE",
"436 716 OFFCURVE",
"383 716 CURVE SMOOTH",
"150 716 OFFCURVE",
"36 522 OFFCURVE",
"36 340 CURVE SMOOTH",
"36 141 OFFCURVE",
"159 -16 OFFCURVE",
"376 -16 CURVE SMOOTH"
);
}
);
width = 754;
}
);
leftKerningGroup = O;
rightKerningGroup = G;
unicode = 0047;
},
{
color = 7;
glyphname = Gstroke;
layers = (
{
components = (
{
name = G;
}
);
layerId = UUID0;
paths = (
{
closed = 1;
nodes = (
"752 189 LINE",
"752 228 LINE",
"468 228 LINE",
"468 185 LINE"
);
}
);
width = 761;
},
{
components = (
{
name = G;
}
);
layerId = "4C2B4986-1645-43C1-94B7-5E4C57EFF0D9";
paths = (
{
closed = 1;
nodes = (
"752 189 LINE",
"752 228 LINE",
"447 228 LINE",
"447 185 LINE"
);
}
);
width = 754;
}
);
unicode = 01E4;
},
{
color = 4;
glyphname = H;
layers = (
{
anchors = (
{
name = center;
position = "{390, 350}";
},
{
name = top;
position = "{390, 700}";
}
);
layerId = UUID0;
paths = (
{
closed = 1;
nodes = (
"280 0 LINE",
"280 44 LINE",
"256 43 OFFCURVE",
"232 41 OFFCURVE",
"208 40 CURVE",
"210 57 OFFCURVE",
"211 83 OFFCURVE",
"211 119 CURVE SMOOTH",
"211 334 LINE",
"569 338 LINE",
"569 156 LINE SMOOTH",
"569 85 OFFCURVE",
"575 36 OFFCURVE",
"500 33 CURVE",
"500 0 LINE",
"725 0 LINE",
"725 44 LINE",
"701 43 OFFCURVE",
"677 41 OFFCURVE",
"653 40 CURVE",
"655 57 OFFCURVE",
"656 83 OFFCURVE",
"656 119 CURVE SMOOTH",
"656 544 LINE SMOOTH",
"656 615 OFFCURVE",
"650 664 OFFCURVE",
"725 667 CURVE",
"725 700 LINE",
"500 700 LINE",
"500 656 LINE",
"524 657 OFFCURVE",
"548 659 OFFCURVE",
"572 660 CURVE",
"570 640 OFFCURVE",
"569 615 OFFCURVE",
"569 588 CURVE SMOOTH",
"569 378 LINE",
"211 378 LINE",
"211 544 LINE SMOOTH",
"211 615 OFFCURVE",
"205 664 OFFCURVE",
"280 667 CURVE",
"280 700 LINE",
"55 700 LINE",
"55 656 LINE",
"79 657 OFFCURVE",
"103 659 OFFCURVE",
"127 660 CURVE",
"125 640 OFFCURVE",
"124 615 OFFCURVE",
"124 588 CURVE SMOOTH",
"124 156 LINE SMOOTH",
"124 85 OFFCURVE",
"130 36 OFFCURVE",
"55 33 CURVE",
"55 0 LINE"
);
}
);
width = 780;
},
{
anchors = (
{
name = center;
position = "{403, 350}";
},
{
name = top;
position = "{403, 700}";
}
);
layerId = "4C2B4986-1645-43C1-94B7-5E4C57EFF0D9";
paths = (
{
closed = 1;
nodes = (
"337 0 LINE",
"337 77 LINE",
"323 77 OFFCURVE",
"283 76 OFFCURVE",
"262 74 CURVE",
"264 91 OFFCURVE",
"266 128 OFFCURVE",
"266 164 CURVE SMOOTH",
"266 312 LINE",
"541 315 LINE",
"541 153 LINE SMOOTH",
"541 72 OFFCURVE",
"515 68 OFFCURVE",
"470 66 CURVE",
"470 0 LINE",
"757 0 LINE",
"757 77 LINE",
"743 77 OFFCURVE",
"703 76 OFFCURVE",
"682 74 CURVE",
"684 91 OFFCURVE",
"686 128 OFFCURVE",
"686 164 CURVE SMOOTH",
"686 547 LINE SMOOTH",
"686 628 OFFCURVE",
"712 632 OFFCURVE",
"757 634 CURVE",
"757 700 LINE",
"470 700 LINE",
"470 623 LINE",
"484 624 OFFCURVE",
"523 625 OFFCURVE",
"545 626 CURVE",
"542 609 OFFCURVE",
"541 572 OFFCURVE",
"541 536 CURVE SMOOTH",
"541 391 LINE",
"266 391 LINE",
"266 547 LINE SMOOTH",
"266 628 OFFCURVE",
"292 632 OFFCURVE",
"337 634 CURVE",
"337 700 LINE",
"50 700 LINE",
"50 623 LINE",
"64 624 OFFCURVE",
"104 625 OFFCURVE",
"125 626 CURVE",
"123 609 OFFCURVE",
"121 572 OFFCURVE",
"121 536 CURVE SMOOTH",
"121 153 LINE SMOOTH",
"121 72 OFFCURVE",
"95 68 OFFCURVE",
"50 66 CURVE",
"50 0 LINE"
);
}
);
width = 807;
}
);
leftKerningGroup = I;
rightKerningGroup = I;
unicode = 0048;
},
{
color = 7;
glyphname = Hbar;
layers = (
{
components = (
{
name = H;
}
);
layerId = UUID0;
paths = (
{
closed = 1;
nodes = (
"742 519 LINE",
"742 558 LINE",
"37 558 LINE",
"37 515 LINE"
);
}
);
width = 780;
},
{
components = (
{
name = H;
}
);
layerId = "4C2B4986-1645-43C1-94B7-5E4C57EFF0D9";
paths = (
{
closed = 1;
nodes = (
"756 489 LINE",
"756 538 LINE",
"51 538 LINE",
"51 485 LINE"
);
}
);
width = 807;
}
);
unicode = 0126;
},
{
color = 4;
glyphname = I;
layers = (
{
anchors = (
{
name = bottom;
position = "{168, 0}";
},
{
name = ogonek;
position = "{274, 0}";
},
{
name = top;
position = "{171, 700}";
},
{
name = topleft;
position = "{20, 700}";
}
);
layerId = UUID0;
paths = (
{
closed = 1;
nodes = (
"280 700 LINE",
"55 700 LINE",
"55 656 LINE",
"79 657 OFFCURVE",
"103 659 OFFCURVE",
"127 660 CURVE",
"125 640 OFFCURVE",
"124 615 OFFCURVE",
"124 588 CURVE SMOOTH",
"124 156 LINE SMOOTH",
"124 85 OFFCURVE",
"130 36 OFFCURVE",
"55 33 CURVE",
"55 0 LINE",
"280 0 LINE",
"280 44 LINE",
"256 43 OFFCURVE",
"232 41 OFFCURVE",
"208 40 CURVE",
"210 57 OFFCURVE",
"211 83 OFFCURVE",
"211 119 CURVE SMOOTH",
"211 544 LINE SMOOTH",
"211 615 OFFCURVE",
"205 664 OFFCURVE",
"280 667 CURVE"
);
}
);
width = 335;
},
{
anchors = (
{
name = bottom;
position = "{194, 0}";
},
{
name = ogonek;
position = "{336, 0}";
},
{
name = top;
position = "{192, 700}";
},
{
name = topleft;
position = "{20, 700}";
}
);
layerId = "4C2B4986-1645-43C1-94B7-5E4C57EFF0D9";
paths = (
{
closed = 1;
nodes = (
"337 700 LINE",
"50 700 LINE",
"50 623 LINE",
"64 624 OFFCURVE",
"104 625 OFFCURVE",
"125 626 CURVE",
"123 609 OFFCURVE",
"121 572 OFFCURVE",
"121 536 CURVE SMOOTH",
"121 153 LINE SMOOTH",
"121 72 OFFCURVE",
"95 68 OFFCURVE",
"50 66 CURVE",
"50 0 LINE",
"337 0 LINE",
"337 77 LINE",
"323 77 OFFCURVE",
"283 76 OFFCURVE",
"262 74 CURVE",
"264 91 OFFCURVE",
"266 128 OFFCURVE",
"266 164 CURVE SMOOTH",
"266 547 LINE SMOOTH",
"266 628 OFFCURVE",
"292 632 OFFCURVE",
"337 634 CURVE"
);
}
);
width = 387;
}
);
leftKerningGroup = I;
rightKerningGroup = I;
unicode = 0049;
},
{
color = 4;
glyphname = J;
layers = (
{
anchors = (
{
name = top;
position = "{215, 700}";
}
);
layerId = UUID0;
paths = (
{
closed = 1;
nodes = (
"219 -16 OFFCURVE",
"266 56 OFFCURVE",
"266 244 CURVE SMOOTH",
"266 568 LINE SMOOTH",
"266 624 OFFCURVE",
"277 667 OFFCURVE",
"343 667 CURVE",
"343 700 LINE",
"77 700 LINE",
"77 656 LINE",
"111 657 OFFCURVE",
"145 659 OFFCURVE",
"179 660 CURVE",
"179 630 OFFCURVE",
"179 601 OFFCURVE",
"179 571 CURVE",
"179 139 LINE SMOOTH",
"179 57 OFFCURVE",
"160 26 OFFCURVE",
"120 25 CURVE SMOOTH",
"110 24 OFFCURVE",
"89 28 OFFCURVE",
"81 41 CURVE",
"84 47 OFFCURVE",
"85 57 OFFCURVE",
"85 63 CURVE SMOOTH",
"85 83 OFFCURVE",
"74 109 OFFCURVE",
"41 107 CURVE SMOOTH",
"12 106 OFFCURVE",
"-2 81 OFFCURVE",
"-2 55 CURVE SMOOTH",
"-2 11 OFFCURVE",
"48 -16 OFFCURVE",
"104 -16 CURVE SMOOTH"
);
}
);
width = 373;
},
{
anchors = (
{
name = top;
position = "{256, 700}";
}
);
layerId = "4C2B4986-1645-43C1-94B7-5E4C57EFF0D9";
paths = (
{
closed = 1;
nodes = (
"279 -16 OFFCURVE",
"353 62 OFFCURVE",
"353 254 CURVE SMOOTH",
"353 547 LINE SMOOTH",
"353 628 OFFCURVE",
"379 632 OFFCURVE",
"424 634 CURVE",
"424 700 LINE",
"137 700 LINE",
"137 623 LINE",
"151 624 OFFCURVE",
"190 625 OFFCURVE",
"212 626 CURVE",
"209 609 OFFCURVE",
"208 572 OFFCURVE",
"208 536 CURVE SMOOTH",
"208 135 LINE SMOOTH",
"208 79 OFFCURVE",
"192 56 OFFCURVE",
"164 56 CURVE SMOOTH",
"157 56 OFFCURVE",
"139 59 OFFCURVE",
"133 72 CURVE",
"139 84 OFFCURVE",
"143 98 OFFCURVE",
"142 109 CURVE SMOOTH",
"141 143 OFFCURVE",
"120 177 OFFCURVE",
"70 174 CURVE SMOOTH",
"25 172 OFFCURVE",
"1 133 OFFCURVE",
"1 91 CURVE SMOOTH",
"1 29 OFFCURVE",
"65 -16 OFFCURVE",
"144 -16 CURVE SMOOTH"
);
}
);
width = 451;
}
);
leftKerningGroup = J;
rightKerningGroup = J;
unicode = 004A;
},
{
color = 4;
glyphname = K;
layers = (
{
anchors = (
{
name = bottom;
position = "{378, 0}";
},
{
name = top;
position = "{347, 700}";
}
);
layerId = UUID0;
paths = (
{
closed = 1;
nodes = (
"280 0 LINE",
"280 44 LINE",
"256 43 OFFCURVE",
"232 41 OFFCURVE",
"208 40 CURVE",
"210 57 OFFCURVE",
"211 83 OFFCURVE",
"211 119 CURVE SMOOTH",
"211 340 LINE",
"260 341 LINE",
"284 326 OFFCURVE",
"310 293 OFFCURVE",
"335 260 CURVE SMOOTH",
"455 98 LINE SMOOTH",
"494 47 OFFCURVE",
"536 0 OFFCURVE",
"556 0 CURVE SMOOTH",
"678 0 LINE",
"678 33 LINE",
"635 33 OFFCURVE",
"607 41 OFFCURVE",
"531 142 CURVE SMOOTH",
"419 291 LINE SMOOTH",
"395 322 OFFCURVE",
"374 353 OFFCURVE",
"336 376 CURVE",
"434 532 LINE SMOOTH",
"502 641 OFFCURVE",
"552 660 OFFCURVE",
"636 667 CURVE",
"636 700 LINE",
"421 700 LINE",
"421 659 LINE",
"441 660 OFFCURVE",
"462 660 OFFCURVE",
"482 661 CURVE",
"455 639 OFFCURVE",
"428 603 OFFCURVE",
"411 577 CURVE SMOOTH",
"286 380 LINE",
"211 380 LINE",
"211 544 LINE SMOOTH",
"211 615 OFFCURVE",
"205 664 OFFCURVE",
"280 667 CURVE",
"280 700 LINE",
"55 700 LINE",
"55 656 LINE",
"79 657 OFFCURVE",
"103 659 OFFCURVE",
"127 660 CURVE",
"125 640 OFFCURVE",
"124 615 OFFCURVE",
"124 588 CURVE SMOOTH",
"124 156 LINE SMOOTH",
"124 85 OFFCURVE",
"130 36 OFFCURVE",
"55 33 CURVE",
"55 0 LINE"
);
}
);
width = 683;
},
{
anchors = (
{
name = bottom;
position = "{409, 0}";
},
{
name = top;
position = "{371, 700}";
}
);
layerId = "4C2B4986-1645-43C1-94B7-5E4C57EFF0D9";
paths = (
{
closed = 1;
nodes = (
"337 0 LINE",
"337 77 LINE",
"323 77 OFFCURVE",
"283 76 OFFCURVE",
"262 74 CURVE",
"264 91 OFFCURVE",
"266 128 OFFCURVE",
"266 164 CURVE SMOOTH",
"266 315 LINE",
"302 315 LINE",
"320 302 OFFCURVE",
"342 271 OFFCURVE",
"360 246 CURVE",
"459 102 LINE SMOOTH",
"486 63 OFFCURVE",
"541 1 OFFCURVE",
"557 0 CURVE",
"711 0 LINE",
"711 66 LINE",
"666 68 OFFCURVE",
"620 117 OFFCURVE",
"580 174 CURVE SMOOTH",
"477 319 LINE SMOOTH",
"461 341 OFFCURVE",
"440 361 OFFCURVE",
"414 378 CURVE",
"510 532 LINE SMOOTH",
"565 621 OFFCURVE",
"620 632 OFFCURVE",
"665 634 CURVE",
"665 700 LINE",
"420 700 LINE",
"420 623 LINE",
"434 624 OFFCURVE",
"462 625 OFFCURVE",
"483 627 CURVE",
"466 612 OFFCURVE",
"438 566 OFFCURVE",
"415 526 CURVE SMOOTH",
"338 395 LINE",
"266 395 LINE",
"266 547 LINE SMOOTH",
"266 628 OFFCURVE",
"292 632 OFFCURVE",
"337 634 CURVE",
"337 700 LINE",
"50 700 LINE",
"50 623 LINE",
"64 624 OFFCURVE",
"104 625 OFFCURVE",
"125 626 CURVE",
"123 609 OFFCURVE",
"121 572 OFFCURVE",
"121 536 CURVE SMOOTH",
"121 153 LINE SMOOTH",
"121 72 OFFCURVE",
"95 68 OFFCURVE",
"50 66 CURVE",
"50 0 LINE"
);
}
);
width = 712;
}
);
leftKerningGroup = I;
rightKerningGroup = K;
unicode = 004B;
},
{
color = 4;
glyphname = L;
layers = (
{
anchors = (
{
name = bottom;
position = "{319, 0}";
},
{
name = top;
position = "{181, 700}";
}
);
layerId = UUID0;
paths = (
{
closed = 1;
nodes = (
"551 0 LINE",
"557 207 LINE",
"523 207 LINE",
"523 89 OFFCURVE",
"479 41 OFFCURVE",
"395 40 CURVE SMOOTH",
"208 37 LINE",
"210 54 OFFCURVE",
"211 79 OFFCURVE",
"211 115 CURVE SMOOTH",
"211 544 LINE SMOOTH",
"211 615 OFFCURVE",
"205 664 OFFCURVE",
"280 667 CURVE",
"280 700 LINE",
"55 700 LINE",
"55 656 LINE",
"79 657 OFFCURVE",
"103 659 OFFCURVE",
"127 660 CURVE",
"125 640 OFFCURVE",
"124 615 OFFCURVE",
"124 588 CURVE SMOOTH",
"124 156 LINE SMOOTH",
"124 85 OFFCURVE",
"130 36 OFFCURVE",
"55 33 CURVE",
"55 0 LINE"
);
}
);
width = 578;
},
{
anchors = (
{
name = bottom;
position = "{348, 0}";
},
{
name = top;
position = "{205, 700}";
}
);
layerId = "4C2B4986-1645-43C1-94B7-5E4C57EFF0D9";
paths = (
{
closed = 1;
nodes = (
"583 0 LINE",
"589 240 LINE",
"522 240 LINE",
"522 131 OFFCURVE",
"475 77 OFFCURVE",
"396 76 CURVE SMOOTH",
"262 76 LINE",
"264 93 OFFCURVE",
"266 128 OFFCURVE",
"266 164 CURVE SMOOTH",
"266 547 LINE SMOOTH",
"266 628 OFFCURVE",
"292 632 OFFCURVE",
"337 634 CURVE",
"337 700 LINE",
"50 700 LINE",
"50 623 LINE",
"64 624 OFFCURVE",
"104 625 OFFCURVE",
"125 626 CURVE",
"123 609 OFFCURVE",
"121 572 OFFCURVE",
"121 536 CURVE SMOOTH",
"121 153 LINE SMOOTH",
"121 72 OFFCURVE",
"95 68 OFFCURVE",
"50 66 CURVE",
"50 0 LINE"
);
}
);
width = 604;
}
);
leftKerningGroup = I;
rightKerningGroup = L;
unicode = 004C;
},
{
color = 4;
glyphname = Lcaron;
layers = (
{
layerId = UUID0;
paths = (
{
closed = 1;
nodes = (
"551 0 LINE",
"557 207 LINE",
"523 207 LINE",
"523 89 OFFCURVE",
"479 41 OFFCURVE",
"395 40 CURVE SMOOTH",
"208 37 LINE",
"210 54 OFFCURVE",
"211 79 OFFCURVE",
"211 115 CURVE SMOOTH",
"211 544 LINE SMOOTH",
"211 615 OFFCURVE",
"205 664 OFFCURVE",
"280 667 CURVE",
"280 700 LINE",
"55 700 LINE",
"55 656 LINE",
"79 657 OFFCURVE",
"103 659 OFFCURVE",
"127 660 CURVE",
"125 640 OFFCURVE",
"124 615 OFFCURVE",
"124 588 CURVE SMOOTH",
"124 156 LINE SMOOTH",
"124 85 OFFCURVE",
"130 36 OFFCURVE",
"55 33 CURVE",
"55 0 LINE"
);
},
{
closed = 1;
nodes = (
"457 530 OFFCURVE",
"492 583 OFFCURVE",
"497 636 CURVE SMOOTH",
"500 660 OFFCURVE",
"497 673 OFFCURVE",
"486 696 CURVE",
"417 709 LINE",
"432 650 OFFCURVE",
"433 592 OFFCURVE",
"389 508 CURVE",
"415 488 LINE"
);
}
);
width = 578;
},
{
layerId = "4C2B4986-1645-43C1-94B7-5E4C57EFF0D9";
paths = (
{
closed = 1;
nodes = (
"583 0 LINE",
"589 240 LINE",
"522 240 LINE",
"522 131 OFFCURVE",
"475 77 OFFCURVE",
"396 76 CURVE SMOOTH",
"262 76 LINE",
"264 93 OFFCURVE",
"266 128 OFFCURVE",
"266 164 CURVE SMOOTH",
"266 547 LINE SMOOTH",
"266 628 OFFCURVE",
"292 632 OFFCURVE",
"337 634 CURVE",
"337 700 LINE",
"50 700 LINE",
"50 623 LINE",
"64 624 OFFCURVE",
"104 625 OFFCURVE",
"125 626 CURVE",
"123 609 OFFCURVE",
"121 572 OFFCURVE",
"121 536 CURVE SMOOTH",
"121 153 LINE SMOOTH",
"121 72 OFFCURVE",
"95 68 OFFCURVE",
"50 66 CURVE",
"50 0 LINE"
);
},
{
closed = 1;
nodes = (
"496 519 OFFCURVE",
"536 577 OFFCURVE",
"541 633 CURVE SMOOTH",
"544 659 OFFCURVE",
"541 674 OFFCURVE",
"528 700 CURVE",
"439 717 LINE",
"456 653 OFFCURVE",
"461 594 OFFCURVE",
"412 504 CURVE",
"451 475 LINE"
);
}
);
width = 604;
}
);
leftKerningGroup = I;
rightKerningGroup = L;
unicode = 013D;
userData = {
public.markColor = "0.75,0.75,0.75,1";
};
},
{
color = 4;
glyphname = Lslash;
layers = (
{
background = {
paths = (
{
closed = 1;
nodes = (
"50 700 LINE",
"50 623 LINE",
"64 623 OFFCURVE",
"104 624 OFFCURVE",
"125 625 CURVE",
"123 608 OFFCURVE",
"122 572 OFFCURVE",
"122 536 CURVE SMOOTH",
"122 349 LINE",
"45 292 LINE",
"45 177 LINE",
"122 234 LINE",
"122 152 LINE SMOOTH",
"122 72 OFFCURVE",
"95 68 OFFCURVE",
"50 65 CURVE",
"50 0 LINE",
"583 0 LINE",
"589 239 LINE",
"523 239 LINE",
"523 131 OFFCURVE",
"475 76 OFFCURVE",
"396 76 CURVE SMOOTH",
"262 75 LINE",
"265 92 OFFCURVE",
"266 127 OFFCURVE",
"266 164 CURVE SMOOTH",
"266 343 LINE",
"436 469 LINE",
"436 582 LINE",
"266 456 LINE",
"266 547 LINE SMOOTH",
"266 627 OFFCURVE",
"292 631 OFFCURVE",
"337 634 CURVE",
"337 700 LINE"
);
}
);
};
components = (
{
name = L;
}
);
layerId = UUID0;
paths = (
{
closed = 1;
nodes = (
"390 481 LINE",
"390 536 LINE",
"48 284 LINE",
"48 228 LINE"
);
}
);
width = 578;
},
{
background = {
components = (
{
name = L;
}
);
paths = (
{
closed = 1;
nodes = (
"48 284 LINE",
"48 228 LINE",
"390 481 LINE",
"390 536 LINE"
);
}
);
};
components = (
{
name = L;
}
);
layerId = "4C2B4986-1645-43C1-94B7-5E4C57EFF0D9";
paths = (
{
closed = 1;
nodes = (
"436 469 LINE",
"436 582 LINE",
"45 292 LINE",
"45 177 LINE"
);
}
);
width = 605;
}
);
leftKerningGroup = I;
rightKerningGroup = L;
unicode = 0141;
},
{
color = 4;
glyphname = M;
layers = (
{
anchors = (
{
name = bottom;
position = "{459, 0}";
},
{
name = top;
position = "{459, 700}";
}
);
layerId = UUID0;
paths = (
{
closed = 1;
nodes = (
"462 -10 LINE",
"687 546 LINE SMOOTH",
"691 558 OFFCURVE",
"696 568 OFFCURVE",
"700 578 CURVE",
"702 546 OFFCURVE",
"704 514 OFFCURVE",
"706 482 CURVE",
"726 152 LINE SMOOTH",
"730 76 OFFCURVE",
"722 35 OFFCURVE",
"660 33 CURVE",
"660 0 LINE",
"884 0 LINE",
"884 44 LINE",
"860 43 OFFCURVE",
"835 42 OFFCURVE",
"811 41 CURVE",
"811 58 OFFCURVE",
"811 80 OFFCURVE",
"809 103 CURVE SMOOTH",
"783 558 LINE SMOOTH",
"778 640 OFFCURVE",
"802 668 OFFCURVE",
"852 667 CURVE",
"852 700 LINE",
"704 700 LINE",
"642 543 OFFCURVE",
"577 397 OFFCURVE",
"519 251 CURVE SMOOTH",
"505 215 OFFCURVE",
"483 158 OFFCURVE",
"468 122 CURVE",
"466 122 LINE",
"439 184 OFFCURVE",
"413 243 OFFCURVE",
"388 303 CURVE",
"216 700 LINE",
"63 700 LINE",
"63 657 LINE",
"87 658 OFFCURVE",
"111 659 OFFCURVE",
"135 660 CURVE",
"134 634 OFFCURVE",
"133 607 OFFCURVE",
"132 581 CURVE",
"113 125 LINE SMOOTH",
"111 76 OFFCURVE",
"106 34 OFFCURVE",
"44 33 CURVE",
"44 0 LINE",
"235 0 LINE",
"235 44 LINE",
"210 43 OFFCURVE",
"185 41 OFFCURVE",
"160 40 CURVE",
"163 65 OFFCURVE",
"163 95 OFFCURVE",
"164 125 CURVE SMOOTH",
"166 260 OFFCURVE",
"172 447 OFFCURVE",
"175 543 CURVE SMOOTH",
"175 558 OFFCURVE",
"176 572 OFFCURVE",
"176 587 CURVE",
"201 520 OFFCURVE",
"227 455 OFFCURVE",
"255 391 CURVE SMOOTH",
"312 255 OFFCURVE",
"373 123 OFFCURVE",
"432 -10 CURVE"
);
}
);
width = 918;
},
{
anchors = (
{
name = bottom;
position = "{486, 0}";
},
{
name = top;
position = "{486, 700}";
}
);
layerId = "4C2B4986-1645-43C1-94B7-5E4C57EFF0D9";
paths = (
{
closed = 1;
nodes = (
"501 -10 LINE",
"696 511 LINE",
"699 520 OFFCURVE",
"703 529 OFFCURVE",
"707 538 CURVE",
"709 477 OFFCURVE",
"714 389 OFFCURVE",
"715 365 CURVE SMOOTH",
"723 153 LINE SMOOTH",
"726 72 OFFCURVE",
"697 68 OFFCURVE",
"652 66 CURVE",
"652 0 LINE",
"930 0 LINE",
"930 77 LINE",
"916 77 OFFCURVE",
"876 76 OFFCURVE",
"854 74 CURVE",
"857 91 OFFCURVE",
"860 128 OFFCURVE",
"858 164 CURVE SMOOTH",
"843 547 LINE SMOOTH",
"840 628 OFFCURVE",
"870 632 OFFCURVE",
"915 634 CURVE",
"915 700 LINE",
"684 700 LINE",
"632 562 OFFCURVE",
"581 425 OFFCURVE",
"529 287 CURVE SMOOTH",
"513 245 OFFCURVE",
"499 201 OFFCURVE",
"482 155 CURVE",
"481 155 LINE",
"471 189 OFFCURVE",
"443 267 OFFCURVE",
"425 313 CURVE SMOOTH",
"274 700 LINE",
"53 700 LINE",
"53 623 LINE",
"67 624 OFFCURVE",
"107 625 OFFCURVE",
"128 626 CURVE",
"126 609 OFFCURVE",
"125 572 OFFCURVE",
"124 536 CURVE SMOOTH",
"118 153 LINE SMOOTH",
"117 72 OFFCURVE",
"92 68 OFFCURVE",
"47 66 CURVE",
"47 0 LINE",
"275 0 LINE",
"275 77 LINE",
"261 77 OFFCURVE",
"221 76 OFFCURVE",
"199 74 CURVE",
"202 91 OFFCURVE",
"204 128 OFFCURVE",
"204 164 CURVE SMOOTH",
"204 224 OFFCURVE",
"205 285 OFFCURVE",
"205 345 CURVE SMOOTH",
"206 405 OFFCURVE",
"204 470 OFFCURVE",
"202 545 CURVE",
"224 449 OFFCURVE",
"257 356 OFFCURVE",
"273 319 CURVE SMOOTH",
"318 209 OFFCURVE",
"363 100 OFFCURVE",
"408 -10 CURVE"
);
}
);
width = 972;
}
);
unicode = 004D;
},
{
color = 4;
glyphname = N;
layers = (
{
anchors = (
{
name = bottom;
position = "{381, 0}";
},
{
name = top;
position = "{395, 700}";
}
);
layerId = UUID0;
paths = (
{
closed = 1;
nodes = (
"650 -16 LINE",
"652 544 LINE SMOOTH",
"652 615 OFFCURVE",
"644 664 OFFCURVE",
"719 667 CURVE",
"719 700 LINE",
"535 700 LINE",
"535 656 LINE",
"559 657 OFFCURVE",
"583 659 OFFCURVE",
"607 660 CURVE",
"605 640 OFFCURVE",
"604 615 OFFCURVE",
"604 588 CURVE SMOOTH",
"603 130 LINE",
"602 130 LINE",
"585 153 OFFCURVE",
"568 175 OFFCURVE",
"551 198 CURVE",
"176 700 LINE",
"57 700 LINE",
"57 656 LINE",
"79 657 OFFCURVE",
"102 659 OFFCURVE",
"124 660 CURVE",
"124 638 OFFCURVE",
"124 615 OFFCURVE",
"124 593 CURVE",
"123 112 LINE SMOOTH",
"123 81 OFFCURVE",
"118 33 OFFCURVE",
"57 33 CURVE",
"57 0 LINE",
"240 0 LINE",
"240 44 LINE",
"216 43 OFFCURVE",
"192 41 OFFCURVE",
"168 40 CURVE",
"170 72 OFFCURVE",
"170 105 OFFCURVE",
"170 139 CURVE SMOOTH",
"167 567 LINE",
"168 567 LINE",
"180 551 OFFCURVE",
"191 536 OFFCURVE",
"203 520 CURVE",
"602 -16 LINE"
);
}
);
width = 762;
},
{
anchors = (
{
name = bottom;
position = "{406, 0}";
},
{
name = top;
position = "{387, 700}";
}
);
layerId = "4C2B4986-1645-43C1-94B7-5E4C57EFF0D9";
paths = (
{
closed = 1;
nodes = (
"667 -10 LINE",
"667 547 LINE SMOOTH",
"667 628 OFFCURVE",
"693 632 OFFCURVE",
"738 634 CURVE",
"738 700 LINE",
"510 700 LINE",
"510 623 LINE",
"524 624 OFFCURVE",
"564 625 OFFCURVE",
"585 626 CURVE",
"583 609 OFFCURVE",
"582 572 OFFCURVE",
"582 536 CURVE SMOOTH",
"582 219 LINE",
"581 219 LINE",
"565 242 OFFCURVE",
"544 271 OFFCURVE",
"511 314 CURVE SMOOTH",
"205 700 LINE",
"48 700 LINE",
"48 623 LINE",
"63 624 OFFCURVE",
"102 625 OFFCURVE",
"124 626 CURVE",
"121 609 OFFCURVE",
"120 572 OFFCURVE",
"120 536 CURVE SMOOTH",
"122 153 LINE SMOOTH",
"122 72 OFFCURVE",
"96 68 OFFCURVE",
"51 66 CURVE",
"51 0 LINE",
"279 0 LINE",
"279 77 LINE",
"265 77 OFFCURVE",
"225 76 OFFCURVE",
"204 74 CURVE",
"206 91 OFFCURVE",
"208 128 OFFCURVE",
"208 164 CURVE SMOOTH",
"206 474 LINE",
"207 474 LINE",
"226 447 OFFCURVE",
"245 421 OFFCURVE",
"262 399 CURVE SMOOTH",
"582 -10 LINE"
);
}
);
width = 773;
}
);
leftKerningGroup = I;
rightKerningGroup = N;
unicode = 004E;
},
{
color = 7;
glyphname = Eng;
layers = (
{
background = {
components = (
{
name = j;
transform = "{1, 0, 0, 1, 550, 0}";
}
);
};
components = (
{
name = N;
}
);
guideLines = (
{
angle = 90;
position = "{603, 305}";
},
{
angle = 90;
position = "{651, 305}";
}
);
layerId = UUID0;
paths = (
{
closed = 1;
nodes = (
"599 -271 OFFCURVE",
"650 -208 OFFCURVE",
"650 -83 CURVE SMOOTH",
"650 97 LINE",
"603 97 LINE",
"602 -86 LINE SMOOTH",
"602 -142 OFFCURVE",
"595 -186 OFFCURVE",
"573 -208 CURVE SMOOTH",
"564 -218 OFFCURVE",
"554 -225 OFFCURVE",
"540 -225 CURVE SMOOTH",
"533 -225 OFFCURVE",
"526 -223 OFFCURVE",
"517 -219 CURVE",
"518 -216 OFFCURVE",
"518 -213 OFFCURVE",
"518 -210 CURVE SMOOTH",
"518 -194 OFFCURVE",
"507 -167 OFFCURVE",
"474 -168 CURVE SMOOTH",
"447 -169 OFFCURVE",
"431 -191 OFFCURVE",
"431 -215 CURVE SMOOTH",
"431 -244 OFFCURVE",
"465 -271 OFFCURVE",
"518 -271 CURVE SMOOTH"
);
}
);
width = 762;
},
{
background = {
paths = (
{
closed = 1;
nodes = (
"526 109 LINE",
"528 -126 LINE SMOOTH",
"528 -155 OFFCURVE",
"523 -201 OFFCURVE",
"486 -201 CURVE SMOOTH",
"481 -201 OFFCURVE",
"472 -199 OFFCURVE",
"469 -197 CURVE",
"478 -153 OFFCURVE",
"452 -120 OFFCURVE",
"410 -121 CURVE SMOOTH",
"370 -122 OFFCURVE",
"347 -154 OFFCURVE",
"347 -189 CURVE SMOOTH",
"347 -230 OFFCURVE",
"381 -271 OFFCURVE",
"456 -271 CURVE SMOOTH",
"576 -271 OFFCURVE",
"667 -183 OFFCURVE",
"667 2 CURVE SMOOTH",
"667 109 LINE"
);
}
);
};
components = (
{
name = N;
}
);
guideLines = (
{
angle = 90;
position = "{582, 512}";
}
);
layerId = "4C2B4986-1645-43C1-94B7-5E4C57EFF0D9";
paths = (
{
closed = 1;
nodes = (
"600 -271 OFFCURVE",
"667 -183 OFFCURVE",
"667 2 CURVE SMOOTH",
"667 109 LINE",
"582 109 LINE",
"582 -126 LINE SMOOTH",
"582 -149 OFFCURVE",
"579 -172 OFFCURVE",
"569 -186 CURVE SMOOTH",
"563 -195 OFFCURVE",
"554 -201 OFFCURVE",
"542 -201 CURVE SMOOTH",
"534 -201 OFFCURVE",
"528 -199 OFFCURVE",
"525 -197 CURVE",
"526 -191 OFFCURVE",
"527 -185 OFFCURVE",
"527 -180 CURVE SMOOTH",
"527 -145 OFFCURVE",
"502 -120 OFFCURVE",
"466 -121 CURVE SMOOTH",
"426 -122 OFFCURVE",
"403 -154 OFFCURVE",
"403 -189 CURVE SMOOTH",
"403 -230 OFFCURVE",
"437 -271 OFFCURVE",
"512 -271 CURVE SMOOTH"
);
}
);
width = 773;
}
);
leftMetricsKey = N;
rightMetricsKey = N;
unicode = 014A;
},
{
color = 4;
glyphname = O;
layers = (
{
anchors = (
{
name = bottom;
position = "{397, 0}";
},
{
name = center;
position = "{397, 350}";
},
{
name = ogonek;
position = "{715, 10}";
},
{
name = top;
position = "{389, 700}";
},
{
name = topleft;
position = "{20, 700}";
},
{
name = topright;
position = "{574, 700}";
}
);
layerId = UUID0;
paths = (
{
closed = 1;
nodes = (
"638 -16 OFFCURVE",
"750 184 OFFCURVE",
"750 350 CURVE SMOOTH",
"750 517 OFFCURVE",
"638 716 OFFCURVE",
"394 716 CURVE SMOOTH",
"158 716 OFFCURVE",
"46 518 OFFCURVE",
"46 350 CURVE SMOOTH",
"46 176 OFFCURVE",
"148 -16 OFFCURVE",
"402 -16 CURVE SMOOTH"
);
},
{
closed = 1;
nodes = (
"225 25 OFFCURVE",
"144 220 OFFCURVE",
"144 368 CURVE SMOOTH",
"144 516 OFFCURVE",
"226 676 OFFCURVE",
"391 676 CURVE SMOOTH",
"557 676 OFFCURVE",
"650 495 OFFCURVE",
"650 331 CURVE SMOOTH",
"650 184 OFFCURVE",
"568 25 OFFCURVE",
"404 25 CURVE SMOOTH"
);
}
);
width = 794;
},
{
anchors = (
{
name = bottom;
position = "{385, 0}";
},
{
name = center;
position = "{385, 350}";
},
{
name = ogonek;
position = "{692, 10}";
},
{
name = top;
position = "{384, 700}";
},
{
name = topleft;
position = "{20, 700}";
},
{
name = topright;
position = "{581, 700}";
}
);
layerId = "4C2B4986-1645-43C1-94B7-5E4C57EFF0D9";
paths = (
{
closed = 1;
nodes = (
"620 -16 OFFCURVE",
"734 185 OFFCURVE",
"734 350 CURVE SMOOTH",
"734 517 OFFCURVE",
"629 716 OFFCURVE",
"386 716 CURVE SMOOTH",
"149 716 OFFCURVE",
"35 518 OFFCURVE",
"35 350 CURVE SMOOTH",
"35 176 OFFCURVE",
"130 -16 OFFCURVE",
"383 -16 CURVE SMOOTH"
);
},
{
closed = 1;
nodes = (
"242 56 OFFCURVE",
"192 237 OFFCURVE",
"192 362 CURVE SMOOTH",
"192 485 OFFCURVE",
"236 640 OFFCURVE",
"373 643 CURVE SMOOTH",
"512 646 OFFCURVE",
"576 516 OFFCURVE",
"576 333 CURVE SMOOTH",
"576 210 OFFCURVE",
"532 58 OFFCURVE",
"394 57 CURVE SMOOTH"
);
}
);
width = 769;
}
);
leftKerningGroup = O;
rightKerningGroup = O;
unicode = 004F;
},
{
color = 4;
glyphname = Oslash;
layers = (
{
anchors = (
{
name = bottom;
position = "{397, 0}";
},
{
name = top;
position = "{397, 700}";
}
);
components = (
{
name = O;
transform = "{1, 0, 0, 1, -1, 0}";
}
);
layerId = UUID0;
paths = (
{
closed = 1;
nodes = (
"145 -50 LINE",
"193 -80 LINE",
"665 721 LINE",
"611 755 LINE"
);
}
);
width = 794;
},
{
anchors = (
{
name = bottom;
position = "{384, 0}";
},
{
name = top;
position = "{384, 700}";
}
);
background = {
anchors = (
{
name = bottom;
position = "{385, 0}";
},
{
name = center;
position = "{385, 350}";
},
{
name = ogonek;
position = "{692, 10}";
},
{
name = top;
position = "{384, 700}";
},
{
name = topleft;
position = "{20, 700}";
},
{
name = topright;
position = "{581, 700}";
}
);
paths = (
{
closed = 1;
nodes = (
"109 -49 LINE",
"184 -99 LINE",
"675 737 LINE",
"595 786 LINE"
);
},
{
closed = 1;
nodes = (
"620 -16 OFFCURVE",
"734 185 OFFCURVE",
"734 350 CURVE SMOOTH",
"734 517 OFFCURVE",
"629 716 OFFCURVE",
"386 716 CURVE SMOOTH",
"149 716 OFFCURVE",
"35 518 OFFCURVE",
"35 350 CURVE SMOOTH",
"35 176 OFFCURVE",
"130 -16 OFFCURVE",
"383 -16 CURVE SMOOTH"
);
},
{
closed = 1;
nodes = (
"242 56 OFFCURVE",
"192 237 OFFCURVE",
"192 362 CURVE SMOOTH",
"192 485 OFFCURVE",
"236 640 OFFCURVE",
"373 643 CURVE SMOOTH",
"512 646 OFFCURVE",
"576 516 OFFCURVE",
"576 333 CURVE SMOOTH",
"576 210 OFFCURVE",
"532 58 OFFCURVE",
"394 57 CURVE SMOOTH"
);
}
);
};
components = (
{
name = O;
}
);
layerId = "4C2B4986-1645-43C1-94B7-5E4C57EFF0D9";
paths = (
{
closed = 1;
nodes = (
"109 -49 LINE",
"184 -99 LINE",
"675 737 LINE",
"595 786 LINE"
);
}
);
width = 769;
}
);
leftKerningGroup = O;
rightKerningGroup = O;
unicode = 00D8;
},
{
color = 4;
glyphname = OE;
layers = (
{
layerId = UUID0;
paths = (
{
closed = 1;
nodes = (
"838 259 LINE",
"838 469 LINE",
"793 469 LINE",
"796 440 OFFCURVE",
"798 412 OFFCURVE",
"801 383 CURVE",
"611 383 LINE",
"611 544 LINE SMOOTH",
"611 625 OFFCURVE",
"612 661 OFFCURVE",
"687 663 CURVE SMOOTH",
"773 665 LINE SMOOTH",
"848 667 OFFCURVE",
"908 643 OFFCURVE",
"908 525 CURVE",
"941 525 LINE",
"936 700 LINE",
"524 700 LINE",
"484 709 OFFCURVE",
"435 716 OFFCURVE",
"397 716 CURVE SMOOTH",
"155 710 OFFCURVE",
"46 517 OFFCURVE",
"46 329 CURVE SMOOTH",
"46 130 OFFCURVE",
"174 -16 OFFCURVE",
"385 -16 CURVE SMOOTH",
"424 -16 OFFCURVE",
"471 -11 OFFCURVE",
"524 0 CURVE",
"971 0 LINE",
"977 195 LINE",
"943 195 LINE",
"943 76 OFFCURVE",
"887 34 OFFCURVE",
"800 37 CURVE SMOOTH",
"608 43 LINE",
"610 60 OFFCURVE",
"611 85 OFFCURVE",
"611 121 CURVE SMOOTH",
"611 343 LINE",
"686 347 LINE SMOOTH",
"771 350 OFFCURVE",
"805 347 OFFCURVE",
"805 259 CURVE"
);
},
{
closed = 1;
nodes = (
"524 48 LINE",
"484 37 OFFCURVE",
"451 32 OFFCURVE",
"414 32 CURVE SMOOTH",
"256 32 OFFCURVE",
"146 155 OFFCURVE",
"144 344 CURVE SMOOTH",
"142 550 OFFCURVE",
"258 674 OFFCURVE",
"400 674 CURVE SMOOTH",
"439 674 OFFCURVE",
"486 668 OFFCURVE",
"524 651 CURVE"
);
}
);
width = 1022;
},
{
layerId = "4C2B4986-1645-43C1-94B7-5E4C57EFF0D9";
paths = (
{
closed = 1;
nodes = (
"860 241 LINE",
"860 484 LINE",
"783 484 LINE",
"784 459 OFFCURVE",
"785 425 OFFCURVE",
"787 397 CURVE",
"669 397 LINE",
"669 547 LINE SMOOTH",
"669 625 OFFCURVE",
"694 633 OFFCURVE",
"736 634 CURVE SMOOTH",
"772 635 LINE SMOOTH",
"827 637 OFFCURVE",
"894 615 OFFCURVE",
"894 506 CURVE",
"960 506 LINE",
"954 700 LINE",
"525 700 LINE",
"483 711 OFFCURVE",
"433 716 OFFCURVE",
"396 716 CURVE SMOOTH",
"141 716 OFFCURVE",
"36 520 OFFCURVE",
"36 337 CURVE SMOOTH",
"36 139 OFFCURVE",
"172 -12 OFFCURVE",
"378 -16 CURVE SMOOTH",
"422 -17 OFFCURVE",
"477 -14 OFFCURVE",
"525 0 CURVE",
"981 0 LINE",
"987 220 LINE",
"921 220 LINE",
"921 112 OFFCURVE",
"859 76 OFFCURVE",
"800 76 CURVE SMOOTH",
"666 76 LINE",
"668 93 OFFCURVE",
"669 128 OFFCURVE",
"669 164 CURVE SMOOTH",
"669 328 LINE",
"696 329 LINE SMOOTH",
"750 330 OFFCURVE",
"794 325 OFFCURVE",
"794 241 CURVE"
);
},
{
closed = 1;
nodes = (
"525 82 LINE",
"489 67 OFFCURVE",
"449 62 OFFCURVE",
"403 65 CURVE SMOOTH",
"268 75 OFFCURVE",
"193 188 OFFCURVE",
"193 360 CURVE SMOOTH",
"193 504 OFFCURVE",
"255 644 OFFCURVE",
"395 644 CURVE SMOOTH",
"444 644 OFFCURVE",
"490 634 OFFCURVE",
"525 611 CURVE"
);
}
);
width = 1028;
}
);
leftKerningGroup = O;
rightKerningGroup = E;
unicode = 0152;
},
{
color = 4;
glyphname = P;
layers = (
{
layerId = UUID0;
paths = (
{
closed = 1;
nodes = (
"55 0 LINE",
"300 0 LINE",
"300 45 LINE",
"269 43 OFFCURVE",
"239 42 OFFCURVE",
"208 40 CURVE",
"210 57 OFFCURVE",
"211 83 OFFCURVE",
"211 119 CURVE SMOOTH",
"211 264 LINE",
"224 263 OFFCURVE",
"241 263 OFFCURVE",
"247 263 CURVE SMOOTH",
"521 263 OFFCURVE",
"585 404 OFFCURVE",
"580 508 CURVE SMOOTH",
"574 636 OFFCURVE",
"471 702 OFFCURVE",
"278 702 CURVE SMOOTH",
"200 702 OFFCURVE",
"125 701 OFFCURVE",
"55 700 CURVE",
"55 656 LINE",
"79 657 OFFCURVE",
"103 659 OFFCURVE",
"127 660 CURVE",
"125 640 OFFCURVE",
"124 615 OFFCURVE",
"124 588 CURVE SMOOTH",
"124 156 LINE SMOOTH",
"124 85 OFFCURVE",
"130 36 OFFCURVE",
"55 33 CURVE"
);
},
{
closed = 1;
nodes = (
"211 544 LINE SMOOTH",
"211 615 OFFCURVE",
"205 663 OFFCURVE",
"276 663 CURVE SMOOTH",
"398 663 OFFCURVE",
"483 615 OFFCURVE",
"483 489 CURVE SMOOTH",
"483 372 OFFCURVE",
"390 302 OFFCURVE",
"276 302 CURVE SMOOTH",
"251 302 OFFCURVE",
"236 302 OFFCURVE",
"211 305 CURVE"
);
}
);
width = 606;
},
{
layerId = "4C2B4986-1645-43C1-94B7-5E4C57EFF0D9";
paths = (
{
closed = 1;
nodes = (
"50 0 LINE",
"347 0 LINE",
"347 77 LINE",
"333 77 OFFCURVE",
"283 76 OFFCURVE",
"262 74 CURVE",
"264 91 OFFCURVE",
"266 128 OFFCURVE",
"266 165 CURVE SMOOTH",
"266 253 LINE",
"289 252 OFFCURVE",
"308 252 OFFCURVE",
"338 253 CURVE SMOOTH",
"527 259 OFFCURVE",
"619 368 OFFCURVE",
"622 475 CURVE SMOOTH",
"626 634 OFFCURVE",
"510 703 OFFCURVE",
"334 702 CURVE SMOOTH",
"239 701 OFFCURVE",
"145 701 OFFCURVE",
"50 700 CURVE",
"50 623 LINE",
"64 624 OFFCURVE",
"104 625 OFFCURVE",
"125 626 CURVE",
"123 609 OFFCURVE",
"121 572 OFFCURVE",
"121 536 CURVE SMOOTH",
"121 153 LINE SMOOTH",
"121 72 OFFCURVE",
"95 68 OFFCURVE",
"50 66 CURVE"
);
},
{
closed = 1;
nodes = (
"266 553 LINE SMOOTH",
"266 623 OFFCURVE",
"291 632 OFFCURVE",
"333 632 CURVE SMOOTH",
"383 632 OFFCURVE",
"467 618 OFFCURVE",
"467 484 CURVE SMOOTH",
"467 382 OFFCURVE",
"421 325 OFFCURVE",
"311 325 CURVE SMOOTH",
"295 325 OFFCURVE",
"280 326 OFFCURVE",
"266 328 CURVE"
);
}
);
width = 639;
}
);
leftKerningGroup = I;
unicode = 0050;
},
{
color = 4;
glyphname = Thorn;
layers = (
{
layerId = UUID0;
paths = (
{
closed = 1;
nodes = (
"280 0 LINE",
"280 44 LINE",
"256 43 OFFCURVE",
"232 41 OFFCURVE",
"208 40 CURVE",
"210 59 OFFCURVE",
"211 90 OFFCURVE",
"211 161 CURVE",
"220 161 OFFCURVE",
"228 161 OFFCURVE",
"237 161 CURVE SMOOTH",
"511 161 OFFCURVE",
"577 288 OFFCURVE",
"570 392 CURVE SMOOTH",
"562 520 OFFCURVE",
"458 579 OFFCURVE",
"265 579 CURVE SMOOTH",
"211 578 LINE",
"211 630 OFFCURVE",
"218 665 OFFCURVE",
"280 667 CURVE",
"280 700 LINE",
"55 700 LINE",
"55 656 LINE",
"79 657 OFFCURVE",
"103 659 OFFCURVE",
"127 660 CURVE",
"125 640 OFFCURVE",
"124 615 OFFCURVE",
"124 588 CURVE SMOOTH",
"124 156 LINE SMOOTH",
"124 85 OFFCURVE",
"130 36 OFFCURVE",
"55 33 CURVE",
"55 0 LINE"
);
},
{
closed = 1;
nodes = (
"252 199 OFFCURVE",
"235 199 OFFCURVE",
"211 203 CURVE",
"211 539 LINE",
"230 540 OFFCURVE",
"247 541 OFFCURVE",
"271 541 CURVE SMOOTH",
"404 541 OFFCURVE",
"473 483 OFFCURVE",
"473 377 CURVE SMOOTH",
"473 278 OFFCURVE",
"410 203 OFFCURVE",
"276 200 CURVE SMOOTH"
);
}
);
width = 596;
},
{
layerId = "4C2B4986-1645-43C1-94B7-5E4C57EFF0D9";
paths = (
{
closed = 1;
nodes = (
"337 0 LINE",
"337 77 LINE",
"323 77 OFFCURVE",
"283 76 OFFCURVE",
"262 74 CURVE",
"264 89 OFFCURVE",
"265 119 OFFCURVE",
"266 151 CURVE",
"286 150 OFFCURVE",
"303 151 OFFCURVE",
"331 152 CURVE SMOOTH",
"520 157 OFFCURVE",
"614 252 OFFCURVE",
"617 359 CURVE SMOOTH",
"621 518 OFFCURVE",
"502 573 OFFCURVE",
"327 571 CURVE SMOOTH",
"267 570 LINE",
"271 628 OFFCURVE",
"297 632 OFFCURVE",
"337 634 CURVE",
"337 700 LINE",
"50 700 LINE",
"50 623 LINE",
"64 624 OFFCURVE",
"104 625 OFFCURVE",
"125 626 CURVE",
"123 609 OFFCURVE",
"121 572 OFFCURVE",
"121 536 CURVE SMOOTH",
"121 153 LINE SMOOTH",
"121 72 OFFCURVE",
"95 68 OFFCURVE",
"50 66 CURVE",
"50 0 LINE"
);
},
{
closed = 1;
nodes = (
"290 223 OFFCURVE",
"277 224 OFFCURVE",
"266 225 CURVE",
"266 500 LINE",
"282 500 OFFCURVE",
"301 500 OFFCURVE",
"325 500 CURVE SMOOTH",
"367 500 OFFCURVE",
"462 497 OFFCURVE",
"462 368 CURVE SMOOTH",
"462 271 OFFCURVE",
"413 223 OFFCURVE",
"303 223 CURVE SMOOTH"
);
}
);
width = 633;
}
);
leftKerningGroup = I;
unicode = 00DE;
},
{
color = 4;
glyphname = Q;
layers = (
{
layerId = UUID0;
paths = (
{
closed = 1;
nodes = (
"786 -218 LINE",
"786 -185 LINE",
"747 -185 OFFCURVE",
"719 -157 OFFCURVE",
"626 -71 CURVE SMOOTH",
"567 -16 OFFCURVE",
"533 -8 OFFCURVE",
"483 -7 CURVE",
"664 32 OFFCURVE",
"750 204 OFFCURVE",
"750 350 CURVE SMOOTH",
"750 517 OFFCURVE",
"638 716 OFFCURVE",
"394 716 CURVE SMOOTH",
"158 716 OFFCURVE",
"46 518 OFFCURVE",
"46 350 CURVE SMOOTH",
"46 178 OFFCURVE",
"146 -12 OFFCURVE",
"395 -16 CURVE SMOOTH",
"459 -16 OFFCURVE",
"495 -81 OFFCURVE",
"585 -162 CURVE SMOOTH",
"647 -218 OFFCURVE",
"682 -218 OFFCURVE",
"754 -218 CURVE SMOOTH"
);
},
{
closed = 1;
nodes = (
"225 25 OFFCURVE",
"144 220 OFFCURVE",
"144 368 CURVE SMOOTH",
"144 516 OFFCURVE",
"226 676 OFFCURVE",
"391 676 CURVE SMOOTH",
"557 676 OFFCURVE",
"650 495 OFFCURVE",
"650 331 CURVE SMOOTH",
"650 184 OFFCURVE",
"568 25 OFFCURVE",
"404 25 CURVE SMOOTH"
);
}
);
width = 796;
},
{
layerId = "4C2B4986-1645-43C1-94B7-5E4C57EFF0D9";
paths = (
{
closed = 1;
nodes = (
"794 -218 LINE",
"794 -151 LINE",
"750 -151 OFFCURVE",
"746 -137 OFFCURVE",
"653 -51 CURVE SMOOTH",
"601 -2 OFFCURVE",
"566 5 OFFCURVE",
"509 5 CURVE",
"659 63 OFFCURVE",
"734 217 OFFCURVE",
"734 350 CURVE SMOOTH",
"734 517 OFFCURVE",
"630 716 OFFCURVE",
"387 716 CURVE SMOOTH",
"150 716 OFFCURVE",
"36 518 OFFCURVE",
"36 350 CURVE SMOOTH",
"36 178 OFFCURVE",
"128 -16 OFFCURVE",
"374 -16 CURVE SMOOTH",
"457 -16 OFFCURVE",
"494 -89 OFFCURVE",
"579 -164 CURVE SMOOTH",
"635 -213 OFFCURVE",
"659 -218 OFFCURVE",
"751 -218 CURVE SMOOTH"
);
},
{
closed = 1;
nodes = (
"243 56 OFFCURVE",
"193 237 OFFCURVE",
"193 362 CURVE SMOOTH",
"193 485 OFFCURVE",
"236 640 OFFCURVE",
"374 643 CURVE SMOOTH",
"513 646 OFFCURVE",
"577 516 OFFCURVE",
"577 333 CURVE SMOOTH",
"577 210 OFFCURVE",
"532 58 OFFCURVE",
"394 57 CURVE SMOOTH"
);
}
);
width = 770;
}
);
leftKerningGroup = O;
rightKerningGroup = O;
unicode = 0051;
},
{
color = 4;
glyphname = R;
layers = (
{
anchors = (
{
name = bottom;
position = "{334, 0}";
},
{
name = top;
position = "{314, 700}";
}
);
layerId = UUID0;
paths = (
{
closed = 1;
nodes = (
"280 0 LINE",
"280 44 LINE",
"256 43 OFFCURVE",
"232 41 OFFCURVE",
"208 40 CURVE",
"210 57 OFFCURVE",
"211 83 OFFCURVE",
"211 119 CURVE SMOOTH",
"211 313 LINE",
"234 312 OFFCURVE",
"257 311 OFFCURVE",
"279 313 CURVE SMOOTH",
"307 287 OFFCURVE",
"328 246 OFFCURVE",
"346 218 CURVE SMOOTH",
"413 111 LINE SMOOTH",
"441 67 OFFCURVE",
"463 34 OFFCURVE",
"502 0 CURVE",
"628 0 LINE",
"628 33 LINE",
"565 33 OFFCURVE",
"540 74 OFFCURVE",
"506 128 CURVE SMOOTH",
"438 235 LINE SMOOTH",
"413 274 OFFCURVE",
"395 303 OFFCURVE",
"369 322 CURVE",
"521 353 OFFCURVE",
"557 444 OFFCURVE",
"556 522 CURVE SMOOTH",
"556 633 OFFCURVE",
"477 698 OFFCURVE",
"284 701 CURVE SMOOTH",
"207 703 OFFCURVE",
"130 701 OFFCURVE",
"55 700 CURVE",
"55 656 LINE",
"79 657 OFFCURVE",
"103 659 OFFCURVE",
"127 660 CURVE",
"125 640 OFFCURVE",
"124 615 OFFCURVE",
"124 588 CURVE SMOOTH",
"124 156 LINE SMOOTH",
"124 85 OFFCURVE",
"130 36 OFFCURVE",
"55 33 CURVE",
"55 0 LINE"
);
},
{
closed = 1;
nodes = (
"250 349 OFFCURVE",
"232 350 OFFCURVE",
"211 352 CURVE",
"211 544 LINE SMOOTH",
"211 615 OFFCURVE",
"205 663 OFFCURVE",
"280 663 CURVE SMOOTH",
"403 663 OFFCURVE",
"459 612 OFFCURVE",
"459 511 CURVE SMOOTH",
"459 396 OFFCURVE",
"382 354 OFFCURVE",
"273 350 CURVE SMOOTH"
);
}
);
width = 628;
},
{
anchors = (
{
name = bottom;
position = "{384, 0}";
},
{
name = top;
position = "{343, 700}";
}
);
layerId = "4C2B4986-1645-43C1-94B7-5E4C57EFF0D9";
paths = (
{
closed = 1;
nodes = (
"347 0 LINE",
"347 77 LINE",
"333 77 OFFCURVE",
"283 76 OFFCURVE",
"262 74 CURVE",
"264 91 OFFCURVE",
"266 128 OFFCURVE",
"266 165 CURVE SMOOTH",
"266 272 LINE",
"285 272 OFFCURVE",
"297 272 OFFCURVE",
"318 272 CURVE",
"331 258 OFFCURVE",
"343 241 OFFCURVE",
"360 214 CURVE SMOOTH",
"434 94 LINE SMOOTH",
"460 51 OFFCURVE",
"483 17 OFFCURVE",
"507 0 CURVE",
"672 0 LINE",
"672 66 LINE",
"627 68 OFFCURVE",
"604 92 OFFCURVE",
"560 160 CURVE SMOOTH",
"513 230 LINE SMOOTH",
"496 257 OFFCURVE",
"469 283 OFFCURVE",
"444 294 CURVE",
"561 327 OFFCURVE",
"617 402 OFFCURVE",
"620 487 CURVE SMOOTH",
"624 646 OFFCURVE",
"510 703 OFFCURVE",
"334 702 CURVE SMOOTH",
"239 701 OFFCURVE",
"145 701 OFFCURVE",
"50 700 CURVE",
"50 623 LINE",
"64 624 OFFCURVE",
"104 625 OFFCURVE",
"125 626 CURVE",
"123 609 OFFCURVE",
"121 572 OFFCURVE",
"121 536 CURVE SMOOTH",
"121 153 LINE SMOOTH",
"121 72 OFFCURVE",
"95 68 OFFCURVE",
"50 66 CURVE",
"50 0 LINE"
);
},
{
closed = 1;
nodes = (
"297 344 OFFCURVE",
"281 346 OFFCURVE",
"266 348 CURVE",
"266 553 LINE SMOOTH",
"266 623 OFFCURVE",
"291 632 OFFCURVE",
"333 632 CURVE SMOOTH",
"374 632 OFFCURVE",
"469 623 OFFCURVE",
"469 495 CURVE SMOOTH",
"469 393 OFFCURVE",
"425 344 OFFCURVE",
"314 344 CURVE SMOOTH"
);
}
);
width = 686;
}
);
leftKerningGroup = I;
rightKerningGroup = R;
unicode = 0052;
},
{
color = 4;
glyphname = S;
layers = (
{
anchors = (
{
name = bottom;
position = "{304, 0}";
},
{
name = top;
position = "{272, 700}";
}
);
layerId = UUID0;
paths = (
{
closed = 1;
nodes = (
"484 488 LINE",
"484 708 LINE",
"433 708 LINE",
"437 665 LINE",
"382 705 OFFCURVE",
"314 716 OFFCURVE",
"263 716 CURVE SMOOTH",
"101 716 OFFCURVE",
"60 608 OFFCURVE",
"60 540 CURVE SMOOTH",
"60 413 OFFCURVE",
"169 366 OFFCURVE",
"270 320 CURVE SMOOTH",
"356 280 OFFCURVE",
"437 241 OFFCURVE",
"437 151 CURVE SMOOTH",
"437 70 OFFCURVE",
"371 26 OFFCURVE",
"293 26 CURVE SMOOTH",
"187 26 OFFCURVE",
"104 87 OFFCURVE",
"97 205 CURVE",
"58 205 LINE",
"64 -8 LINE",
"116 -8 LINE",
"111 35 LINE",
"160 1 OFFCURVE",
"229 -16 OFFCURVE",
"289 -16 CURVE SMOOTH",
"438 -16 OFFCURVE",
"523 63 OFFCURVE",
"523 174 CURVE SMOOTH",
"523 302 OFFCURVE",
"412 351 OFFCURVE",
"310 397 CURVE SMOOTH",
"223 437 OFFCURVE",
"142 475 OFFCURVE",
"142 559 CURVE SMOOTH",
"142 622 OFFCURVE",
"187 676 OFFCURVE",
"270 676 CURVE SMOOTH",
"387 676 OFFCURVE",
"442 584 OFFCURVE",
"448 488 CURVE"
);
}
);
width = 567;
},
{
anchors = (
{
name = bottom;
position = "{313, 0}";
},
{
name = top;
position = "{299, 700}";
}
);
layerId = "4C2B4986-1645-43C1-94B7-5E4C57EFF0D9";
paths = (
{
closed = 1;
nodes = (
"520 476 LINE",
"520 709 LINE",
"442 709 LINE",
"446 668 LINE",
"401 700 OFFCURVE",
"330 716 OFFCURVE",
"277 716 CURVE SMOOTH",
"100 716 OFFCURVE",
"43 608 OFFCURVE",
"43 525 CURVE SMOOTH",
"43 394 OFFCURVE",
"141 330 OFFCURVE",
"270 278 CURVE SMOOTH",
"345 248 OFFCURVE",
"430 220 OFFCURVE",
"430 150 CURVE SMOOTH",
"430 99 OFFCURVE",
"381 56 OFFCURVE",
"310 56 CURVE SMOOTH",
"216 56 OFFCURVE",
"143 113 OFFCURVE",
"125 225 CURVE",
"59 225 LINE",
"59 -9 LINE",
"136 -9 LINE",
"133 33 LINE",
"187 1 OFFCURVE",
"254 -16 OFFCURVE",
"307 -16 CURVE SMOOTH",
"461 -16 OFFCURVE",
"563 67 OFFCURVE",
"563 186 CURVE SMOOTH",
"563 316 OFFCURVE",
"436 378 OFFCURVE",
"335 418 CURVE SMOOTH",
"225 463 OFFCURVE",
"173 496 OFFCURVE",
"173 558 CURVE SMOOTH",
"173 608 OFFCURVE",
"224 644 OFFCURVE",
"281 644 CURVE SMOOTH",
"374 645 OFFCURVE",
"436 587 OFFCURVE",
"454 476 CURVE"
);
}
);
width = 598;
}
);
leftKerningGroup = S;
rightKerningGroup = S;
unicode = 0053;
},
{
color = 7;
glyphname = Germandbls;
layers = (
{
background = {
paths = (
{
closed = 1;
nodes = (
"359 373 LINE",
"552 665 LINE",
"553 700 LINE",
"274 700 LINE",
"274 659 LINE",
"487 663 LINE",
"448 639 OFFCURVE",
"422 619 OFFCURVE",
"399 583 CURVE SMOOTH",
"289 409 LINE"
);
},
{
closed = 1;
nodes = (
"289 409 LINE",
"289 367 LINE",
"314 368 LINE",
"430 362 OFFCURVE",
"485 310 OFFCURVE",
"485 202 CURVE SMOOTH",
"485 89 OFFCURVE",
"429 32 OFFCURVE",
"365 32 CURVE SMOOTH",
"321 32 OFFCURVE",
"278 45 OFFCURVE",
"251 67 CURVE",
"225 46 LINE",
"267 4 OFFCURVE",
"323 -16 OFFCURVE",
"387 -16 CURVE SMOOTH",
"487 -16 OFFCURVE",
"584 57 OFFCURVE",
"584 201 CURVE SMOOTH",
"584 318 OFFCURVE",
"512 409 OFFCURVE",
"371 409 CURVE SMOOTH"
);
}
);
};
layerId = UUID0;
paths = (
{
closed = 1;
nodes = (
"521 -16 OFFCURVE",
"628 57 OFFCURVE",
"628 200 CURVE SMOOTH",
"628 315 OFFCURVE",
"553 404 OFFCURVE",
"402 409 CURVE",
"596 665 LINE",
"597 700 LINE",
"338 700 LINE SMOOTH",
"163 700 OFFCURVE",
"107 579 OFFCURVE",
"107 450 CURVE SMOOTH",
"108 152 LINE SMOOTH",
"108 80 OFFCURVE",
"110 30 OFFCURVE",
"49 30 CURVE",
"49 0 LINE",
"190 0 LINE",
"194 63 OFFCURVE",
"194 79 OFFCURVE",
"194 106 CURVE",
"193 468 LINE SMOOTH",
"193 587 OFFCURVE",
"238 658 OFFCURVE",
"338 660 CURVE SMOOTH",
"531 663 LINE",
"492 639 OFFCURVE",
"468 617 OFFCURVE",
"443 583 CURVE SMOOTH",
"313 409 LINE",
"313 367 LINE",
"338 368 LINE",
"468 362 OFFCURVE",
"529 310 OFFCURVE",
"529 202 CURVE SMOOTH",
"529 89 OFFCURVE",
"464 32 OFFCURVE",
"383 32 CURVE SMOOTH",
"345 32 OFFCURVE",
"302 45 OFFCURVE",
"275 67 CURVE",
"249 46 LINE",
"291 4 OFFCURVE",
"347 -16 OFFCURVE",
"407 -16 CURVE SMOOTH"
);
}
);
width = 681;
},
{
guideLines = (
{
angle = 90;
position = "{375, 721}";
}
);
layerId = "4C2B4986-1645-43C1-94B7-5E4C57EFF0D9";
paths = (
{
closed = 1;
nodes = (
"574 -19 OFFCURVE",
"701 66 OFFCURVE",
"701 213 CURVE SMOOTH",
"701 312 OFFCURVE",
"635 423 OFFCURVE",
"504 418 CURVE",
"660 625 LINE",
"660 700 LINE",
"385 700 LINE SMOOTH",
"235 700 OFFCURVE",
"102 635 OFFCURVE",
"102 430 CURVE SMOOTH",
"102 154 LINE SMOOTH",
"102 101 OFFCURVE",
"98 65 OFFCURVE",
"42 65 CURVE",
"42 0 LINE",
"240 0 LINE",
"243 30 OFFCURVE",
"244 144 OFFCURVE",
"244 163 CURVE SMOOTH",
"244 437 LINE SMOOTH",
"244 576 OFFCURVE",
"301 636 OFFCURVE",
"385 634 CURVE SMOOTH",
"519 630 LINE",
"491 599 OFFCURVE",
"472 570 OFFCURVE",
"447 532 CURVE",
"347 393 LINE",
"347 358 LINE",
"414 358 LINE SMOOTH",
"507 358 OFFCURVE",
"553 303 OFFCURVE",
"553 218 CURVE SMOOTH",
"553 105 OFFCURVE",
"495 65 OFFCURVE",
"437 65 CURVE SMOOTH",
"398 65 OFFCURVE",
"362 75 OFFCURVE",
"330 106 CURVE",
"281 64 LINE",
"331 8 OFFCURVE",
"380 -16 OFFCURVE",
"449 -16 CURVE SMOOTH"
);
}
);
width = 731;
}
);
unicode = 1E9E;
},
{
color = 4;
glyphname = T;
layers = (
{
anchors = (
{
name = bottom;
position = "{321, 0}";
},
{
name = center;
position = "{320, 350}";
},
{
name = top;
position = "{320, 700}";
}
);
layerId = UUID0;
paths = (
{
closed = 1;
nodes = (
"617 489 LINE",
"611 700 LINE",
"28 700 LINE",
"22 489 LINE",
"59 489 LINE",
"59 607 OFFCURVE",
"90 662 OFFCURVE",
"174 662 CURVE SMOOTH",
"277 663 LINE",
"276 156 LINE SMOOTH",
"276 88 OFFCURVE",
"283 36 OFFCURVE",
"208 33 CURVE",
"208 0 LINE",
"443 0 LINE",
"443 44 LINE",
"415 43 OFFCURVE",
"388 41 OFFCURVE",
"360 40 CURVE",
"362 57 OFFCURVE",
"363 83 OFFCURVE",
"363 119 CURVE SMOOTH",
"364 664 LINE",
"449 664 LINE SMOOTH",
"552 665 OFFCURVE",
"577 607 OFFCURVE",
"579 489 CURVE"
);
}
);
width = 640;
},
{
anchors = (
{
name = bottom;
position = "{321, 0}";
},
{
name = center;
position = "{325, 350}";
},
{
name = top;
position = "{325, 700}";
}
);
layerId = "4C2B4986-1645-43C1-94B7-5E4C57EFF0D9";
paths = (
{
closed = 1;
nodes = (
"633 474 LINE",
"627 700 LINE",
"21 700 LINE",
"16 474 LINE",
"82 474 LINE",
"82 582 OFFCURVE",
"129 631 OFFCURVE",
"205 632 CURVE SMOOTH",
"251 632 LINE",
"251 153 LINE SMOOTH",
"251 72 OFFCURVE",
"225 68 OFFCURVE",
"180 66 CURVE",
"180 0 LINE",
"472 0 LINE",
"472 77 LINE",
"458 77 OFFCURVE",
"414 76 OFFCURVE",
"392 74 CURVE",
"395 91 OFFCURVE",
"396 128 OFFCURVE",
"396 164 CURVE SMOOTH",
"396 633 LINE",
"444 633 LINE SMOOTH",
"520 634 OFFCURVE",
"567 582 OFFCURVE",
"567 474 CURVE"
);
}
);
width = 650;
}
);
leftKerningGroup = T;
rightKerningGroup = T;
unicode = 0054;
},
{
color = 7;
glyphname = Tbar;
layers = (
{
components = (
{
name = T;
}
);
layerId = UUID0;
paths = (
{
closed = 1;
nodes = (
"508 322 LINE",
"508 361 LINE",
"152 361 LINE",
"152 318 LINE"
);
}
);
width = 640;
},
{
components = (
{
name = T;
}
);
layerId = "4C2B4986-1645-43C1-94B7-5E4C57EFF0D9";
paths = (
{
closed = 1;
nodes = (
"525 315 LINE",
"525 364 LINE",
"120 364 LINE",
"120 311 LINE"
);
}
);
width = 650;
}
);
unicode = 0166;
},
{
color = 4;
glyphname = U;
layers = (
{
anchors = (
{
name = bottom;
position = "{376, 0}";
},
{
name = ogonek;
position = "{497, 5}";
},
{
name = top;
position = "{388, 700}";
},
{
name = topright;
position = "{687, 700}";
}
);
layerId = UUID0;
paths = (
{
closed = 1;
nodes = (
"255 700 LINE",
"31 700 LINE",
"31 657 LINE",
"55 658 OFFCURVE",
"79 659 OFFCURVE",
"103 660 CURVE",
"101 634 OFFCURVE",
"99 579 OFFCURVE",
"99 544 CURVE SMOOTH",
"99 341 LINE SMOOTH",
"99 94 OFFCURVE",
"167 -16 OFFCURVE",
"381 -16 CURVE SMOOTH",
"582 -16 OFFCURVE",
"649 138 OFFCURVE",
"650 312 CURVE SMOOTH",
"652 544 LINE SMOOTH",
"652 615 OFFCURVE",
"646 664 OFFCURVE",
"722 667 CURVE",
"722 700 LINE",
"536 700 LINE",
"536 656 LINE",
"560 657 OFFCURVE",
"583 659 OFFCURVE",
"607 660 CURVE",
"605 640 OFFCURVE",
"604 615 OFFCURVE",
"604 588 CURVE SMOOTH",
"601 307 LINE SMOOTH",
"599 151 OFFCURVE",
"538 41 OFFCURVE",
"394 41 CURVE SMOOTH",
"214 41 OFFCURVE",
"187 187 OFFCURVE",
"187 336 CURVE SMOOTH",
"187 588 LINE SMOOTH",
"187 615 OFFCURVE",
"188 667 OFFCURVE",
"255 667 CURVE"
);
}
);
width = 752;
},
{
anchors = (
{
name = bottom;
position = "{380, 0}";
},
{
name = ogonek;
position = "{509, 5}";
},
{
name = top;
position = "{385, 700}";
},
{
name = topright;
position = "{718, 700}";
}
);
layerId = "4C2B4986-1645-43C1-94B7-5E4C57EFF0D9";
paths = (
{
closed = 1;
nodes = (
"313 700 LINE",
"26 700 LINE",
"26 623 LINE",
"40 624 OFFCURVE",
"80 625 OFFCURVE",
"101 626 CURVE",
"99 609 OFFCURVE",
"97 572 OFFCURVE",
"97 536 CURVE SMOOTH",
"97 294 LINE SMOOTH",
"97 123 OFFCURVE",
"160 -16 OFFCURVE",
"385 -16 CURVE SMOOTH",
"545 -16 OFFCURVE",
"665 67 OFFCURVE",
"665 297 CURVE SMOOTH",
"665 547 LINE SMOOTH",
"665 628 OFFCURVE",
"691 632 OFFCURVE",
"736 634 CURVE",
"736 700 LINE",
"504 700 LINE",
"504 623 LINE",
"519 624 OFFCURVE",
"558 625 OFFCURVE",
"580 626 CURVE",
"577 609 OFFCURVE",
"576 572 OFFCURVE",
"576 536 CURVE SMOOTH",
"576 274 LINE SMOOTH",
"576 126 OFFCURVE",
"511 56 OFFCURVE",
"401 60 CURVE SMOOTH",
"320 63 OFFCURVE",
"242 105 OFFCURVE",
"242 272 CURVE SMOOTH",
"242 547 LINE SMOOTH",
"242 628 OFFCURVE",
"269 632 OFFCURVE",
"313 634 CURVE"
);
}
);
width = 760;
}
);
leftKerningGroup = U;
rightKerningGroup = U;
unicode = 0055;
},
{
color = 9;
glyphname = Uhorn;
layers = (
{
anchors = (
{
name = bottom;
position = "{376, 0}";
},
{
name = ogonek;
position = "{497, 5}";
},
{
name = top;
position = "{388, 700}";
},
{
name = topright;
position = "{687, 700}";
}
);
components = (
{
name = horncomb;
transform = "{1, 0, 0, 1, 386, 200}";
}
);
layerId = UUID0;
paths = (
{
closed = 1;
nodes = (
"255 700 LINE",
"31 700 LINE",
"31 657 LINE",
"55 658 OFFCURVE",
"79 659 OFFCURVE",
"103 660 CURVE",
"101 634 OFFCURVE",
"99 579 OFFCURVE",
"99 544 CURVE SMOOTH",
"99 341 LINE SMOOTH",
"99 94 OFFCURVE",
"167 -16 OFFCURVE",
"381 -16 CURVE SMOOTH",
"582 -16 OFFCURVE",
"649 138 OFFCURVE",
"650 312 CURVE SMOOTH",
"652 700 LINE",
"536 700 LINE",
"536 656 LINE",
"560 657 OFFCURVE",
"583 659 OFFCURVE",
"607 660 CURVE",
"605 640 OFFCURVE",
"604 615 OFFCURVE",
"604 588 CURVE SMOOTH",
"601 307 LINE SMOOTH",
"599 151 OFFCURVE",
"538 41 OFFCURVE",
"394 41 CURVE SMOOTH",
"214 41 OFFCURVE",
"187 187 OFFCURVE",
"187 336 CURVE SMOOTH",
"187 588 LINE SMOOTH",
"187 615 OFFCURVE",
"188 667 OFFCURVE",
"255 667 CURVE"
);
}
);
width = 752;
},
{
anchors = (
{
name = bottom;
position = "{380, 0}";
},
{
name = ogonek;
position = "{509, 5}";
},
{
name = top;
position = "{385, 700}";
},
{
name = topright;
position = "{718, 700}";
}
);
components = (
{
name = horncomb;
transform = "{1, 0, 0, 1, 406, 200}";
}
);
layerId = "4C2B4986-1645-43C1-94B7-5E4C57EFF0D9";
paths = (
{
closed = 1;
nodes = (
"313 700 LINE",
"26 700 LINE",
"26 623 LINE",
"40 624 OFFCURVE",
"80 625 OFFCURVE",
"101 626 CURVE",
"99 609 OFFCURVE",
"97 572 OFFCURVE",
"97 536 CURVE SMOOTH",
"97 294 LINE SMOOTH",
"97 123 OFFCURVE",
"160 -16 OFFCURVE",
"385 -16 CURVE SMOOTH",
"545 -16 OFFCURVE",
"665 67 OFFCURVE",
"665 297 CURVE SMOOTH",
"666 700 LINE",
"504 700 LINE",
"504 623 LINE",
"519 624 OFFCURVE",
"558 625 OFFCURVE",
"580 626 CURVE",
"577 609 OFFCURVE",
"576 572 OFFCURVE",
"576 536 CURVE SMOOTH",
"576 274 LINE SMOOTH",
"576 126 OFFCURVE",
"511 56 OFFCURVE",
"401 60 CURVE SMOOTH",
"320 63 OFFCURVE",
"242 105 OFFCURVE",
"242 272 CURVE SMOOTH",
"242 547 LINE SMOOTH",
"242 628 OFFCURVE",
"269 632 OFFCURVE",
"313 634 CURVE"
);
}
);
width = 760;
}
);
unicode = 01AF;
},
{
color = 4;
glyphname = V;
layers = (
{
layerId = UUID0;
paths = (
{
closed = 1;
nodes = (
"350 -10 LINE",
"546 527 OFFCURVE",
"553 547 OFFCURVE",
"561 569 CURVE SMOOTH",
"586 641 OFFCURVE",
"612 664 OFFCURVE",
"671 667 CURVE",
"671 700 LINE",
"468 700 LINE",
"468 656 LINE",
"494 657 OFFCURVE",
"519 659 OFFCURVE",
"545 660 CURVE",
"537 644 OFFCURVE",
"528 620 OFFCURVE",
"516 586 CURVE SMOOTH",
"495 527 OFFCURVE",
"464 442 OFFCURVE",
"405 275 CURVE SMOOTH",
"384 216 OFFCURVE",
"370 178 OFFCURVE",
"355 132 CURVE",
"353 132 LINE",
"337 177 OFFCURVE",
"304 250 OFFCURVE",
"272 325 CURVE SMOOTH",
"236 410 OFFCURVE",
"209 479 OFFCURVE",
"177 558 CURVE SMOOTH",
"150 624 OFFCURVE",
"160 662 OFFCURVE",
"227 666 CURVE",
"228 700 LINE",
"-4 700 LINE",
"-4 656 LINE",
"15 657 OFFCURVE",
"33 657 OFFCURVE",
"52 658 CURVE",
"56 628 OFFCURVE",
"66 590 OFFCURVE",
"95 522 CURVE SMOOTH",
"322 -10 LINE"
);
}
);
width = 653;
},
{
layerId = "4C2B4986-1645-43C1-94B7-5E4C57EFF0D9";
paths = (
{
closed = 1;
nodes = (
"402 -6 LINE",
"469 172 OFFCURVE",
"535 349 OFFCURVE",
"602 527 CURVE SMOOTH",
"631 604 OFFCURVE",
"663 632 OFFCURVE",
"708 634 CURVE",
"708 700 LINE",
"483 700 LINE",
"483 623 LINE",
"497 624 OFFCURVE",
"538 625 OFFCURVE",
"560 626 CURVE",
"542 605 OFFCURVE",
"526 557 OFFCURVE",
"519 535 CURVE SMOOTH",
"494 465 OFFCURVE",
"468 396 OFFCURVE",
"443 326 CURVE SMOOTH",
"427 280 OFFCURVE",
"409 228 OFFCURVE",
"395 188 CURVE",
"394 188 LINE",
"373 239 OFFCURVE",
"360 275 OFFCURVE",
"337 331 CURVE SMOOTH",
"306 406 OFFCURVE",
"276 482 OFFCURVE",
"245 557 CURVE SMOOTH",
"221 616 OFFCURVE",
"253 635 OFFCURVE",
"303 634 CURVE",
"303 700 LINE",
"8 700 LINE",
"8 623 LINE",
"22 624 OFFCURVE",
"40 625 OFFCURVE",
"62 626 CURVE",
"62 604 OFFCURVE",
"76 564 OFFCURVE",
"90 531 CURVE SMOOTH",
"320 -6 LINE"
);
}
);
width = 708;
}
);
unicode = 0056;
},
{
color = 4;
glyphname = W;
layers = (
{
anchors = (
{
name = top;
position = "{513, 700}";
}
);
layerId = UUID0;
paths = (
{
closed = 1;
nodes = (
"313 -10 LINE",
"456 425 LINE",
"467 458 OFFCURVE",
"478 492 OFFCURVE",
"489 525 CURVE",
"501 491 OFFCURVE",
"512 458 OFFCURVE",
"524 424 CURVE",
"676 -10 LINE",
"706 -10 LINE",
"769 163 OFFCURVE",
"825 338 OFFCURVE",
"886 519 CURVE SMOOTH",
"928 642 OFFCURVE",
"942 659 OFFCURVE",
"1010 667 CURVE",
"1010 700 LINE",
"807 700 LINE",
"807 656 LINE",
"834 657 OFFCURVE",
"860 658 OFFCURVE",
"887 659 CURVE",
"874 636 OFFCURVE",
"864 608 OFFCURVE",
"856 586 CURVE SMOOTH",
"835 524 OFFCURVE",
"822 472 OFFCURVE",
"753 274 CURVE SMOOTH",
"738 229 OFFCURVE",
"724 184 OFFCURVE",
"712 145 CURVE",
"709 145 LINE",
"691 208 OFFCURVE",
"669 265 OFFCURVE",
"651 325 CURVE SMOOTH",
"625 406 OFFCURVE",
"552 614 OFFCURVE",
"527 702 CURVE",
"495 702 LINE",
"478 642 OFFCURVE",
"418 467 OFFCURVE",
"362 289 CURVE SMOOTH",
"353 262 OFFCURVE",
"334 202 OFFCURVE",
"321 157 CURVE",
"319 157 LINE",
"299 220 OFFCURVE",
"280 265 OFFCURVE",
"261 325 CURVE SMOOTH",
"235 406 OFFCURVE",
"208 470 OFFCURVE",
"185 558 CURVE SMOOTH",
"163 638 OFFCURVE",
"172 663 OFFCURVE",
"250 667 CURVE",
"250 700 LINE",
"7 700 LINE",
"7 656 LINE",
"26 657 OFFCURVE",
"44 657 OFFCURVE",
"63 658 CURVE",
"69 628 OFFCURVE",
"82 592 OFFCURVE",
"105 522 CURVE SMOOTH",
"284 -10 LINE"
);
}
);
width = 995;
},
{
anchors = (
{
name = top;
position = "{529, 700}";
}
);
layerId = "4C2B4986-1645-43C1-94B7-5E4C57EFF0D9";
paths = (
{
closed = 1;
nodes = (
"360 -6 LINE",
"474 369 LINE SMOOTH",
"487 414 OFFCURVE",
"496 454 OFFCURVE",
"503 500 CURVE",
"514 454 OFFCURVE",
"523 404 OFFCURVE",
"541 352 CURVE SMOOTH",
"659 -6 LINE",
"748 -6 LINE",
"802 172 OFFCURVE",
"857 349 OFFCURVE",
"911 527 CURVE SMOOTH",
"937 605 OFFCURVE",
"972 632 OFFCURVE",
"1017 634 CURVE",
"1017 700 LINE",
"792 700 LINE",
"792 623 LINE",
"806 624 OFFCURVE",
"847 625 OFFCURVE",
"869 626 CURVE",
"849 604 OFFCURVE",
"836 567 OFFCURVE",
"828 535 CURVE SMOOTH",
"809 465 OFFCURVE",
"791 396 OFFCURVE",
"772 326 CURVE SMOOTH",
"759 277 OFFCURVE",
"746 231 OFFCURVE",
"734 188 CURVE",
"733 188 LINE",
"722 237 OFFCURVE",
"711 286 OFFCURVE",
"697 332 CURVE SMOOTH",
"659 455 OFFCURVE",
"621 577 OFFCURVE",
"583 700 CURVE",
"493 700 LINE",
"462 598 OFFCURVE",
"431 496 OFFCURVE",
"400 394 CURVE SMOOTH",
"392 365 OFFCURVE",
"353 226 OFFCURVE",
"343 189 CURVE",
"342 189 LINE",
"330 253 OFFCURVE",
"321 285 OFFCURVE",
"309 331 CURVE SMOOTH",
"289 407 OFFCURVE",
"269 483 OFFCURVE",
"249 559 CURVE SMOOTH",
"231 620 OFFCURVE",
"258 635 OFFCURVE",
"308 634 CURVE",
"308 700 LINE",
"13 700 LINE",
"13 623 LINE",
"30 624 OFFCURVE",
"49 625 OFFCURVE",
"74 626 CURVE",
"74 604 OFFCURVE",
"82 571 OFFCURVE",
"95 533 CURVE SMOOTH",
"273 -6 LINE"
);
}
);
width = 1016;
}
);
unicode = 0057;
},
{
color = 4;
glyphname = X;
layers = (
{
layerId = UUID0;
paths = (
{
closed = 1;
nodes = (
"208 0 LINE",
"208 44 LINE",
"180 42 OFFCURVE",
"153 41 OFFCURVE",
"125 39 CURVE",
"158 77 OFFCURVE",
"183 117 OFFCURVE",
"207 153 CURVE SMOOTH",
"240 203 OFFCURVE",
"273 252 OFFCURVE",
"306 300 CURVE",
"367 215 OFFCURVE",
"422 147 OFFCURVE",
"453 106 CURVE SMOOTH",
"477 73 OFFCURVE",
"488 30 OFFCURVE",
"411 33 CURVE",
"411 0 LINE",
"656 0 LINE",
"656 44 LINE",
"637 43 OFFCURVE",
"617 43 OFFCURVE",
"598 42 CURVE",
"575 73 OFFCURVE",
"552 104 OFFCURVE",
"529 135 CURVE SMOOTH",
"498 176 OFFCURVE",
"424 272 OFFCURVE",
"353 368 CURVE",
"466 528 LINE SMOOTH",
"508 588 OFFCURVE",
"559 658 OFFCURVE",
"623 667 CURVE",
"623 700 LINE",
"426 700 LINE",
"426 656 LINE",
"454 657 OFFCURVE",
"482 659 OFFCURVE",
"510 660 CURVE",
"489 641 OFFCURVE",
"455 592 OFFCURVE",
"421 544 CURVE SMOOTH",
"325 405 LINE",
"273 477 OFFCURVE",
"225 544 OFFCURVE",
"201 584 CURVE SMOOTH",
"178 621 OFFCURVE",
"151 662 OFFCURVE",
"224 665 CURVE SMOOTH",
"268 667 LINE",
"268 700 LINE",
"9 700 LINE",
"9 656 LINE",
"27 657 OFFCURVE",
"46 657 OFFCURVE",
"64 658 CURVE",
"74 632 OFFCURVE",
"84 614 OFFCURVE",
"110 576 CURVE SMOOTH",
"139 534 OFFCURVE",
"187 468 OFFCURVE",
"279 339 CURVE",
"149 153 LINE SMOOTH",
"104 87 OFFCURVE",
"76 46 OFFCURVE",
"12 33 CURVE",
"12 0 LINE"
);
}
);
width = 649;
},
{
layerId = "4C2B4986-1645-43C1-94B7-5E4C57EFF0D9";
paths = (
{
closed = 1;
nodes = (
"255 0 LINE",
"255 77 LINE",
"241 77 OFFCURVE",
"206 75 OFFCURVE",
"184 74 CURVE",
"200 90 OFFCURVE",
"211 104 OFFCURVE",
"239 142 CURVE SMOOTH",
"268 182 OFFCURVE",
"298 223 OFFCURVE",
"327 263 CURVE",
"362 220 OFFCURVE",
"395 177 OFFCURVE",
"429 134 CURVE SMOOTH",
"459 96 OFFCURVE",
"469 66 OFFCURVE",
"396 66 CURVE",
"396 0 LINE",
"695 0 LINE",
"695 77 LINE",
"681 77 OFFCURVE",
"676 76 OFFCURVE",
"654 74 CURVE",
"644 96 OFFCURVE",
"625 122 OFFCURVE",
"602 150 CURVE SMOOTH",
"539 230 OFFCURVE",
"477 310 OFFCURVE",
"414 390 CURVE",
"510 521 LINE SMOOTH",
"563 594 OFFCURVE",
"605 628 OFFCURVE",
"651 634 CURVE",
"651 700 LINE",
"424 700 LINE",
"424 623 LINE",
"438 624 OFFCURVE",
"477 625 OFFCURVE",
"499 626 CURVE",
"481 610 OFFCURVE",
"468 596 OFFCURVE",
"440 558 CURVE SMOOTH",
"364 453 LINE",
"334 491 OFFCURVE",
"305 528 OFFCURVE",
"275 566 CURVE SMOOTH",
"245 604 OFFCURVE",
"245 634 OFFCURVE",
"308 634 CURVE",
"318 634 LINE",
"318 700 LINE",
"14 700 LINE",
"14 623 LINE",
"28 624 OFFCURVE",
"42 625 OFFCURVE",
"64 626 CURVE",
"74 597 OFFCURVE",
"92 560 OFFCURVE",
"114 532 CURVE SMOOTH",
"168 464 OFFCURVE",
"221 396 OFFCURVE",
"275 328 CURVE",
"159 173 LINE SMOOTH",
"110 107 OFFCURVE",
"73 75 OFFCURVE",
"35 66 CURVE",
"35 0 LINE"
);
}
);
width = 699;
}
);
unicode = 0058;
},
{
color = 4;
glyphname = Y;
layers = (
{
anchors = (
{
name = bottom;
position = "{317, 0}";
},
{
name = top;
position = "{331, 700}";
},
{
name = topleft;
position = "{20, 700}";
}
);
layerId = UUID0;
paths = (
{
closed = 1;
nodes = (
"450 0 LINE",
"450 44 LINE",
"422 43 OFFCURVE",
"395 41 OFFCURVE",
"367 40 CURVE",
"369 57 OFFCURVE",
"370 83 OFFCURVE",
"370 119 CURVE SMOOTH",
"369 120 OFFCURVE",
"370 251 OFFCURVE",
"371 300 CURVE",
"410 374 OFFCURVE",
"451 452 OFFCURVE",
"497 538 CURVE SMOOTH",
"543 623 OFFCURVE",
"578 663 OFFCURVE",
"644 667 CURVE",
"644 700 LINE",
"440 700 LINE",
"440 656 LINE",
"466 657 OFFCURVE",
"493 658 OFFCURVE",
"519 659 CURVE",
"500 638 OFFCURVE",
"481 602 OFFCURVE",
"471 583 CURVE",
"386 422 LINE",
"372 396 OFFCURVE",
"358 369 OFFCURVE",
"343 340 CURVE",
"341 340 LINE",
"317 373 OFFCURVE",
"297 403 OFFCURVE",
"279 432 CURVE",
"199 558 LINE",
"159 622 OFFCURVE",
"160 667 OFFCURVE",
"252 667 CURVE",
"252 700 LINE",
"-6 700 LINE",
"-6 656 LINE",
"15 657 OFFCURVE",
"35 657 OFFCURVE",
"56 658 CURVE",
"61 633 OFFCURVE",
"76 598 OFFCURVE",
"110 545 CURVE SMOOTH",
"284 270 LINE",
"283 156 LINE SMOOTH",
"283 88 OFFCURVE",
"290 36 OFFCURVE",
"215 33 CURVE",
"215 0 LINE"
);
}
);
width = 634;
},
{
anchors = (
{
name = bottom;
position = "{334, 0}";
},
{
name = top;
position = "{345, 700}";
},
{
name = topleft;
position = "{20, 700}";
}
);
layerId = "4C2B4986-1645-43C1-94B7-5E4C57EFF0D9";
paths = (
{
closed = 1;
nodes = (
"495 0 LINE",
"495 77 LINE",
"481 77 OFFCURVE",
"437 76 OFFCURVE",
"415 74 CURVE",
"417 91 OFFCURVE",
"419 128 OFFCURVE",
"419 164 CURVE SMOOTH",
"419 202 OFFCURVE",
"419 239 OFFCURVE",
"419 277 CURVE",
"462 360 OFFCURVE",
"506 444 OFFCURVE",
"549 527 CURVE SMOOTH",
"588 600 OFFCURVE",
"616 627 OFFCURVE",
"663 634 CURVE",
"663 700 LINE",
"442 700 LINE",
"442 623 LINE",
"456 624 OFFCURVE",
"497 625 OFFCURVE",
"519 627 CURVE",
"501 605 OFFCURVE",
"476 556 OFFCURVE",
"466 535 CURVE",
"414 433 LINE",
"390 382 OFFCURVE",
"374 351 OFFCURVE",
"367 335 CURVE",
"366 335 LINE",
"355 364 OFFCURVE",
"324 416 OFFCURVE",
"315 432 CURVE SMOOTH",
"239 557 LINE SMOOTH",
"207 612 OFFCURVE",
"240 638 OFFCURVE",
"298 634 CURVE",
"298 700 LINE",
"3 700 LINE",
"3 623 LINE",
"18 624 OFFCURVE",
"30 625 OFFCURVE",
"52 626 CURVE",
"52 604 OFFCURVE",
"71 562 OFFCURVE",
"90 531 CURVE SMOOTH",
"274 240 LINE",
"274 153 LINE SMOOTH",
"274 72 OFFCURVE",
"248 68 OFFCURVE",
"203 66 CURVE",
"203 0 LINE"
);
}
);
width = 667;
}
);
leftKerningGroup = Y;
rightKerningGroup = Y;
unicode = 0059;
},
{
color = 4;
glyphname = Z;
layers = (
{
anchors = (
{
name = top;
position = "{305, 700}";
}
);
layerId = UUID0;
paths = (
{
closed = 1;
nodes = (
"556 0 LINE",
"562 205 LINE",
"528 205 LINE",
"528 93 OFFCURVE",
"461 42 OFFCURVE",
"373 41 CURVE SMOOTH",
"130 37 LINE",
"151 56 OFFCURVE",
"169 77 OFFCURVE",
"198 120 CURVE SMOOTH",
"557 665 LINE",
"557 700 LINE",
"61 700 LINE",
"55 493 LINE",
"89 493 LINE",
"89 607 OFFCURVE",
"128 656 OFFCURVE",
"207 659 CURVE SMOOTH",
"462 663 LINE",
"437 634 OFFCURVE",
"417 603 OFFCURVE",
"398 573 CURVE SMOOTH",
"233 310 OFFCURVE",
"118 151 OFFCURVE",
"43 46 CURVE",
"43 0 LINE"
);
}
);
width = 610;
},
{
anchors = (
{
name = top;
position = "{314, 700}";
}
);
layerId = "4C2B4986-1645-43C1-94B7-5E4C57EFF0D9";
paths = (
{
closed = 1;
nodes = (
"555 0 LINE",
"561 214 LINE",
"495 214 LINE",
"495 105 OFFCURVE",
"443 65 OFFCURVE",
"369 66 CURVE SMOOTH",
"186 70 LINE",
"216 106 OFFCURVE",
"244 147 OFFCURVE",
"272 189 CURVE SMOOTH",
"560 625 LINE",
"560 700 LINE",
"51 700 LINE",
"45 487 LINE",
"111 487 LINE",
"111 595 OFFCURVE",
"164 637 OFFCURVE",
"238 635 CURVE SMOOTH",
"409 629 LINE",
"384 599 OFFCURVE",
"364 569 OFFCURVE",
"339 531 CURVE SMOOTH",
"239 379 OFFCURVE",
"140 227 OFFCURVE",
"40 75 CURVE",
"40 0 LINE"
);
}
);
width = 604;
}
);
leftKerningGroup = Z;
rightKerningGroup = Z;
unicode = 005A;
},
{
color = 4;
glyphname = a;
layers = (
{
anchors = (
{
name = bottom;
position = "{258, 0}";
},
{
name = ogonek;
position = "{469, 5}";
},
{
name = top;
position = "{251, 533}";
}
);
layerId = UUID0;
paths = (
{
closed = 1;
nodes = (
"491 0 LINE",
"491 42 LINE",
"467 41 OFFCURVE",
"444 39 OFFCURVE",
"420 38 CURVE",
"423 65 OFFCURVE",
"424 85 OFFCURVE",
"424 106 CURVE SMOOTH",
"424 181 OFFCURVE",
"425 256 OFFCURVE",
"425 331 CURVE SMOOTH",
"426 459 OFFCURVE",
"374 516 OFFCURVE",
"262 516 CURVE SMOOTH",
"147 516 OFFCURVE",
"64 463 OFFCURVE",
"64 396 CURVE SMOOTH",
"64 369 OFFCURVE",
"79 347 OFFCURVE",
"107 347 CURVE SMOOTH",
"140 346 OFFCURVE",
"152 373 OFFCURVE",
"152 389 CURVE SMOOTH",
"152 401 OFFCURVE",
"149 416 OFFCURVE",
"139 427 CURVE",
"158 465 OFFCURVE",
"204 480 OFFCURVE",
"243 479 CURVE SMOOTH",
"330 477 OFFCURVE",
"339 410 OFFCURVE",
"339 341 CURVE SMOOTH",
"339 279 LINE",
"206 281 OFFCURVE",
"34 226 OFFCURVE",
"34 103 CURVE SMOOTH",
"34 36 OFFCURVE",
"83 -16 OFFCURVE",
"184 -16 CURVE SMOOTH",
"243 -16 OFFCURVE",
"296 12 OFFCURVE",
"341 57 CURVE",
"343 38 OFFCURVE",
"344 23 OFFCURVE",
"348 0 CURVE"
);
},
{
closed = 1;
nodes = (
"339 198 OFFCURVE",
"338 157 OFFCURVE",
"338 151 CURVE SMOOTH",
"338 132 OFFCURVE",
"338 115 OFFCURVE",
"339 100 CURVE",
"299 63 OFFCURVE",
"261 41 OFFCURVE",
"207 41 CURVE SMOOTH",
"166 41 OFFCURVE",
"131 65 OFFCURVE",
"129 115 CURVE SMOOTH",
"126 209 OFFCURVE",
"247 242 OFFCURVE",
"339 245 CURVE"
);
}
);
width = 516;
},
{
anchors = (
{
name = bottom;
position = "{262, 0}";
},
{
name = ogonek;
position = "{472, 5}";
},
{
name = top;
position = "{252, 500}";
}
);
layerId = "4C2B4986-1645-43C1-94B7-5E4C57EFF0D9";
paths = (
{
closed = 1;
nodes = (
"508 0 LINE",
"508 76 LINE",
"494 76 OFFCURVE",
"465 75 OFFCURVE",
"443 73 CURVE",
"446 103 OFFCURVE",
"447 142 OFFCURVE",
"447 161 CURVE SMOOTH",
"447 229 OFFCURVE",
"448 257 OFFCURVE",
"448 325 CURVE SMOOTH",
"448 458 OFFCURVE",
"380 516 OFFCURVE",
"263 516 CURVE SMOOTH",
"146 516 OFFCURVE",
"52 463 OFFCURVE",
"52 384 CURVE SMOOTH",
"52 348 OFFCURVE",
"74 317 OFFCURVE",
"114 316 CURVE SMOOTH",
"161 315 OFFCURVE",
"181 351 OFFCURVE",
"181 378 CURVE SMOOTH",
"181 388 OFFCURVE",
"179 404 OFFCURVE",
"169 416 CURVE",
"186 433 OFFCURVE",
"211 443 OFFCURVE",
"237 444 CURVE SMOOTH",
"292 446 OFFCURVE",
"309 405 OFFCURVE",
"309 353 CURVE SMOOTH",
"309 301 LINE",
"175 295 OFFCURVE",
"30 244 OFFCURVE",
"30 117 CURVE SMOOTH",
"30 41 OFFCURVE",
"80 -16 OFFCURVE",
"166 -16 CURVE SMOOTH",
"218 -16 OFFCURVE",
"269 0 OFFCURVE",
"315 46 CURVE",
"316 29 OFFCURVE",
"316 19 OFFCURVE",
"319 0 CURVE"
);
},
{
closed = 1;
nodes = (
"308 206 OFFCURVE",
"308 181 OFFCURVE",
"308 157 CURVE",
"308 144 OFFCURVE",
"308 131 OFFCURVE",
"308 118 CURVE",
"287 96 OFFCURVE",
"259 82 OFFCURVE",
"229 82 CURVE SMOOTH",
"200 82 OFFCURVE",
"173 97 OFFCURVE",
"172 134 CURVE SMOOTH",
"171 191 OFFCURVE",
"233 223 OFFCURVE",
"308 230 CURVE"
);
}
);
width = 524;
}
);
leftKerningGroup = a;
rightKerningGroup = a;
unicode = 0061;
},
{
color = 4;
glyphname = ae;
layers = (
{
layerId = UUID0;
paths = (
{
closed = 1;
nodes = (
"252 -16 OFFCURVE",
"319 9 OFFCURVE",
"371 79 CURVE",
"408 12 OFFCURVE",
"471 -16 OFFCURVE",
"549 -16 CURVE SMOOTH",
"617 -16 OFFCURVE",
"681 15 OFFCURVE",
"736 98 CURVE",
"711 118 LINE",
"678 71 OFFCURVE",
"635 35 OFFCURVE",
"573 35 CURVE SMOOTH",
"481 35 OFFCURVE",
"413 125 OFFCURVE",
"425 289 CURVE",
"730 295 LINE",
"729 454 OFFCURVE",
"654 516 OFFCURVE",
"553 516 CURVE SMOOTH",
"482 516 OFFCURVE",
"427 480 OFFCURVE",
"390 430 CURVE",
"366 483 OFFCURVE",
"319 516 OFFCURVE",
"252 516 CURVE SMOOTH",
"137 516 OFFCURVE",
"66 453 OFFCURVE",
"66 393 CURVE SMOOTH",
"66 363 OFFCURVE",
"83 345 OFFCURVE",
"108 345 CURVE SMOOTH",
"140 344 OFFCURVE",
"151 372 OFFCURVE",
"151 387 CURVE SMOOTH",
"151 395 OFFCURVE",
"147 412 OFFCURVE",
"138 420 CURVE",
"152 456 OFFCURVE",
"193 479 OFFCURVE",
"237 479 CURVE SMOOTH",
"328 479 OFFCURVE",
"336 407 OFFCURVE",
"336 336 CURVE SMOOTH",
"336 275 LINE",
"203 277 OFFCURVE",
"34 223 OFFCURVE",
"34 100 CURVE SMOOTH",
"34 33 OFFCURVE",
"89 -16 OFFCURVE",
"180 -16 CURVE SMOOTH"
);
},
{
closed = 1;
nodes = (
"167 43 OFFCURVE",
"131 63 OFFCURVE",
"129 112 CURVE SMOOTH",
"126 206 OFFCURVE",
"244 237 OFFCURVE",
"335 241 CURVE",
"336 202 OFFCURVE",
"342 134 OFFCURVE",
"345 107 CURVE",
"306 63 OFFCURVE",
"259 37 OFFCURVE",
"199 41 CURVE SMOOTH"
);
},
{
closed = 1;
nodes = (
"441 410 OFFCURVE",
"471 477 OFFCURVE",
"549 477 CURVE SMOOTH",
"627 477 OFFCURVE",
"640 402 OFFCURVE",
"640 331 CURVE",
"432 331 LINE"
);
}
);
width = 777;
},
{
layerId = "4C2B4986-1645-43C1-94B7-5E4C57EFF0D9";
paths = (
{
closed = 1;
nodes = (
"233 -16 OFFCURVE",
"309 -2 OFFCURVE",
"370 68 CURVE",
"404 23 OFFCURVE",
"456 -16 OFFCURVE",
"531 -16 CURVE SMOOTH",
"599 -16 OFFCURVE",
"679 3 OFFCURVE",
"750 106 CURVE",
"706 148 LINE",
"660 92 OFFCURVE",
"609 73 OFFCURVE",
"568 73 CURVE SMOOTH",
"471 73 OFFCURVE",
"447 154 OFFCURVE",
"447 263 CURVE",
"730 269 LINE",
"732 452 OFFCURVE",
"637 515 OFFCURVE",
"549 516 CURVE SMOOTH",
"472 516 OFFCURVE",
"428 493 OFFCURVE",
"391 432 CURVE",
"373 494 OFFCURVE",
"323 516 OFFCURVE",
"255 516 CURVE SMOOTH",
"138 516 OFFCURVE",
"51 458 OFFCURVE",
"51 384 CURVE SMOOTH",
"51 348 OFFCURVE",
"74 317 OFFCURVE",
"113 316 CURVE SMOOTH",
"160 315 OFFCURVE",
"181 351 OFFCURVE",
"181 378 CURVE SMOOTH",
"181 388 OFFCURVE",
"179 407 OFFCURVE",
"168 418 CURVE",
"185 436 OFFCURVE",
"213 444 OFFCURVE",
"240 445 CURVE SMOOTH",
"290 447 OFFCURVE",
"309 407 OFFCURVE",
"309 355 CURVE SMOOTH",
"309 301 LINE",
"175 295 OFFCURVE",
"29 244 OFFCURVE",
"29 117 CURVE SMOOTH",
"29 41 OFFCURVE",
"82 -16 OFFCURVE",
"167 -16 CURVE SMOOTH"
);
},
{
closed = 1;
nodes = (
"203 82 OFFCURVE",
"172 97 OFFCURVE",
"171 134 CURVE SMOOTH",
"169 191 OFFCURVE",
"234 223 OFFCURVE",
"309 230 CURVE",
"309 194 OFFCURVE",
"310 158 OFFCURVE",
"313 120 CURVE",
"292 97 OFFCURVE",
"262 82 OFFCURVE",
"231 82 CURVE SMOOTH"
);
},
{
closed = 1;
nodes = (
"458 393 OFFCURVE",
"478 445 OFFCURVE",
"532 445 CURVE SMOOTH",
"564 445 OFFCURVE",
"596 416 OFFCURVE",
"598 333 CURVE",
"453 333 LINE"
);
}
);
width = 770;
}
);
leftKerningGroup = a;
rightKerningGroup = e;
unicode = 00E6;
},
{
color = 4;
glyphname = b;
layers = (
{
layerId = UUID0;
paths = (
{
closed = 1;
nodes = (
"74 0 LINE",
"109 0 LINE",
"133 45 LINE",
"175 -3 OFFCURVE",
"235 -16 OFFCURVE",
"280 -16 CURVE SMOOTH",
"415 -16 OFFCURVE",
"540 91 OFFCURVE",
"540 262 CURVE SMOOTH",
"540 418 OFFCURVE",
"441 516 OFFCURVE",
"313 516 CURVE SMOOTH",
"251 516 OFFCURVE",
"199 494 OFFCURVE",
"162 457 CURVE",
"162 755 LINE",
"133 755 LINE",
"118 741 OFFCURVE",
"96 728 OFFCURVE",
"8 728 CURVE",
"8 686 LINE",
"32 687 OFFCURVE",
"55 689 OFFCURVE",
"79 690 CURVE",
"76 663 OFFCURVE",
"76 646 OFFCURVE",
"76 625 CURVE SMOOTH"
);
},
{
closed = 1;
nodes = (
"162 410 LINE",
"192 444 OFFCURVE",
"239 467 OFFCURVE",
"283 467 CURVE SMOOTH",
"387 467 OFFCURVE",
"437 372 OFFCURVE",
"437 237 CURVE SMOOTH",
"437 111 OFFCURVE",
"376 25 OFFCURVE",
"280 25 CURVE SMOOTH",
"219 25 OFFCURVE",
"162 51 OFFCURVE",
"162 157 CURVE SMOOTH"
);
}
);
width = 582;
},
{
layerId = "4C2B4986-1645-43C1-94B7-5E4C57EFF0D9";
paths = (
{
closed = 1;
nodes = (
"63 0 LINE",
"123 0 LINE",
"153 44 LINE",
"200 -6 OFFCURVE",
"262 -16 OFFCURVE",
"298 -16 CURVE SMOOTH",
"449 -16 OFFCURVE",
"541 102 OFFCURVE",
"541 263 CURVE SMOOTH",
"541 417 OFFCURVE",
"459 516 OFFCURVE",
"339 516 CURVE SMOOTH",
"297 516 OFFCURVE",
"249 502 OFFCURVE",
"204 462 CURVE",
"204 755 LINE",
"150 755 LINE",
"136 742 OFFCURVE",
"89 725 OFFCURVE",
"-4 725 CURVE",
"-4 649 LINE",
"10 650 OFFCURVE",
"45 651 OFFCURVE",
"66 652 CURVE",
"63 623 OFFCURVE",
"63 589 OFFCURVE",
"63 565 CURVE SMOOTH"
);
},
{
closed = 1;
nodes = (
"204 383 LINE",
"222 408 OFFCURVE",
"252 425 OFFCURVE",
"285 426 CURVE SMOOTH",
"362 428 OFFCURVE",
"394 339 OFFCURVE",
"394 248 CURVE SMOOTH",
"394 149 OFFCURVE",
"367 54 OFFCURVE",
"277 57 CURVE SMOOTH",
"242 58 OFFCURVE",
"204 82 OFFCURVE",
"204 150 CURVE SMOOTH"
);
}
);
width = 573;
}
);
leftKerningGroup = b;
rightKerningGroup = o;
unicode = 0062;
},
{
color = 4;
glyphname = c;
layers = (
{
anchors = (
{
name = bottom;
position = "{342, 0}";
},
{
name = top;
position = "{292, 500}";
}
);
layerId = UUID0;
paths = (
{
closed = 1;
nodes = (
"356 -16 OFFCURVE",
"445 19 OFFCURVE",
"498 102 CURVE",
"472 122 LINE",
"440 74 OFFCURVE",
"377 36 OFFCURVE",
"315 36 CURVE SMOOTH",
"212 36 OFFCURVE",
"143 132 OFFCURVE",
"143 266 CURVE SMOOTH",
"143 404 OFFCURVE",
"213 479 OFFCURVE",
"304 479 CURVE SMOOTH",
"332 479 OFFCURVE",
"392 472 OFFCURVE",
"409 425 CURVE",
"397 413 OFFCURVE",
"394 398 OFFCURVE",
"394 385 CURVE SMOOTH",
"394 368 OFFCURVE",
"406 339 OFFCURVE",
"440 340 CURVE SMOOTH",
"470 340 OFFCURVE",
"487 364 OFFCURVE",
"487 393 CURVE SMOOTH",
"487 458 OFFCURVE",
"413 516 OFFCURVE",
"302 516 CURVE SMOOTH",
"147 516 OFFCURVE",
"41 379 OFFCURVE",
"41 241 CURVE SMOOTH",
"41 79 OFFCURVE",
"153 -16 OFFCURVE",
"288 -16 CURVE SMOOTH"
);
}
);
width = 532;
},
{
anchors = (
{
name = bottom;
position = "{313, 0}";
},
{
name = top;
position = "{300, 500}";
}
);
layerId = "4C2B4986-1645-43C1-94B7-5E4C57EFF0D9";
paths = (
{
closed = 1;
nodes = (
"350 -16 OFFCURVE",
"432 5 OFFCURVE",
"505 105 CURVE",
"459 150 LINE",
"422 102 OFFCURVE",
"365 71 OFFCURVE",
"309 73 CURVE SMOOTH",
"211 77 OFFCURVE",
"177 168 OFFCURVE",
"177 268 CURVE SMOOTH",
"177 381 OFFCURVE",
"223 442 OFFCURVE",
"287 446 CURVE SMOOTH",
"305 447 OFFCURVE",
"345 442 OFFCURVE",
"360 413 CURVE",
"352 399 OFFCURVE",
"348 381 OFFCURVE",
"348 369 CURVE SMOOTH",
"348 341 OFFCURVE",
"365 303 OFFCURVE",
"416 304 CURVE SMOOTH",
"459 305 OFFCURVE",
"483 340 OFFCURVE",
"483 379 CURVE SMOOTH",
"483 449 OFFCURVE",
"418 516 OFFCURVE",
"291 516 CURVE SMOOTH",
"137 516 OFFCURVE",
"31 390 OFFCURVE",
"31 239 CURVE SMOOTH",
"31 77 OFFCURVE",
"142 -16 OFFCURVE",
"277 -16 CURVE SMOOTH"
);
}
);
width = 518;
}
);
leftKerningGroup = o;
rightKerningGroup = c;
unicode = 0063;
},
{
color = 4;
glyphname = ccedilla;
layers = (
{
components = (
{
name = c;
},
{
name = cedilla;
transform = "{1, 0, 0, 1, 196, 0}";
}
);
layerId = UUID0;
width = 532;
},
{
background = {
paths = (
{
closed = 1;
nodes = (
"295 -53 OFFCURVE",
"262 -60 OFFCURVE",
"245 -69 CURVE",
"244 -69 LINE",
"264 -15 LINE",
"269 -15 OFFCURVE",
"273 -16 OFFCURVE",
"278 -16 CURVE SMOOTH",
"351 -16 OFFCURVE",
"433 5 OFFCURVE",
"506 105 CURVE",
"460 150 LINE",
"423 102 OFFCURVE",
"366 71 OFFCURVE",
"310 73 CURVE SMOOTH",
"212 77 OFFCURVE",
"178 168 OFFCURVE",
"178 268 CURVE SMOOTH",
"178 381 OFFCURVE",
"224 442 OFFCURVE",
"288 446 CURVE SMOOTH",
"306 447 OFFCURVE",
"346 442 OFFCURVE",
"361 413 CURVE",
"353 399 OFFCURVE",
"349 381 OFFCURVE",
"349 369 CURVE SMOOTH",
"349 341 OFFCURVE",
"366 303 OFFCURVE",
"417 304 CURVE SMOOTH",
"460 305 OFFCURVE",
"484 340 OFFCURVE",
"484 379 CURVE SMOOTH",
"484 449 OFFCURVE",
"419 516 OFFCURVE",
"292 516 CURVE SMOOTH",
"138 516 OFFCURVE",
"32 390 OFFCURVE",
"32 239 CURVE SMOOTH",
"32 112 OFFCURVE",
"100 28 OFFCURVE",
"194 -2 CURVE",
"167 -117 LINE",
"204 -133 LINE",
"223 -117 OFFCURVE",
"271 -109 OFFCURVE",
"271 -144 CURVE SMOOTH",
"271 -185 OFFCURVE",
"183 -201 OFFCURVE",
"151 -207 CURVE",
"159 -259 LINE",
"236 -248 OFFCURVE",
"386 -216 OFFCURVE",
"386 -123 CURVE SMOOTH",
"386 -75 OFFCURVE",
"355 -54 OFFCURVE",
"313 -53 CURVE SMOOTH"
);
}
);
};
components = (
{
name = c;
},
{
name = cedilla;
transform = "{1, 0, 0, 1, 194, 0}";
}
);
layerId = "4C2B4986-1645-43C1-94B7-5E4C57EFF0D9";
width = 518;
}
);
leftKerningGroup = o;
rightKerningGroup = c;
unicode = 00E7;
},
{
color = 4;
glyphname = d;
layers = (
{
anchors = (
{
name = center;
position = "{299, 250}";
},
{
name = topright;
position = "{588, 500}";
}
);
layerId = UUID0;
paths = (
{
closed = 1;
nodes = (
"324 -16 OFFCURVE",
"380 11 OFFCURVE",
"418 52 CURVE",
"419 36 OFFCURVE",
"421 20 OFFCURVE",
"425 0 CURVE",
"568 0 LINE",
"568 42 LINE",
"544 41 OFFCURVE",
"521 39 OFFCURVE",
"497 38 CURVE",
"500 65 OFFCURVE",
"501 85 OFFCURVE",
"501 106 CURVE SMOOTH",
"501 755 LINE",
"472 755 LINE",
"457 741 OFFCURVE",
"436 728 OFFCURVE",
"348 728 CURVE",
"348 686 LINE",
"372 687 OFFCURVE",
"395 689 OFFCURVE",
"419 690 CURVE",
"416 663 OFFCURVE",
"416 646 OFFCURVE",
"416 625 CURVE SMOOTH",
"416 488 LINE",
"390 502 OFFCURVE",
"343 516 OFFCURVE",
"299 516 CURVE SMOOTH",
"150 516 OFFCURVE",
"42 399 OFFCURVE",
"42 236 CURVE SMOOTH",
"42 81 OFFCURVE",
"135 -16 OFFCURVE",
"258 -16 CURVE SMOOTH"
);
},
{
closed = 1;
nodes = (
"200 33 OFFCURVE",
"149 122 OFFCURVE",
"145 245 CURVE SMOOTH",
"140 384 OFFCURVE",
"205 477 OFFCURVE",
"305 477 CURVE SMOOTH",
"345 477 OFFCURVE",
"384 466 OFFCURVE",
"416 442 CURVE",
"415 154 LINE SMOOTH",
"415 133 OFFCURVE",
"415 115 OFFCURVE",
"416 99 CURVE",
"386 61 OFFCURVE",
"338 33 OFFCURVE",
"294 33 CURVE SMOOTH"
);
}
);
width = 598;
},
{
anchors = (
{
name = center;
position = "{298, 250}";
},
{
name = topright;
position = "{586, 500}";
}
);
layerId = "4C2B4986-1645-43C1-94B7-5E4C57EFF0D9";
paths = (
{
closed = 1;
nodes = (
"284 -16 OFFCURVE",
"331 0 OFFCURVE",
"375 46 CURVE",
"377 31 OFFCURVE",
"379 15 OFFCURVE",
"381 0 CURVE",
"571 0 LINE",
"571 76 LINE",
"557 76 OFFCURVE",
"528 75 OFFCURVE",
"506 73 CURVE",
"509 103 OFFCURVE",
"510 142 OFFCURVE",
"510 161 CURVE SMOOTH",
"510 755 LINE",
"456 755 LINE",
"442 742 OFFCURVE",
"395 725 OFFCURVE",
"302 725 CURVE",
"302 649 LINE",
"316 649 OFFCURVE",
"351 650 OFFCURVE",
"373 652 CURVE",
"370 622 OFFCURVE",
"369 583 OFFCURVE",
"369 564 CURVE SMOOTH",
"369 498 LINE",
"344 507 OFFCURVE",
"316 516 OFFCURVE",
"280 516 CURVE SMOOTH",
"131 516 OFFCURVE",
"32 398 OFFCURVE",
"32 237 CURVE SMOOTH",
"32 83 OFFCURVE",
"114 -16 OFFCURVE",
"234 -16 CURVE SMOOTH"
);
},
{
closed = 1;
nodes = (
"209 75 OFFCURVE",
"179 167 OFFCURVE",
"179 252 CURVE SMOOTH",
"179 346 OFFCURVE",
"206 440 OFFCURVE",
"298 442 CURVE SMOOTH",
"326 442 OFFCURVE",
"355 433 OFFCURVE",
"369 423 CURVE",
"369 183 LINE",
"369 163 OFFCURVE",
"369 143 OFFCURVE",
"369 123 CURVE",
"351 95 OFFCURVE",
"320 75 OFFCURVE",
"286 75 CURVE SMOOTH"
);
}
);
width = 596;
}
);
leftKerningGroup = o;
rightKerningGroup = d;
unicode = 0064;
},
{
color = 4;
glyphname = eth;
layers = (
{
layerId = UUID0;
paths = (
{
closed = 1;
nodes = (
"429 -16 OFFCURVE",
"503 114 OFFCURVE",
"502 272 CURVE SMOOTH",
"501 458 OFFCURVE",
"419 629 OFFCURVE",
"276 710 CURVE",
"320 766 LINE",
"291 793 LINE",
"237 729 LINE",
"197 746 OFFCURVE",
"155 757 OFFCURVE",
"107 760 CURVE",
"103 718 LINE",
"140 715 OFFCURVE",
"174 705 OFFCURVE",
"204 691 CURVE",
"146 622 LINE",
"182 592 LINE",
"243 669 LINE",
"333 610 OFFCURVE",
"385 510 OFFCURVE",
"405 430 CURVE",
"403 430 LINE",
"371 481 OFFCURVE",
"307 498 OFFCURVE",
"257 496 CURVE SMOOTH",
"123 491 OFFCURVE",
"43 364 OFFCURVE",
"43 222 CURVE SMOOTH",
"43 74 OFFCURVE",
"139 -16 OFFCURVE",
"259 -16 CURVE SMOOTH"
);
},
{
closed = 1;
nodes = (
"200 24 OFFCURVE",
"143 101 OFFCURVE",
"143 243 CURVE SMOOTH",
"143 359 OFFCURVE",
"193 459 OFFCURVE",
"283 455 CURVE SMOOTH",
"384 450 OFFCURVE",
"414 322 OFFCURVE",
"413 229 CURVE SMOOTH",
"412 93 OFFCURVE",
"348 24 OFFCURVE",
"275 24 CURVE SMOOTH"
);
}
);
width = 559;
},
{
layerId = "4C2B4986-1645-43C1-94B7-5E4C57EFF0D9";
paths = (
{
closed = 1;
nodes = (
"419 -16 OFFCURVE",
"496 114 OFFCURVE",
"496 270 CURVE SMOOTH",
"496 454 OFFCURVE",
"413 605 OFFCURVE",
"291 688 CURVE",
"333 738 LINE",
"275 790 LINE",
"224 723 LINE",
"193 738 OFFCURVE",
"148 754 OFFCURVE",
"89 760 CURVE",
"75 687 LINE",
"110 680 OFFCURVE",
"142 669 OFFCURVE",
"167 655 CURVE",
"118 598 LINE",
"178 544 LINE",
"236 615 LINE",
"278 587 OFFCURVE",
"336 520 OFFCURVE",
"350 467 CURVE",
"349 467 LINE",
"321 491 OFFCURVE",
"284 496 OFFCURVE",
"261 496 CURVE SMOOTH",
"105 496 OFFCURVE",
"30 355 OFFCURVE",
"33 225 CURVE SMOOTH",
"36 70 OFFCURVE",
"132 -16 OFFCURVE",
"262 -16 CURVE SMOOTH"
);
},
{
closed = 1;
nodes = (
"215 69 OFFCURVE",
"171 134 OFFCURVE",
"171 247 CURVE SMOOTH",
"171 336 OFFCURVE",
"207 417 OFFCURVE",
"269 417 CURVE SMOOTH",
"342 418 OFFCURVE",
"367 317 OFFCURVE",
"367 239 CURVE SMOOTH",
"367 127 OFFCURVE",
"323 69 OFFCURVE",
"269 69 CURVE SMOOTH"
);
}
);
width = 542;
}
);
unicode = 00F0;
},
{
color = 4;
glyphname = dcaron;
layers = (
{
layerId = UUID0;
paths = (
{
closed = 1;
nodes = (
"324 -16 OFFCURVE",
"380 11 OFFCURVE",
"418 52 CURVE",
"419 36 OFFCURVE",
"421 20 OFFCURVE",
"425 0 CURVE",
"568 0 LINE",
"568 42 LINE",
"544 41 OFFCURVE",
"521 39 OFFCURVE",
"497 38 CURVE",
"500 65 OFFCURVE",
"501 85 OFFCURVE",
"501 106 CURVE SMOOTH",
"501 755 LINE",
"472 755 LINE",
"457 741 OFFCURVE",
"436 728 OFFCURVE",
"348 728 CURVE",
"348 686 LINE",
"372 687 OFFCURVE",
"395 689 OFFCURVE",
"419 690 CURVE",
"416 663 OFFCURVE",
"416 646 OFFCURVE",
"416 625 CURVE SMOOTH",
"416 488 LINE",
"390 502 OFFCURVE",
"343 516 OFFCURVE",
"299 516 CURVE SMOOTH",
"150 516 OFFCURVE",
"42 399 OFFCURVE",
"42 236 CURVE SMOOTH",
"42 81 OFFCURVE",
"135 -16 OFFCURVE",
"258 -16 CURVE SMOOTH"
);
},
{
closed = 1;
nodes = (
"200 33 OFFCURVE",
"149 122 OFFCURVE",
"145 245 CURVE SMOOTH",
"140 384 OFFCURVE",
"205 477 OFFCURVE",
"305 477 CURVE SMOOTH",
"345 477 OFFCURVE",
"384 466 OFFCURVE",
"416 442 CURVE",
"415 154 LINE SMOOTH",
"415 133 OFFCURVE",
"415 115 OFFCURVE",
"416 99 CURVE",
"386 61 OFFCURVE",
"338 33 OFFCURVE",
"294 33 CURVE SMOOTH"
);
},
{
closed = 1;
nodes = (
"632 596 OFFCURVE",
"667 649 OFFCURVE",
"672 702 CURVE SMOOTH",
"675 726 OFFCURVE",
"672 739 OFFCURVE",
"661 762 CURVE",
"592 775 LINE",
"607 716 OFFCURVE",
"608 658 OFFCURVE",
"564 574 CURVE",
"590 554 LINE"
);
}
);
width = 663;
},
{
layerId = "4C2B4986-1645-43C1-94B7-5E4C57EFF0D9";
paths = (
{
closed = 1;
nodes = (
"284 -16 OFFCURVE",
"331 0 OFFCURVE",
"375 46 CURVE",
"377 31 OFFCURVE",
"379 15 OFFCURVE",
"381 0 CURVE",
"571 0 LINE",
"571 76 LINE",
"557 76 OFFCURVE",
"528 75 OFFCURVE",
"506 73 CURVE",
"509 103 OFFCURVE",
"510 142 OFFCURVE",
"510 161 CURVE SMOOTH",
"510 755 LINE",
"456 755 LINE",
"442 742 OFFCURVE",
"395 725 OFFCURVE",
"302 725 CURVE",
"302 649 LINE",
"316 649 OFFCURVE",
"351 650 OFFCURVE",
"373 652 CURVE",
"370 622 OFFCURVE",
"369 583 OFFCURVE",
"369 564 CURVE SMOOTH",
"369 498 LINE",
"344 507 OFFCURVE",
"316 516 OFFCURVE",
"280 516 CURVE SMOOTH",
"131 516 OFFCURVE",
"32 398 OFFCURVE",
"32 237 CURVE SMOOTH",
"32 83 OFFCURVE",
"114 -16 OFFCURVE",
"234 -16 CURVE SMOOTH"
);
},
{
closed = 1;
nodes = (
"209 75 OFFCURVE",
"179 167 OFFCURVE",
"179 252 CURVE SMOOTH",
"179 346 OFFCURVE",
"206 440 OFFCURVE",
"298 442 CURVE SMOOTH",
"326 442 OFFCURVE",
"355 433 OFFCURVE",
"369 423 CURVE",
"369 183 LINE",
"369 163 OFFCURVE",
"369 143 OFFCURVE",
"369 123 CURVE",
"351 95 OFFCURVE",
"320 75 OFFCURVE",
"286 75 CURVE SMOOTH"
);
},
{
closed = 1;
nodes = (
"656 587 OFFCURVE",
"696 645 OFFCURVE",
"701 701 CURVE SMOOTH",
"704 727 OFFCURVE",
"701 742 OFFCURVE",
"688 768 CURVE",
"599 785 LINE",
"616 721 OFFCURVE",
"621 662 OFFCURVE",
"572 572 CURVE",
"611 543 LINE"
);
}
);
width = 692;
}
);
leftKerningGroup = o;
rightKerningGroup = d;
unicode = 010F;
userData = {
public.markColor = "0.75,0.75,0.75,1";
};
},
{
color = 4;
glyphname = dcroat;
layers = (
{
background = {
anchors = (
{
name = center;
position = "{299, 250}";
},
{
name = topright;
position = "{588, 500}";
}
);
paths = (
{
closed = 1;
nodes = (
"324 -16 OFFCURVE",
"380 11 OFFCURVE",
"418 52 CURVE",
"419 36 OFFCURVE",
"421 20 OFFCURVE",
"425 0 CURVE",
"568 0 LINE",
"568 42 LINE",
"544 41 OFFCURVE",
"521 39 OFFCURVE",
"497 38 CURVE",
"500 65 OFFCURVE",
"501 85 OFFCURVE",
"501 106 CURVE SMOOTH",
"501 755 LINE",
"472 755 LINE",
"457 741 OFFCURVE",
"436 728 OFFCURVE",
"348 728 CURVE",
"348 686 LINE",
"372 687 OFFCURVE",
"395 689 OFFCURVE",
"419 690 CURVE",
"416 663 OFFCURVE",
"416 646 OFFCURVE",
"416 625 CURVE SMOOTH",
"416 488 LINE",
"390 502 OFFCURVE",
"343 516 OFFCURVE",
"299 516 CURVE SMOOTH",
"150 516 OFFCURVE",
"42 399 OFFCURVE",
"42 236 CURVE SMOOTH",
"42 81 OFFCURVE",
"135 -16 OFFCURVE",
"258 -16 CURVE SMOOTH"
);
},
{
closed = 1;
nodes = (
"200 33 OFFCURVE",
"149 122 OFFCURVE",
"145 245 CURVE SMOOTH",
"140 384 OFFCURVE",
"205 477 OFFCURVE",
"305 477 CURVE SMOOTH",
"345 477 OFFCURVE",
"384 466 OFFCURVE",
"416 442 CURVE",
"415 154 LINE SMOOTH",
"415 133 OFFCURVE",
"415 115 OFFCURVE",
"416 99 CURVE",
"386 61 OFFCURVE",
"338 33 OFFCURVE",
"294 33 CURVE SMOOTH"
);
}
);
};
layerId = UUID0;
paths = (
{
closed = 1;
nodes = (
"324 -16 OFFCURVE",
"380 11 OFFCURVE",
"418 52 CURVE",
"419 36 OFFCURVE",
"421 20 OFFCURVE",
"425 0 CURVE",
"568 0 LINE",
"568 42 LINE",
"544 41 OFFCURVE",
"521 39 OFFCURVE",
"497 38 CURVE",
"500 65 OFFCURVE",
"501 85 OFFCURVE",
"501 106 CURVE SMOOTH",
"501 755 LINE",
"472 755 LINE",
"457 741 OFFCURVE",
"436 728 OFFCURVE",
"348 728 CURVE",
"348 686 LINE",
"372 687 OFFCURVE",
"395 689 OFFCURVE",
"419 690 CURVE",
"416 663 OFFCURVE",
"416 646 OFFCURVE",
"416 625 CURVE SMOOTH",
"416 488 LINE",
"390 502 OFFCURVE",
"343 516 OFFCURVE",
"299 516 CURVE SMOOTH",
"150 516 OFFCURVE",
"42 399 OFFCURVE",
"42 236 CURVE SMOOTH",
"42 81 OFFCURVE",
"135 -16 OFFCURVE",
"258 -16 CURVE SMOOTH"
);
},
{
closed = 1;
nodes = (
"200 33 OFFCURVE",
"149 122 OFFCURVE",
"145 245 CURVE SMOOTH",
"140 384 OFFCURVE",
"205 477 OFFCURVE",
"305 477 CURVE SMOOTH",
"345 477 OFFCURVE",
"384 466 OFFCURVE",
"416 442 CURVE",
"415 154 LINE SMOOTH",
"415 133 OFFCURVE",
"415 115 OFFCURVE",
"416 99 CURVE",
"386 61 OFFCURVE",
"338 33 OFFCURVE",
"294 33 CURVE SMOOTH"
);
},
{
closed = 1;
nodes = (
"579 586 LINE",
"579 628 LINE",
"255 628 LINE",
"255 583 LINE"
);
}
);
width = 598;
},
{
background = {
components = (
{
name = d;
}
);
paths = (
{
closed = 1;
nodes = (
"255 583 LINE",
"579 586 LINE",
"579 628 LINE",
"255 628 LINE"
);
},
{
closed = 1;
nodes = (
"586 527 LINE",
"586 601 LINE",
"205 601 LINE",
"205 523 LINE"
);
}
);
};
layerId = "4C2B4986-1645-43C1-94B7-5E4C57EFF0D9";
paths = (
{
closed = 1;
nodes = (
"284 -16 OFFCURVE",
"331 0 OFFCURVE",
"375 46 CURVE",
"378 31 OFFCURVE",
"379 15 OFFCURVE",
"381 0 CURVE",
"571 0 LINE",
"571 76 LINE",
"557 76 OFFCURVE",
"528 75 OFFCURVE",
"506 73 CURVE",
"509 103 OFFCURVE",
"510 142 OFFCURVE",
"510 161 CURVE SMOOTH",
"510 755 LINE",
"456 755 LINE",
"442 742 OFFCURVE",
"395 725 OFFCURVE",
"302 725 CURVE",
"302 649 LINE",
"316 649 OFFCURVE",
"351 650 OFFCURVE",
"373 652 CURVE",
"370 622 OFFCURVE",
"369 583 OFFCURVE",
"369 564 CURVE SMOOTH",
"369 449 LINE",
"344 458 OFFCURVE",
"316 467 OFFCURVE",
"280 467 CURVE SMOOTH",
"131 467 OFFCURVE",
"32 357 OFFCURVE",
"32 208 CURVE SMOOTH",
"32 83 OFFCURVE",
"114 -16 OFFCURVE",
"234 -16 CURVE SMOOTH"
);
},
{
closed = 1;
nodes = (
"209 75 OFFCURVE",
"179 137 OFFCURVE",
"179 223 CURVE SMOOTH",
"179 313 OFFCURVE",
"216 393 OFFCURVE",
"298 393 CURVE SMOOTH",
"326 393 OFFCURVE",
"355 384 OFFCURVE",
"369 375 CURVE",
"369 203 LINE",
"369 176 OFFCURVE",
"369 150 OFFCURVE",
"369 123 CURVE",
"351 95 OFFCURVE",
"320 75 OFFCURVE",
"286 75 CURVE SMOOTH"
);
},
{
closed = 1;
nodes = (
"586 527 LINE",
"586 601 LINE",
"205 601 LINE",
"205 523 LINE"
);
}
);
width = 596;
}
);
leftKerningGroup = o;
rightKerningGroup = d;
unicode = 0111;
userData = {
public.markColor = "0.75,0.75,0.75,1";
};
},
{
color = 4;
glyphname = e;
layers = (
{
anchors = (
{
name = bottom;
position = "{325, 0}";
},
{
name = ogonek;
position = "{389, 5}";
},
{
name = top;
position = "{280, 500}";
}
);
layerId = UUID0;
paths = (
{
closed = 1;
nodes = (
"354 -16 OFFCURVE",
"448 15 OFFCURVE",
"503 98 CURVE",
"479 118 LINE",
"445 71 OFFCURVE",
"372 35 OFFCURVE",
"310 35 CURVE SMOOTH",
"193 35 OFFCURVE",
"144 136 OFFCURVE",
"145 289 CURVE",
"497 295 LINE",
"497 444 OFFCURVE",
"405 516 OFFCURVE",
"294 516 CURVE SMOOTH",
"143 516 OFFCURVE",
"42 389 OFFCURVE",
"42 249 CURVE SMOOTH",
"42 87 OFFCURVE",
"148 -16 OFFCURVE",
"286 -16 CURVE SMOOTH"
);
},
{
closed = 1;
nodes = (
"164 434 OFFCURVE",
"217 477 OFFCURVE",
"295 477 CURVE SMOOTH",
"373 477 OFFCURVE",
"403 402 OFFCURVE",
"403 331 CURVE",
"148 331 LINE"
);
}
);
width = 542;
},
{
anchors = (
{
name = bottom;
position = "{337, 0}";
},
{
name = ogonek;
position = "{394, 5}";
},
{
name = top;
position = "{284, 500}";
}
);
layerId = "4C2B4986-1645-43C1-94B7-5E4C57EFF0D9";
paths = (
{
closed = 1;
nodes = (
"346 -16 OFFCURVE",
"439 3 OFFCURVE",
"511 106 CURVE",
"466 148 LINE",
"420 92 OFFCURVE",
"359 73 OFFCURVE",
"319 73 CURVE SMOOTH",
"215 73 OFFCURVE",
"178 154 OFFCURVE",
"178 263 CURVE",
"506 269 LINE",
"508 462 OFFCURVE",
"392 516 OFFCURVE",
"281 516 CURVE SMOOTH",
"130 516 OFFCURVE",
"31 389 OFFCURVE",
"31 249 CURVE SMOOTH",
"31 87 OFFCURVE",
"131 -16 OFFCURVE",
"278 -16 CURVE SMOOTH"
);
},
{
closed = 1;
nodes = (
"194 400 OFFCURVE",
"227 446 OFFCURVE",
"286 446 CURVE SMOOTH",
"333 446 OFFCURVE",
"366 416 OFFCURVE",
"368 333 CURVE",
"184 333 LINE"
);
}
);
width = 538;
}
);
leftKerningGroup = o;
rightKerningGroup = e;
unicode = 0065;
},
{
color = 7;
glyphname = schwa;
layers = (
{
background = {
anchors = (
{
name = bottom;
position = "{262, 0}";
},
{
name = ogonek;
position = "{153, 495}";
},
{
name = top;
position = "{217, 500}";
}
);
paths = (
{
closed = 1;
nodes = (
"399 -16 OFFCURVE",
"500 111 OFFCURVE",
"500 251 CURVE SMOOTH",
"500 413 OFFCURVE",
"394 516 OFFCURVE",
"256 516 CURVE SMOOTH",
"188 516 OFFCURVE",
"94 485 OFFCURVE",
"39 402 CURVE",
"63 382 LINE",
"97 429 OFFCURVE",
"170 465 OFFCURVE",
"232 465 CURVE SMOOTH",
"349 465 OFFCURVE",
"398 364 OFFCURVE",
"397 211 CURVE",
"45 205 LINE",
"45 56 OFFCURVE",
"137 -16 OFFCURVE",
"248 -16 CURVE SMOOTH"
);
},
{
closed = 1;
nodes = (
"169 23 OFFCURVE",
"139 98 OFFCURVE",
"139 169 CURVE",
"394 169 LINE",
"378 66 OFFCURVE",
"325 23 OFFCURVE",
"247 23 CURVE SMOOTH"
);
}
);
};
layerId = UUID0;
paths = (
{
closed = 1;
nodes = (
"399 -16 OFFCURVE",
"500 108 OFFCURVE",
"500 259 CURVE SMOOTH",
"500 410 OFFCURVE",
"395 516 OFFCURVE",
"268 516 CURVE SMOOTH",
"200 516 OFFCURVE",
"114 485 OFFCURVE",
"59 402 CURVE",
"83 382 LINE",
"117 429 OFFCURVE",
"182 465 OFFCURVE",
"244 465 CURVE SMOOTH",
"347 465 OFFCURVE",
"398 364 OFFCURVE",
"397 211 CURVE",
"45 205 LINE",
"45 56 OFFCURVE",
"137 -16 OFFCURVE",
"251 -16 CURVE SMOOTH"
);
},
{
closed = 1;
nodes = (
"169 23 OFFCURVE",
"139 98 OFFCURVE",
"139 169 CURVE",
"394 169 LINE",
"378 66 OFFCURVE",
"325 23 OFFCURVE",
"257 23 CURVE SMOOTH"
);
}
);
width = 542;
},
{
background = {
anchors = (
{
name = bottom;
position = "{254, 0}";
},
{
name = ogonek;
position = "{144, 495}";
},
{
name = top;
position = "{201, 500}";
}
);
paths = (
{
closed = 1;
nodes = (
"408 -16 OFFCURVE",
"507 111 OFFCURVE",
"507 251 CURVE SMOOTH",
"507 413 OFFCURVE",
"407 516 OFFCURVE",
"260 516 CURVE SMOOTH",
"192 516 OFFCURVE",
"99 497 OFFCURVE",
"27 394 CURVE",
"72 352 LINE",
"118 408 OFFCURVE",
"179 427 OFFCURVE",
"219 427 CURVE SMOOTH",
"323 427 OFFCURVE",
"360 346 OFFCURVE",
"360 237 CURVE",
"32 231 LINE",
"30 38 OFFCURVE",
"146 -16 OFFCURVE",
"257 -16 CURVE SMOOTH"
);
},
{
closed = 1;
nodes = (
"205 54 OFFCURVE",
"172 84 OFFCURVE",
"170 167 CURVE",
"354 167 LINE",
"344 100 OFFCURVE",
"311 54 OFFCURVE",
"252 54 CURVE SMOOTH"
);
}
);
};
layerId = "4C2B4986-1645-43C1-94B7-5E4C57EFF0D9";
paths = (
{
closed = 1;
nodes = (
"408 -16 OFFCURVE",
"507 111 OFFCURVE",
"507 263 CURVE SMOOTH",
"507 413 OFFCURVE",
"411 516 OFFCURVE",
"265 516 CURVE SMOOTH",
"202 516 OFFCURVE",
"109 497 OFFCURVE",
"37 394 CURVE",
"82 352 LINE",
"128 408 OFFCURVE",
"189 427 OFFCURVE",
"234 427 CURVE SMOOTH",
"326 427 OFFCURVE",
"360 346 OFFCURVE",
"360 237 CURVE",
"32 231 LINE",
"30 38 OFFCURVE",
"146 -16 OFFCURVE",
"249 -16 CURVE SMOOTH"
);
},
{
closed = 1;
nodes = (
"205 54 OFFCURVE",
"172 84 OFFCURVE",
"170 167 CURVE",
"354 167 LINE",
"344 100 OFFCURVE",
"311 54 OFFCURVE",
"252 54 CURVE SMOOTH"
);
}
);
width = 538;
}
);
unicode = 0259;
},
{
color = 7;
glyphname = ezh;
layers = (
{
anchors = (
{
name = bottom;
position = "{242, -255}";
},
{
name = top;
position = "{242, 500}";
}
);
background = {
paths = (
{
closed = 1;
nodes = (
"374 -271 OFFCURVE",
"481 -179 OFFCURVE",
"481 -32 CURVE SMOOTH",
"481 103 OFFCURVE",
"397 196 OFFCURVE",
"272 196 CURVE",
"256 211 LINE",
"138 192 LINE",
"138 120 LINE",
"153 121 OFFCURVE",
"185 123 OFFCURVE",
"224 123 CURVE SMOOTH",
"297 123 OFFCURVE",
"332 53 OFFCURVE",
"332 -31 CURVE SMOOTH",
"332 -145 OFFCURVE",
"282 -200 OFFCURVE",
"228 -200 CURVE SMOOTH",
"184 -200 OFFCURVE",
"149 -182 OFFCURVE",
"135 -153 CURVE",
"146 -139 OFFCURVE",
"151 -125 OFFCURVE",
"151 -112 CURVE SMOOTH",
"151 -86 OFFCURVE",
"134 -47 OFFCURVE",
"88 -48 CURVE SMOOTH",
"46 -49 OFFCURVE",
"20 -84 OFFCURVE",
"20 -125 CURVE SMOOTH",
"20 -193 OFFCURVE",
"95 -271 OFFCURVE",
"226 -271 CURVE SMOOTH"
);
},
{
closed = 1;
nodes = (
"287 196 OFFCURVE",
"310 212 OFFCURVE",
"327 235 CURVE SMOOTH",
"476 437 LINE",
"476 500 LINE",
"61 500 LINE",
"47 307 LINE",
"109 307 LINE",
"119 376 OFFCURVE",
"138 433 OFFCURVE",
"184 433 CURVE SMOOTH",
"323 433 LINE",
"323 432 LINE",
"307 417 OFFCURVE",
"289 399 OFFCURVE",
"272 375 CURVE SMOOTH",
"138 192 LINE",
"256 183 LINE"
);
}
);
};
components = (
{
name = "dzeabkhasian-cy";
}
);
layerId = UUID0;
width = 483;
},
{
anchors = (
{
name = bottom;
position = "{251, -275}";
},
{
name = top;
position = "{262, 500}";
}
);
background = {
paths = (
{
closed = 1;
nodes = (
"349 -256 OFFCURVE",
"440 -150 OFFCURVE",
"440 -12 CURVE SMOOTH",
"440 119 OFFCURVE",
"378 222 OFFCURVE",
"208 222 CURVE",
"208 183 LINE",
"298 185 OFFCURVE",
"344 133 OFFCURVE",
"344 -6 CURVE SMOOTH",
"344 -133 OFFCURVE",
"288 -221 OFFCURVE",
"212 -221 CURVE SMOOTH",
"162 -221 OFFCURVE",
"123 -208 OFFCURVE",
"101 -171 CURVE",
"116 -156 OFFCURVE",
"123 -141 OFFCURVE",
"123 -125 CURVE SMOOTH",
"123 -101 OFFCURVE",
"106 -79 OFFCURVE",
"76 -80 CURVE SMOOTH",
"46 -81 OFFCURVE",
"30 -104 OFFCURVE",
"30 -133 CURVE SMOOTH",
"30 -191 OFFCURVE",
"92 -256 OFFCURVE",
"212 -256 CURVE SMOOTH"
);
},
{
closed = 1;
nodes = (
"57 500 LINE",
"45 321 LINE",
"76 321 LINE",
"87 408 OFFCURVE",
"113 461 OFFCURVE",
"178 462 CURVE SMOOTH",
"356 465 LINE",
"343 457 OFFCURVE",
"318 426 OFFCURVE",
"299 400 CURVE SMOOTH",
"173 224 LINE",
"173 183 LINE",
"209 183 LINE",
"234 204 OFFCURVE",
"257 216 OFFCURVE",
"274 240 CURVE SMOOTH",
"439 468 LINE",
"439 500 LINE"
);
}
);
};
components = (
{
name = "dzeabkhasian-cy";
}
);
guideLines = (
{
position = "{242, 433}";
}
);
layerId = "4C2B4986-1645-43C1-94B7-5E4C57EFF0D9";
width = 524;
}
);
unicode = 0292;
},
{
color = 4;
glyphname = f;
layers = (
{
layerId = UUID0;
paths = (
{
closed = 1;
nodes = (
"107 500 LINE",
"25 500 LINE",
"25 455 LINE",
"107 457 LINE",
"108 152 LINE SMOOTH",
"108 80 OFFCURVE",
"110 30 OFFCURVE",
"49 30 CURVE",
"49 0 LINE",
"253 0 LINE",
"253 41 LINE",
"232 40 OFFCURVE",
"211 39 OFFCURVE",
"190 38 CURVE",
"194 61 OFFCURVE",
"194 79 OFFCURVE",
"194 106 CURVE SMOOTH",
"193 458 LINE",
"328 461 LINE",
"328 500 LINE",
"193 500 LINE",
"193 605 LINE SMOOTH",
"193 662 OFFCURVE",
"210 724 OFFCURVE",
"272 724 CURVE SMOOTH",
"286 724 OFFCURVE",
"305 719 OFFCURVE",
"315 707 CURVE",
"311 698 OFFCURVE",
"310 690 OFFCURVE",
"310 682 CURVE SMOOTH",
"310 667 OFFCURVE",
"321 640 OFFCURVE",
"353 641 CURVE SMOOTH",
"379 641 OFFCURVE",
"394 661 OFFCURVE",
"394 686 CURVE SMOOTH",
"394 738 OFFCURVE",
"330 760 OFFCURVE",
"287 760 CURVE SMOOTH",
"155 760 OFFCURVE",
"107 669 OFFCURVE",
"107 521 CURVE SMOOTH"
);
}
);
width = 338;
},
{
layerId = "4C2B4986-1645-43C1-94B7-5E4C57EFF0D9";
paths = (
{
closed = 1;
nodes = (
"103 500 LINE",
"30 500 LINE",
"30 417 LINE",
"103 418 LINE",
"103 154 LINE SMOOTH",
"103 101 OFFCURVE",
"99 65 OFFCURVE",
"43 65 CURVE",
"43 0 LINE",
"310 0 LINE",
"310 76 LINE",
"296 76 OFFCURVE",
"262 75 OFFCURVE",
"240 73 CURVE",
"243 103 OFFCURVE",
"244 144 OFFCURVE",
"244 163 CURVE SMOOTH",
"243 420 LINE",
"354 423 LINE",
"354 500 LINE",
"242 500 LINE",
"242 623 LINE SMOOTH",
"242 652 OFFCURVE",
"249 684 OFFCURVE",
"282 685 CURVE SMOOTH",
"288 685 OFFCURVE",
"298 684 OFFCURVE",
"305 677 CURVE",
"303 670 OFFCURVE",
"303 664 OFFCURVE",
"303 657 CURVE SMOOTH",
"303 623 OFFCURVE",
"325 599 OFFCURVE",
"364 600 CURVE SMOOTH",
"404 601 OFFCURVE",
"426 632 OFFCURVE",
"426 667 CURVE SMOOTH",
"426 708 OFFCURVE",
"393 755 OFFCURVE",
"299 755 CURVE SMOOTH",
"179 755 OFFCURVE",
"103 690 OFFCURVE",
"103 529 CURVE SMOOTH"
);
}
);
width = 369;
}
);
leftKerningGroup = f;
rightKerningGroup = f;
unicode = 0066;
},
{
color = 4;
glyphname = g;
layers = (
{
anchors = (
{
name = top;
position = "{264, 500}";
}
);
layerId = UUID0;
paths = (
{
closed = 1;
nodes = (
"403 -271 OFFCURVE",
"530 -212 OFFCURVE",
"530 -104 CURVE SMOOTH",
"530 4 OFFCURVE",
"438 39 OFFCURVE",
"284 46 CURVE SMOOTH",
"192 50 OFFCURVE",
"135 54 OFFCURVE",
"125 86 CURVE SMOOTH",
"115 119 OFFCURVE",
"152 147 OFFCURVE",
"201 147 CURVE SMOOTH",
"227 147 OFFCURVE",
"243 142 OFFCURVE",
"268 142 CURVE SMOOTH",
"380 142 OFFCURVE",
"479 222 OFFCURVE",
"479 335 CURVE SMOOTH",
"479 381 OFFCURVE",
"458 424 OFFCURVE",
"426 454 CURVE",
"433 484 OFFCURVE",
"450 515 OFFCURVE",
"484 520 CURVE",
"488 500 OFFCURVE",
"503 485 OFFCURVE",
"526 485 CURVE SMOOTH",
"558 484 OFFCURVE",
"569 511 OFFCURVE",
"569 526 CURVE SMOOTH",
"569 557 OFFCURVE",
"550 576 OFFCURVE",
"516 576 CURVE SMOOTH",
"463 576 OFFCURVE",
"415 535 OFFCURVE",
"395 479 CURVE",
"357 503 OFFCURVE",
"312 516 OFFCURVE",
"268 516 CURVE SMOOTH",
"164 516 OFFCURVE",
"57 438 OFFCURVE",
"57 318 CURVE SMOOTH",
"57 249 OFFCURVE",
"97 195 OFFCURVE",
"158 166 CURVE",
"99 156 OFFCURVE",
"58 110 OFFCURVE",
"58 63 CURVE SMOOTH",
"58 21 OFFCURVE",
"84 -2 OFFCURVE",
"127 -16 CURVE",
"87 -33 OFFCURVE",
"35 -75 OFFCURVE",
"35 -136 CURVE SMOOTH",
"35 -202 OFFCURVE",
"104 -271 OFFCURVE",
"285 -271 CURVE SMOOTH"
);
},
{
closed = 1;
nodes = (
"181 -232 OFFCURVE",
"114 -190 OFFCURVE",
"114 -124 CURVE SMOOTH",
"114 -85 OFFCURVE",
"135 -49 OFFCURVE",
"171 -25 CURVE",
"203 -30 OFFCURVE",
"238 -32 OFFCURVE",
"274 -33 CURVE SMOOTH",
"385 -36 OFFCURVE",
"466 -51 OFFCURVE",
"466 -125 CURVE SMOOTH",
"466 -182 OFFCURVE",
"398 -232 OFFCURVE",
"284 -232 CURVE SMOOTH"
);
},
{
closed = 1;
nodes = (
"196 178 OFFCURVE",
"153 244 OFFCURVE",
"153 340 CURVE SMOOTH",
"153 420 OFFCURVE",
"194 481 OFFCURVE",
"266 481 CURVE SMOOTH",
"343 481 OFFCURVE",
"382 403 OFFCURVE",
"382 315 CURVE SMOOTH",
"382 237 OFFCURVE",
"345 178 OFFCURVE",
"271 178 CURVE SMOOTH"
);
}
);
width = 553;
},
{
anchors = (
{
name = top;
position = "{263, 500}";
}
);
layerId = "4C2B4986-1645-43C1-94B7-5E4C57EFF0D9";
paths = (
{
closed = 1;
nodes = (
"389 -271 OFFCURVE",
"539 -209 OFFCURVE",
"539 -95 CURVE SMOOTH",
"539 21 OFFCURVE",
"436 55 OFFCURVE",
"283 64 CURVE SMOOTH",
"189 69 OFFCURVE",
"155 76 OFFCURVE",
"155 101 CURVE SMOOTH",
"155 120 OFFCURVE",
"178 131 OFFCURVE",
"207 131 CURVE SMOOTH",
"227 131 OFFCURVE",
"249 128 OFFCURVE",
"267 128 CURVE SMOOTH",
"384 128 OFFCURVE",
"494 210 OFFCURVE",
"494 326 CURVE SMOOTH",
"494 376 OFFCURVE",
"473 422 OFFCURVE",
"435 455 CURVE",
"438 477 OFFCURVE",
"458 515 OFFCURVE",
"476 520 CURVE",
"480 498 OFFCURVE",
"504 481 OFFCURVE",
"524 481 CURVE SMOOTH",
"572 480 OFFCURVE",
"586 518 OFFCURVE",
"586 542 CURVE SMOOTH",
"586 581 OFFCURVE",
"562 606 OFFCURVE",
"517 606 CURVE SMOOTH",
"454 606 OFFCURVE",
"412 546 OFFCURVE",
"390 485 CURVE",
"357 508 OFFCURVE",
"305 516 OFFCURVE",
"271 516 CURVE SMOOTH",
"156 516 OFFCURVE",
"43 431 OFFCURVE",
"48 311 CURVE SMOOTH",
"50 243 OFFCURVE",
"90 193 OFFCURVE",
"146 171 CURVE",
"73 148 OFFCURVE",
"49 97 OFFCURVE",
"49 63 CURVE SMOOTH",
"49 25 OFFCURVE",
"68 -10 OFFCURVE",
"123 -25 CURVE",
"51 -52 OFFCURVE",
"28 -99 OFFCURVE",
"28 -140 CURVE SMOOTH",
"28 -208 OFFCURVE",
"83 -271 OFFCURVE",
"256 -271 CURVE SMOOTH"
);
},
{
closed = 1;
nodes = (
"201 -202 OFFCURVE",
"148 -167 OFFCURVE",
"151 -113 CURVE SMOOTH",
"152 -90 OFFCURVE",
"163 -64 OFFCURVE",
"183 -48 CURVE",
"212 -53 OFFCURVE",
"255 -54 OFFCURVE",
"285 -56 CURVE SMOOTH",
"382 -60 OFFCURVE",
"429 -81 OFFCURVE",
"429 -122 CURVE SMOOTH",
"429 -159 OFFCURVE",
"379 -202 OFFCURVE",
"285 -202 CURVE SMOOTH"
);
},
{
closed = 1;
nodes = (
"216 195 OFFCURVE",
"186 260 OFFCURVE",
"186 331 CURVE SMOOTH",
"186 392 OFFCURVE",
"217 449 OFFCURVE",
"270 449 CURVE SMOOTH",
"327 449 OFFCURVE",
"354 378 OFFCURVE",
"354 308 CURVE SMOOTH",
"354 253 OFFCURVE",
"325 195 OFFCURVE",
"271 195 CURVE SMOOTH"
);
}
);
width = 557;
}
);
leftKerningGroup = g;
rightKerningGroup = g;
unicode = 0067;
},
{
color = 7;
glyphname = gstroke;
layers = (
{
background = {
anchors = (
{
name = center;
position = "{300, 250}";
},
{
name = top;
position = "{149, 703}";
}
);
paths = (
{
closed = 1;
nodes = (
"11 618 LINE",
"11 575 LINE",
"356 579 LINE",
"356 618 LINE"
);
},
{
closed = 1;
nodes = (
"151 755 LINE",
"136 741 OFFCURVE",
"114 728 OFFCURVE",
"26 728 CURVE",
"26 686 LINE",
"97 690 LINE",
"94 663 OFFCURVE",
"94 646 OFFCURVE",
"94 625 CURVE SMOOTH",
"94 152 LINE SMOOTH",
"94 80 OFFCURVE",
"95 30 OFFCURVE",
"34 30 CURVE",
"34 0 LINE",
"238 0 LINE",
"238 41 LINE",
"175 38 LINE",
"179 61 OFFCURVE",
"180 79 OFFCURVE",
"180 106 CURVE SMOOTH",
"180 401 LINE",
"209 437 OFFCURVE",
"261 462 OFFCURVE",
"310 463 CURVE SMOOTH",
"389 464 OFFCURVE",
"424 406 OFFCURVE",
"424 292 CURVE SMOOTH",
"424 152 LINE SMOOTH",
"424 80 OFFCURVE",
"426 30 OFFCURVE",
"365 30 CURVE",
"365 0 LINE",
"569 0 LINE",
"569 41 LINE",
"506 38 LINE",
"510 61 OFFCURVE",
"510 79 OFFCURVE",
"510 106 CURVE SMOOTH",
"509 292 LINE SMOOTH",
"508 445 OFFCURVE",
"460 516 OFFCURVE",
"344 516 CURVE SMOOTH",
"287 516 OFFCURVE",
"224 487 OFFCURVE",
"180 450 CURVE",
"180 755 LINE"
);
}
);
};
components = (
{
name = "de-cy.loclBGR";
}
);
layerId = UUID0;
paths = (
{
closed = 1;
nodes = (
"562 -91 LINE",
"562 -52 LINE",
"277 -52 LINE",
"277 -95 LINE"
);
}
);
width = 575;
},
{
components = (
{
name = "de-cy.loclBGR";
}
);
layerId = "4C2B4986-1645-43C1-94B7-5E4C57EFF0D9";
paths = (
{
closed = 1;
nodes = (
"561 -111 LINE",
"561 -62 LINE",
"256 -62 LINE",
"256 -115 LINE"
);
}
);
width = 581;
}
);
unicode = 01E5;
},
{
color = 4;
glyphname = h;
layers = (
{
anchors = (
{
name = center;
position = "{300, 250}";
},
{
name = top;
position = "{149, 703}";
}
);
layerId = UUID0;
paths = (
{
closed = 1;
nodes = (
"365 0 LINE",
"569 0 LINE",
"569 41 LINE",
"548 40 OFFCURVE",
"527 39 OFFCURVE",
"506 38 CURVE",
"510 61 OFFCURVE",
"510 79 OFFCURVE",
"510 106 CURVE SMOOTH",
"509 292 LINE SMOOTH",
"508 445 OFFCURVE",
"460 516 OFFCURVE",
"344 516 CURVE SMOOTH",
"287 516 OFFCURVE",
"224 487 OFFCURVE",
"180 450 CURVE",
"180 755 LINE",
"151 755 LINE",
"136 741 OFFCURVE",
"114 728 OFFCURVE",
"26 728 CURVE",
"26 686 LINE",
"50 687 OFFCURVE",
"73 689 OFFCURVE",
"97 690 CURVE",
"94 663 OFFCURVE",
"94 646 OFFCURVE",
"94 625 CURVE SMOOTH",
"94 152 LINE SMOOTH",
"94 80 OFFCURVE",
"95 30 OFFCURVE",
"34 30 CURVE",
"34 0 LINE",
"238 0 LINE",
"238 41 LINE",
"217 40 OFFCURVE",
"196 39 OFFCURVE",
"175 38 CURVE",
"179 61 OFFCURVE",
"180 79 OFFCURVE",
"180 106 CURVE SMOOTH",
"180 401 LINE",
"209 437 OFFCURVE",
"261 462 OFFCURVE",
"310 463 CURVE SMOOTH",
"389 464 OFFCURVE",
"424 406 OFFCURVE",
"424 292 CURVE SMOOTH",
"424 152 LINE SMOOTH",
"424 80 OFFCURVE",
"426 30 OFFCURVE",
"365 30 CURVE"
);
}
);
width = 599;
},
{
anchors = (
{
name = center;
position = "{311, 250}";
},
{
name = top;
position = "{170, 704}";
}
);
layerId = "4C2B4986-1645-43C1-94B7-5E4C57EFF0D9";
paths = (
{
closed = 1;
nodes = (
"339 0 LINE",
"602 0 LINE",
"602 76 LINE",
"587 76 OFFCURVE",
"558 75 OFFCURVE",
"537 73 CURVE",
"540 103 OFFCURVE",
"541 142 OFFCURVE",
"541 161 CURVE SMOOTH",
"541 295 LINE SMOOTH",
"540 449 OFFCURVE",
"494 516 OFFCURVE",
"372 516 CURVE SMOOTH",
"331 516 OFFCURVE",
"265 491 OFFCURVE",
"226 460 CURVE",
"226 755 LINE",
"172 755 LINE",
"158 742 OFFCURVE",
"111 725 OFFCURVE",
"18 725 CURVE",
"18 649 LINE",
"32 650 OFFCURVE",
"67 651 OFFCURVE",
"88 652 CURVE",
"85 623 OFFCURVE",
"84 589 OFFCURVE",
"84 565 CURVE SMOOTH",
"84 154 LINE SMOOTH",
"84 101 OFFCURVE",
"81 65 OFFCURVE",
"25 65 CURVE",
"25 0 LINE",
"287 0 LINE",
"287 76 LINE",
"273 76 OFFCURVE",
"244 75 OFFCURVE",
"222 73 CURVE",
"225 103 OFFCURVE",
"226 142 OFFCURVE",
"226 161 CURVE SMOOTH",
"226 387 LINE",
"248 407 OFFCURVE",
"284 424 OFFCURVE",
"317 424 CURVE SMOOTH",
"373 424 OFFCURVE",
"398 383 OFFCURVE",
"398 296 CURVE SMOOTH",
"399 154 LINE SMOOTH",
"399 101 OFFCURVE",
"395 65 OFFCURVE",
"339 65 CURVE"
);
}
);
width = 621;
}
);
leftKerningGroup = h;
rightKerningGroup = n;
unicode = 0068;
},
{
color = 7;
glyphname = hbar;
layers = (
{
components = (
{
name = h;
}
);
layerId = UUID0;
paths = (
{
closed = 1;
nodes = (
"356 579 LINE",
"356 618 LINE",
"11 618 LINE",
"11 575 LINE"
);
}
);
width = 599;
},
{
components = (
{
name = h;
}
);
layerId = "4C2B4986-1645-43C1-94B7-5E4C57EFF0D9";
paths = (
{
closed = 1;
nodes = (
"357 559 LINE",
"357 608 LINE",
"22 608 LINE",
"22 555 LINE"
);
}
);
width = 621;
}
);
unicode = 0127;
},
{
color = 4;
glyphname = idotless;
layers = (
{
anchors = (
{
name = bottom;
position = "{141, 0}";
},
{
name = ogonek;
position = "{253, 10}";
},
{
name = top;
position = "{141, 500}";
}
);
layerId = UUID0;
paths = (
{
closed = 1;
nodes = (
"44 0 LINE",
"248 0 LINE",
"248 41 LINE",
"227 40 OFFCURVE",
"206 39 OFFCURVE",
"185 38 CURVE",
"189 61 OFFCURVE",
"189 79 OFFCURVE",
"189 106 CURVE SMOOTH",
"189 510 LINE",
"160 510 LINE",
"145 496 OFFCURVE",
"124 483 OFFCURVE",
"36 483 CURVE",
"36 441 LINE",
"60 442 OFFCURVE",
"83 444 OFFCURVE",
"107 445 CURVE",
"104 418 OFFCURVE",
"103 401 OFFCURVE",
"103 380 CURVE SMOOTH",
"103 152 LINE SMOOTH",
"103 80 OFFCURVE",
"105 30 OFFCURVE",
"44 30 CURVE"
);
}
);
width = 281;
},
{
anchors = (
{
name = bottom;
position = "{164, 0}";
},
{
name = ogonek;
position = "{294, 10}";
},
{
name = top;
position = "{164, 500}";
}
);
layerId = "4C2B4986-1645-43C1-94B7-5E4C57EFF0D9";
paths = (
{
closed = 1;
nodes = (
"41 0 LINE",
"303 0 LINE",
"303 76 LINE",
"289 76 OFFCURVE",
"259 75 OFFCURVE",
"238 73 CURVE",
"241 103 OFFCURVE",
"242 142 OFFCURVE",
"242 161 CURVE SMOOTH",
"242 510 LINE",
"188 510 LINE",
"174 497 OFFCURVE",
"126 480 OFFCURVE",
"34 480 CURVE",
"34 404 LINE",
"48 405 OFFCURVE",
"83 406 OFFCURVE",
"104 407 CURVE",
"101 377 OFFCURVE",
"100 344 OFFCURVE",
"100 320 CURVE SMOOTH",
"100 154 LINE SMOOTH",
"100 101 OFFCURVE",
"96 65 OFFCURVE",
"41 65 CURVE"
);
}
);
width = 327;
}
);
leftKerningGroup = i;
rightKerningGroup = i;
unicode = 0131;
},
{
color = 4;
glyphname = icircumflex;
layers = (
{
background = {
anchors = (
{
name = _top;
position = "{126, 500}";
}
);
paths = (
{
closed = 1;
nodes = (
"125 778 LINE",
"-11 619 LINE",
"21 590 LINE",
"121 683 LINE",
"122 683 LINE",
"225 587 LINE",
"253 615 LINE",
"126 778 LINE"
);
}
);
};
components = (
{
name = idotless;
},
{
name = circumflexcomb.i;
transform = "{1, 0, 0, 1, -63, 0}";
}
);
layerId = UUID0;
width = 281;
},
{
background = {
components = (
{
name = circumflex;
transform = "{1, 0, 0, 1, -101, 0}";
}
);
};
components = (
{
name = idotless;
},
{
name = circumflexcomb.i;
transform = "{1, 0, 0, 1, -56, 0}";
}
);
layerId = "4C2B4986-1645-43C1-94B7-5E4C57EFF0D9";
width = 327;
}
);
leftKerningGroup = i;
rightKerningGroup = i;
unicode = 00EE;
},
{
color = 4;
glyphname = j;
layers = (
{
background = {
paths = (
{
closed = 1;
nodes = (
"181 510 LINE",
"152 510 LINE",
"137 496 OFFCURVE",
"115 483 OFFCURVE",
"27 483 CURVE",
"27 441 LINE",
"98 445 LINE",
"95 418 OFFCURVE",
"95 401 OFFCURVE",
"95 380 CURVE SMOOTH",
"93 -86 LINE SMOOTH",
"93 -142 OFFCURVE",
"86 -187 OFFCURVE",
"64 -208 CURVE SMOOTH",
"49 -223 OFFCURVE",
"24 -231 OFFCURVE",
"-2 -219 CURVE",
"-1 -216 OFFCURVE",
"-1 -213 OFFCURVE",
"-1 -210 CURVE SMOOTH",
"-1 -194 OFFCURVE",
"-12 -167 OFFCURVE",
"-45 -168 CURVE SMOOTH",
"-72 -168 OFFCURVE",
"-88 -191 OFFCURVE",
"-88 -215 CURVE SMOOTH",
"-88 -244 OFFCURVE",
"-64 -271 OFFCURVE",
"-9 -271 CURVE SMOOTH",
"99 -271 OFFCURVE",
"181 -190 OFFCURVE",
"181 -3 CURVE SMOOTH"
);
},
{
closed = 1;
nodes = (
"160.76 609.28 OFFCURVE",
"186.52 635.04 OFFCURVE",
"186.52 668.16 CURVE SMOOTH",
"186.52 701.28 OFFCURVE",
"163.52 727.96 OFFCURVE",
"133.16 727.96 CURVE SMOOTH",
"104.64 727.96 OFFCURVE",
"78.88 701.28 OFFCURVE",
"78.88 668.16 CURVE SMOOTH",
"78.88 635.04 OFFCURVE",
"103.72 609.28 OFFCURVE",
"132.24 609.28 CURVE SMOOTH"
);
}
);
};
components = (
{
name = jdotless;
},
{
name = dotaccentcomb;
transform = "{1, 0, 0, 1, 34, 0}";
}
);
layerId = UUID0;
width = 212;
},
{
background = {
paths = (
{
closed = 1;
nodes = (
"232 510 LINE",
"178 510 LINE",
"164 497 OFFCURVE",
"117 480 OFFCURVE",
"24 480 CURVE",
"24 404 LINE",
"38 405 OFFCURVE",
"73 406 OFFCURVE",
"94 407 CURVE",
"91 377 OFFCURVE",
"90 344 OFFCURVE",
"90 320 CURVE SMOOTH",
"93 -126 LINE SMOOTH",
"93 -155 OFFCURVE",
"88 -201 OFFCURVE",
"51 -201 CURVE SMOOTH",
"46 -201 OFFCURVE",
"37 -199 OFFCURVE",
"34 -197 CURVE",
"43 -153 OFFCURVE",
"17 -120 OFFCURVE",
"-25 -121 CURVE SMOOTH",
"-65 -122 OFFCURVE",
"-88 -154 OFFCURVE",
"-88 -189 CURVE SMOOTH",
"-88 -230 OFFCURVE",
"-54 -271 OFFCURVE",
"21 -271 CURVE SMOOTH",
"141 -271 OFFCURVE",
"232 -183 OFFCURVE",
"232 2 CURVE SMOOTH"
);
},
{
closed = 1;
nodes = (
"125 763 OFFCURVE",
"89 726 OFFCURVE",
"89 680 CURVE SMOOTH",
"89 635 OFFCURVE",
"121 599 OFFCURVE",
"167 599 CURVE SMOOTH",
"212 599 OFFCURVE",
"241 635 OFFCURVE",
"241 680 CURVE SMOOTH",
"241 726 OFFCURVE",
"209 763 OFFCURVE",
"166 763 CURVE SMOOTH"
);
}
);
};
components = (
{
name = jdotless;
},
{
name = dotaccentcomb;
transform = "{1, 0, 0, 1, 39, 0}";
}
);
layerId = "4C2B4986-1645-43C1-94B7-5E4C57EFF0D9";
width = 284;
}
);
leftKerningGroup = j;
rightKerningGroup = i;
unicode = 006A;
},
{
color = 4;
glyphname = jdotless;
layers = (
{
anchors = (
{
name = bottom;
position = "{209, -255}";
},
{
name = top;
position = "{133, 500}";
}
);
layerId = UUID0;
paths = (
{
closed = 1;
nodes = (
"99 -271 OFFCURVE",
"181 -190 OFFCURVE",
"181 -3 CURVE SMOOTH",
"181 510 LINE",
"152 510 LINE",
"137 496 OFFCURVE",
"115 483 OFFCURVE",
"27 483 CURVE",
"27 441 LINE",
"51 442 OFFCURVE",
"74 444 OFFCURVE",
"98 445 CURVE",
"95 418 OFFCURVE",
"95 401 OFFCURVE",
"95 380 CURVE SMOOTH",
"93 -86 LINE SMOOTH",
"93 -153 OFFCURVE",
"82 -225 OFFCURVE",
"24 -225 CURVE SMOOTH",
"15 -225 OFFCURVE",
"7 -223 OFFCURVE",
"-2 -219 CURVE",
"-1 -216 OFFCURVE",
"-1 -213 OFFCURVE",
"-1 -210 CURVE SMOOTH",
"-1 -194 OFFCURVE",
"-12 -167 OFFCURVE",
"-45 -168 CURVE SMOOTH",
"-72 -168 OFFCURVE",
"-88 -191 OFFCURVE",
"-88 -215 CURVE SMOOTH",
"-88 -244 OFFCURVE",
"-64 -271 OFFCURVE",
"-9 -271 CURVE SMOOTH"
);
}
);
width = 212;
},
{
anchors = (
{
name = bottom;
position = "{284, -276}";
},
{
name = top;
position = "{159, 500}";
}
);
layerId = "4C2B4986-1645-43C1-94B7-5E4C57EFF0D9";
paths = (
{
closed = 1;
nodes = (
"141 -271 OFFCURVE",
"232 -183 OFFCURVE",
"232 2 CURVE SMOOTH",
"232 510 LINE",
"178 510 LINE",
"164 497 OFFCURVE",
"117 480 OFFCURVE",
"24 480 CURVE",
"24 404 LINE",
"38 405 OFFCURVE",
"73 406 OFFCURVE",
"94 407 CURVE",
"91 377 OFFCURVE",
"90 344 OFFCURVE",
"90 320 CURVE SMOOTH",
"93 -126 LINE SMOOTH",
"93 -155 OFFCURVE",
"88 -201 OFFCURVE",
"51 -201 CURVE SMOOTH",
"46 -201 OFFCURVE",
"37 -199 OFFCURVE",
"34 -197 CURVE",
"35 -191 OFFCURVE",
"36 -185 OFFCURVE",
"36 -180 CURVE SMOOTH",
"36 -145 OFFCURVE",
"11 -120 OFFCURVE",
"-25 -121 CURVE SMOOTH",
"-65 -122 OFFCURVE",
"-88 -154 OFFCURVE",
"-88 -189 CURVE SMOOTH",
"-88 -230 OFFCURVE",
"-54 -271 OFFCURVE",
"21 -271 CURVE SMOOTH"
);
}
);
width = 284;
}
);
unicode = 0237;
},
{
color = 4;
glyphname = k;
layers = (
{
anchors = (
{
name = bottom;
position = "{269, 0}";
},
{
name = top;
position = "{287, 755}";
}
);
layerId = UUID0;
paths = (
{
closed = 1;
nodes = (
"239 0 LINE",
"239 41 LINE",
"218 40 OFFCURVE",
"196 39 OFFCURVE",
"175 38 CURVE",
"179 61 OFFCURVE",
"179 79 OFFCURVE",
"179 106 CURVE SMOOTH",
"179 243 LINE",
"220 245 LINE",
"246 220 OFFCURVE",
"281 166 OFFCURVE",
"333 94 CURVE SMOOTH",
"370 46 OFFCURVE",
"402 0 OFFCURVE",
"439 0 CURVE SMOOTH",
"530 0 LINE",
"530 30 LINE",
"484 30 OFFCURVE",
"421 122 OFFCURVE",
"409 138 CURVE SMOOTH",
"338 229 LINE SMOOTH",
"319 252 OFFCURVE",
"302 271 OFFCURVE",
"276 283 CURVE",
"354 365 LINE SMOOTH",
"390 402 OFFCURVE",
"446 463 OFFCURVE",
"514 470 CURVE",
"514 500 LINE",
"332 500 LINE",
"332 460 LINE",
"400 463 LINE",
"381 451 OFFCURVE",
"363 433 OFFCURVE",
"341 410 CURVE SMOOTH",
"219 282 LINE",
"179 282 LINE",
"179 755 LINE",
"150 755 LINE",
"135 741 OFFCURVE",
"114 728 OFFCURVE",
"26 728 CURVE",
"26 686 LINE",
"50 687 OFFCURVE",
"73 689 OFFCURVE",
"97 690 CURVE",
"94 663 OFFCURVE",
"94 646 OFFCURVE",
"94 625 CURVE SMOOTH",
"93 152 LINE SMOOTH",
"93 80 OFFCURVE",
"96 30 OFFCURVE",
"35 30 CURVE",
"35 0 LINE"
);
}
);
width = 537;
},
{
anchors = (
{
name = bottom;
position = "{338, 0}";
},
{
name = top;
position = "{337, 755}";
}
);
layerId = "4C2B4986-1645-43C1-94B7-5E4C57EFF0D9";
paths = (
{
closed = 1;
nodes = (
"288 0 LINE",
"288 76 LINE",
"273 76 OFFCURVE",
"244 75 OFFCURVE",
"223 73 CURVE",
"226 103 OFFCURVE",
"227 142 OFFCURVE",
"227 161 CURVE SMOOTH",
"227 228 LINE",
"250 229 LINE",
"270 201 OFFCURVE",
"314 135 OFFCURVE",
"350 87 CURVE SMOOTH",
"391 31 OFFCURVE",
"418 0 OFFCURVE",
"461 0 CURVE SMOOTH",
"576 0 LINE",
"576 65 LINE",
"535 65 OFFCURVE",
"500 115 OFFCURVE",
"484 135 CURVE SMOOTH",
"417 223 LINE SMOOTH",
"389 260 OFFCURVE",
"372 275 OFFCURVE",
"352 285 CURVE",
"416 357 LINE SMOOTH",
"444 389 OFFCURVE",
"487 428 OFFCURVE",
"558 436 CURVE",
"558 500 LINE",
"333 500 LINE",
"333 424 LINE",
"386 424 LINE",
"374 413 OFFCURVE",
"364 401 OFFCURVE",
"347 382 CURVE SMOOTH",
"275 299 LINE",
"227 299 LINE",
"227 755 LINE",
"172 755 LINE",
"159 742 OFFCURVE",
"111 725 OFFCURVE",
"19 725 CURVE",
"19 649 LINE",
"33 650 OFFCURVE",
"67 651 OFFCURVE",
"89 652 CURVE",
"86 623 OFFCURVE",
"85 589 OFFCURVE",
"85 565 CURVE SMOOTH",
"85 154 LINE SMOOTH",
"85 101 OFFCURVE",
"81 65 OFFCURVE",
"25 65 CURVE",
"25 0 LINE"
);
}
);
width = 594;
}
);
leftKerningGroup = h;
rightKerningGroup = k;
unicode = 006B;
},
{
color = 4;
glyphname = l;
layers = (
{
anchors = (
{
name = bottom;
position = "{136, 0}";
},
{
name = top;
position = "{136, 702}";
},
{
name = topright;
position = "{262, 500}";
}
);
layerId = UUID0;
paths = (
{
closed = 1;
nodes = (
"34 0 LINE",
"238 0 LINE",
"238 41 LINE",
"217 40 OFFCURVE",
"196 39 OFFCURVE",
"175 38 CURVE",
"179 61 OFFCURVE",
"180 79 OFFCURVE",
"180 106 CURVE SMOOTH",
"179 755 LINE",
"150 755 LINE",
"135 741 OFFCURVE",
"113 728 OFFCURVE",
"25 728 CURVE",
"25 686 LINE",
"49 687 OFFCURVE",
"72 689 OFFCURVE",
"96 690 CURVE",
"93 663 OFFCURVE",
"93 646 OFFCURVE",
"93 625 CURVE SMOOTH",
"93 152 LINE SMOOTH",
"93 80 OFFCURVE",
"95 30 OFFCURVE",
"34 30 CURVE"
);
}
);
width = 272;
},
{
anchors = (
{
name = bottom;
position = "{194, 0}";
},
{
name = top;
position = "{156, 700}";
},
{
name = topright;
position = "{302, 500}";
}
);
layerId = "4C2B4986-1645-43C1-94B7-5E4C57EFF0D9";
paths = (
{
closed = 1;
nodes = (
"25 0 LINE",
"287 0 LINE",
"287 76 LINE",
"273 76 OFFCURVE",
"244 75 OFFCURVE",
"222 73 CURVE",
"225 103 OFFCURVE",
"226 142 OFFCURVE",
"226 161 CURVE SMOOTH",
"226 755 LINE",
"172 755 LINE",
"158 742 OFFCURVE",
"111 725 OFFCURVE",
"18 725 CURVE",
"18 649 LINE",
"32 650 OFFCURVE",
"67 651 OFFCURVE",
"88 652 CURVE",
"85 623 OFFCURVE",
"84 589 OFFCURVE",
"84 565 CURVE SMOOTH",
"84 154 LINE SMOOTH",
"84 101 OFFCURVE",
"81 65 OFFCURVE",
"25 65 CURVE"
);
}
);
width = 312;
}
);
leftKerningGroup = h;
rightKerningGroup = l;
unicode = 006C;
},
{
color = 4;
glyphname = lcaron;
layers = (
{
layerId = UUID0;
paths = (
{
closed = 1;
nodes = (
"34 0 LINE",
"238 0 LINE",
"238 41 LINE",
"175 38 LINE",
"179 61 OFFCURVE",
"180 79 OFFCURVE",
"180 106 CURVE SMOOTH",
"179 755 LINE",
"150 755 LINE",
"135 741 OFFCURVE",
"113 728 OFFCURVE",
"25 728 CURVE",
"25 686 LINE",
"96 690 LINE",
"93 663 OFFCURVE",
"93 646 OFFCURVE",
"93 625 CURVE SMOOTH",
"93 152 LINE SMOOTH",
"93 80 OFFCURVE",
"95 30 OFFCURVE",
"34 30 CURVE"
);
},
{
closed = 1;
nodes = (
"310 597 OFFCURVE",
"350 656 OFFCURVE",
"350 718 CURVE SMOOTH",
"350 733 OFFCURVE",
"346 745 OFFCURVE",
"338 762 CURVE",
"269 775 LINE",
"284 716 OFFCURVE",
"285 658 OFFCURVE",
"241 574 CURVE",
"267 554 LINE"
);
}
);
width = 341;
},
{
layerId = "4C2B4986-1645-43C1-94B7-5E4C57EFF0D9";
paths = (
{
closed = 1;
nodes = (
"25 0 LINE",
"287 0 LINE",
"287 76 LINE",
"222 73 LINE",
"225 103 OFFCURVE",
"226 142 OFFCURVE",
"226 161 CURVE SMOOTH",
"226 755 LINE",
"172 755 LINE",
"158 742 OFFCURVE",
"111 725 OFFCURVE",
"18 725 CURVE",
"18 649 LINE",
"88 652 LINE",
"85 623 OFFCURVE",
"84 589 OFFCURVE",
"84 565 CURVE SMOOTH",
"84 154 LINE SMOOTH",
"84 101 OFFCURVE",
"81 65 OFFCURVE",
"25 65 CURVE"
);
},
{
closed = 1;
nodes = (
"360 579 OFFCURVE",
"404 642 OFFCURVE",
"404 708 CURVE SMOOTH",
"404 725 OFFCURVE",
"400 738 OFFCURVE",
"390 758 CURVE",
"301 775 LINE",
"318 711 OFFCURVE",
"323 652 OFFCURVE",
"274 562 CURVE",
"313 533 LINE"
);
}
);
width = 396;
}
);
leftKerningGroup = h;
rightKerningGroup = l;
unicode = 013E;
userData = {
public.markColor = "0.75,0.75,0.75,1";
};
},
{
color = 4;
glyphname = lslash;
layers = (
{
components = (
{
name = l;
transform = "{1, 0, 0, 1, 20, 0}";
}
);
layerId = UUID0;
paths = (
{
closed = 1;
nodes = (
"276 408 LINE",
"276 465 LINE",
"26 285 LINE",
"26 226 LINE"
);
}
);
width = 293;
},
{
components = (
{
name = l;
transform = "{1, 0, 0, 1, 20, 0}";
}
);
layerId = "4C2B4986-1645-43C1-94B7-5E4C57EFF0D9";
paths = (
{
closed = 1;
nodes = (
"296 381 LINE",
"296 491 LINE",
"17 294 LINE",
"17 181 LINE"
);
}
);
width = 321;
}
);
leftKerningGroup = h;
rightKerningGroup = l;
unicode = 0142;
},
{
color = 4;
glyphname = m;
layers = (
{
layerId = UUID0;
paths = (
{
closed = 1;
nodes = (
"248 0 LINE",
"248 41 LINE",
"227 40 OFFCURVE",
"206 39 OFFCURVE",
"185 38 CURVE",
"189 61 OFFCURVE",
"189 79 OFFCURVE",
"189 106 CURVE SMOOTH",
"189 363 LINE SMOOTH",
"189 383 OFFCURVE",
"188 401 OFFCURVE",
"188 417 CURVE",
"216 445 OFFCURVE",
"258 465 OFFCURVE",
"300 465 CURVE SMOOTH",
"379 466 OFFCURVE",
"411 406 OFFCURVE",
"410 292 CURVE SMOOTH",
"409 152 LINE SMOOTH",
"408 80 OFFCURVE",
"411 30 OFFCURVE",
"350 30 CURVE",
"350 0 LINE",
"554 0 LINE",
"554 41 LINE",
"533 40 OFFCURVE",
"512 39 OFFCURVE",
"491 38 CURVE",
"495 61 OFFCURVE",
"495 79 OFFCURVE",
"495 106 CURVE SMOOTH",
"496 184 OFFCURVE",
"496 263 OFFCURVE",
"497 341 CURVE SMOOTH",
"497 367 OFFCURVE",
"494 392 OFFCURVE",
"487 414 CURVE",
"517 442 OFFCURVE",
"561 463 OFFCURVE",
"603 463 CURVE SMOOTH",
"682 464 OFFCURVE",
"717 406 OFFCURVE",
"717 292 CURVE SMOOTH",
"717 152 LINE SMOOTH",
"717 80 OFFCURVE",
"719 30 OFFCURVE",
"658 30 CURVE",
"658 0 LINE",
"862 0 LINE",
"862 41 LINE",
"841 40 OFFCURVE",
"820 39 OFFCURVE",
"799 38 CURVE",
"803 61 OFFCURVE",
"803 79 OFFCURVE",
"803 106 CURVE SMOOTH",
"804 292 LINE SMOOTH",
"807 450 OFFCURVE",
"753 516 OFFCURVE",
"637 516 CURVE SMOOTH",
"580 516 OFFCURVE",
"516 486 OFFCURVE",
"471 449 CURVE",
"446 490 OFFCURVE",
"401 516 OFFCURVE",
"334 516 CURVE SMOOTH",
"282 516 OFFCURVE",
"227 491 OFFCURVE",
"187 457 CURVE",
"186 480 OFFCURVE",
"185 497 OFFCURVE",
"183 510 CURVE",
"154 510 LINE",
"139 496 OFFCURVE",
"124 483 OFFCURVE",
"36 483 CURVE",
"36 441 LINE",
"60 442 OFFCURVE",
"83 444 OFFCURVE",
"107 445 CURVE",
"103 422 OFFCURVE",
"103 401 OFFCURVE",
"103 380 CURVE SMOOTH",
"103 152 LINE SMOOTH",
"103 80 OFFCURVE",
"105 30 OFFCURVE",
"44 30 CURVE",
"44 0 LINE"
);
}
);
width = 894;
},
{
layerId = "4C2B4986-1645-43C1-94B7-5E4C57EFF0D9";
paths = (
{
closed = 1;
nodes = (
"298 0 LINE",
"298 76 LINE",
"284 76 OFFCURVE",
"259 75 OFFCURVE",
"238 73 CURVE",
"241 103 OFFCURVE",
"242 142 OFFCURVE",
"242 161 CURVE SMOOTH",
"242 337 LINE",
"242 354 OFFCURVE",
"242 370 OFFCURVE",
"242 387 CURVE",
"264 407 OFFCURVE",
"294 424 OFFCURVE",
"327 424 CURVE SMOOTH",
"372 423 OFFCURVE",
"399 397 OFFCURVE",
"399 310 CURVE SMOOTH",
"400 154 LINE SMOOTH",
"400 101 OFFCURVE",
"396 65 OFFCURVE",
"345 65 CURVE",
"345 0 LINE",
"603 0 LINE",
"603 76 LINE",
"588 76 OFFCURVE",
"559 75 OFFCURVE",
"538 73 CURVE",
"541 103 OFFCURVE",
"542 142 OFFCURVE",
"542 161 CURVE SMOOTH",
"542 206 OFFCURVE",
"542 250 OFFCURVE",
"542 295 CURVE SMOOTH",
"542 331 OFFCURVE",
"539 363 OFFCURVE",
"533 390 CURVE",
"557 409 OFFCURVE",
"587 424 OFFCURVE",
"622 423 CURVE SMOOTH",
"667 421 OFFCURVE",
"697 394 OFFCURVE",
"698 307 CURVE SMOOTH",
"698 154 LINE SMOOTH",
"698 101 OFFCURVE",
"694 65 OFFCURVE",
"648 65 CURVE",
"648 0 LINE",
"901 0 LINE",
"901 76 LINE",
"887 76 OFFCURVE",
"857 75 OFFCURVE",
"836 73 CURVE",
"839 103 OFFCURVE",
"840 142 OFFCURVE",
"840 161 CURVE SMOOTH",
"840 308 LINE SMOOTH",
"840 461 OFFCURVE",
"784 516 OFFCURVE",
"676 516 CURVE SMOOTH",
"623 516 OFFCURVE",
"561 490 OFFCURVE",
"513 450 CURVE",
"489 494 OFFCURVE",
"450 516 OFFCURVE",
"389 516 CURVE SMOOTH",
"342 516 OFFCURVE",
"286 494 OFFCURVE",
"241 460 CURVE",
"240 473 OFFCURVE",
"239 496 OFFCURVE",
"237 510 CURVE",
"188 510 LINE",
"174 497 OFFCURVE",
"126 480 OFFCURVE",
"34 480 CURVE",
"34 404 LINE",
"48 405 OFFCURVE",
"83 406 OFFCURVE",
"104 407 CURVE",
"101 377 OFFCURVE",
"100 346 OFFCURVE",
"100 322 CURVE SMOOTH",
"100 154 LINE SMOOTH",
"100 101 OFFCURVE",
"96 65 OFFCURVE",
"41 65 CURVE",
"41 0 LINE"
);
}
);
width = 920;
}
);
leftKerningGroup = n;
rightKerningGroup = n;
unicode = 006D;
},
{
color = 4;
glyphname = n;
layers = (
{
anchors = (
{
name = bottom;
position = "{304, 0}";
},
{
name = top;
position = "{319, 500}";
}
);
layerId = UUID0;
paths = (
{
closed = 1;
nodes = (
"248 0 LINE",
"248 41 LINE",
"227 40 OFFCURVE",
"206 39 OFFCURVE",
"185 38 CURVE",
"189 61 OFFCURVE",
"189 79 OFFCURVE",
"189 106 CURVE SMOOTH",
"190 361 LINE SMOOTH",
"190 375 OFFCURVE",
"190 389 OFFCURVE",
"189 400 CURVE",
"219 437 OFFCURVE",
"269 464 OFFCURVE",
"317 465 CURVE SMOOTH",
"396 466 OFFCURVE",
"431 406 OFFCURVE",
"432 292 CURVE SMOOTH",
"432 152 LINE SMOOTH",
"432 80 OFFCURVE",
"434 30 OFFCURVE",
"373 30 CURVE",
"373 0 LINE",
"577 0 LINE",
"577 41 LINE",
"556 40 OFFCURVE",
"535 39 OFFCURVE",
"514 38 CURVE",
"518 61 OFFCURVE",
"518 79 OFFCURVE",
"518 106 CURVE SMOOTH",
"518 292 LINE SMOOTH",
"518 445 OFFCURVE",
"467 516 OFFCURVE",
"351 516 CURVE SMOOTH",
"293 516 OFFCURVE",
"231 487 OFFCURVE",
"188 449 CURVE",
"187 477 OFFCURVE",
"186 495 OFFCURVE",
"184 510 CURVE",
"155 510 LINE",
"140 496 OFFCURVE",
"125 483 OFFCURVE",
"37 483 CURVE",
"37 441 LINE",
"61 442 OFFCURVE",
"84 444 OFFCURVE",
"108 445 CURVE",
"104 422 OFFCURVE",
"104 401 OFFCURVE",
"104 380 CURVE SMOOTH",
"103 152 LINE SMOOTH",
"102 80 OFFCURVE",
"105 30 OFFCURVE",
"44 30 CURVE",
"44 0 LINE"
);
}
);
width = 607;
},
{
anchors = (
{
name = bottom;
position = "{357, 0}";
},
{
name = top;
position = "{344, 500}";
}
);
layerId = "4C2B4986-1645-43C1-94B7-5E4C57EFF0D9";
paths = (
{
closed = 1;
nodes = (
"303 0 LINE",
"303 76 LINE",
"289 76 OFFCURVE",
"259 75 OFFCURVE",
"238 73 CURVE",
"241 103 OFFCURVE",
"242 142 OFFCURVE",
"242 161 CURVE SMOOTH",
"242 330 LINE",
"242 349 OFFCURVE",
"242 368 OFFCURVE",
"242 387 CURVE",
"264 407 OFFCURVE",
"300 424 OFFCURVE",
"333 424 CURVE SMOOTH",
"392 424 OFFCURVE",
"414 383 OFFCURVE",
"414 296 CURVE SMOOTH",
"415 154 LINE SMOOTH",
"415 101 OFFCURVE",
"411 65 OFFCURVE",
"355 65 CURVE",
"355 0 LINE",
"617 0 LINE",
"617 76 LINE",
"603 76 OFFCURVE",
"574 75 OFFCURVE",
"552 73 CURVE",
"555 103 OFFCURVE",
"556 142 OFFCURVE",
"556 161 CURVE SMOOTH",
"556 295 LINE SMOOTH",
"556 449 OFFCURVE",
"509 516 OFFCURVE",
"387 516 CURVE SMOOTH",
"347 516 OFFCURVE",
"282 491 OFFCURVE",
"243 460 CURVE",
"237 487 OFFCURVE",
"241 484 OFFCURVE",
"237 510 CURVE",
"188 510 LINE",
"174 497 OFFCURVE",
"126 480 OFFCURVE",
"34 480 CURVE",
"34 404 LINE",
"48 405 OFFCURVE",
"83 406 OFFCURVE",
"104 407 CURVE",
"101 377 OFFCURVE",
"100 346 OFFCURVE",
"100 322 CURVE SMOOTH",
"100 154 LINE SMOOTH",
"100 101 OFFCURVE",
"96 65 OFFCURVE",
"41 65 CURVE",
"41 0 LINE"
);
}
);
width = 636;
}
);
leftKerningGroup = n;
rightKerningGroup = n;
unicode = 006E;
},
{
color = 7;
glyphname = eng;
layers = (
{
background = {
paths = (
{
closed = 1;
nodes = (
"432 194 LINE",
"431 -86 LINE SMOOTH",
"431 -142 OFFCURVE",
"424 -186 OFFCURVE",
"402 -208 CURVE SMOOTH",
"387 -223 OFFCURVE",
"362 -231 OFFCURVE",
"336 -219 CURVE",
"337 -216 OFFCURVE",
"337 -213 OFFCURVE",
"337 -210 CURVE SMOOTH",
"337 -194 OFFCURVE",
"326 -167 OFFCURVE",
"293 -168 CURVE SMOOTH",
"266 -169 OFFCURVE",
"250 -191 OFFCURVE",
"250 -215 CURVE SMOOTH",
"250 -244 OFFCURVE",
"274 -271 OFFCURVE",
"329 -271 CURVE SMOOTH",
"437 -271 OFFCURVE",
"518 -190 OFFCURVE",
"518 -3 CURVE SMOOTH",
"518 194 LINE"
);
},
{
closed = 1;
nodes = (
"442 728 OFFCURVE",
"416 701 OFFCURVE",
"416 668 CURVE SMOOTH",
"416 635 OFFCURVE",
"441 609 OFFCURVE",
"469 609 CURVE SMOOTH",
"498 609 OFFCURVE",
"524 635 OFFCURVE",
"524 668 CURVE SMOOTH",
"524 701 OFFCURVE",
"501 728 OFFCURVE",
"470 728 CURVE SMOOTH"
);
}
);
};
layerId = UUID0;
paths = (
{
closed = 1;
nodes = (
"437 -271 OFFCURVE",
"518 -190 OFFCURVE",
"518 -3 CURVE SMOOTH",
"518 292 LINE SMOOTH",
"518 445 OFFCURVE",
"467 516 OFFCURVE",
"351 516 CURVE SMOOTH",
"293 516 OFFCURVE",
"231 487 OFFCURVE",
"188 449 CURVE",
"187 477 OFFCURVE",
"186 495 OFFCURVE",
"184 510 CURVE",
"155 510 LINE",
"140 496 OFFCURVE",
"125 483 OFFCURVE",
"37 483 CURVE",
"37 441 LINE",
"61 442 OFFCURVE",
"84 444 OFFCURVE",
"108 445 CURVE",
"104 422 OFFCURVE",
"104 401 OFFCURVE",
"104 380 CURVE SMOOTH",
"103 152 LINE SMOOTH",
"102 80 OFFCURVE",
"105 30 OFFCURVE",
"44 30 CURVE",
"44 0 LINE",
"248 0 LINE",
"248 41 LINE",
"227 40 OFFCURVE",
"206 39 OFFCURVE",
"185 38 CURVE",
"189 61 OFFCURVE",
"189 79 OFFCURVE",
"189 106 CURVE SMOOTH",
"190 361 LINE SMOOTH",
"190 375 OFFCURVE",
"190 389 OFFCURVE",
"189 400 CURVE",
"219 437 OFFCURVE",
"269 464 OFFCURVE",
"317 465 CURVE SMOOTH",
"396 466 OFFCURVE",
"431 406 OFFCURVE",
"432 292 CURVE SMOOTH",
"431 -86 LINE SMOOTH",
"431 -157 OFFCURVE",
"422 -217 OFFCURVE",
"366 -225 CURVE SMOOTH",
"357 -225 OFFCURVE",
"346 -224 OFFCURVE",
"336 -219 CURVE",
"337 -216 OFFCURVE",
"337 -213 OFFCURVE",
"337 -210 CURVE SMOOTH",
"337 -194 OFFCURVE",
"326 -167 OFFCURVE",
"293 -168 CURVE SMOOTH",
"266 -169 OFFCURVE",
"250 -191 OFFCURVE",
"250 -215 CURVE SMOOTH",
"250 -244 OFFCURVE",
"274 -271 OFFCURVE",
"329 -271 CURVE SMOOTH"
);
}
);
width = 588;
},
{
background = {
paths = (
{
closed = 1;
nodes = (
"415 231 LINE",
"417 -126 LINE SMOOTH",
"417 -155 OFFCURVE",
"412 -201 OFFCURVE",
"375 -201 CURVE SMOOTH",
"370 -201 OFFCURVE",
"361 -199 OFFCURVE",
"358 -197 CURVE",
"367 -153 OFFCURVE",
"341 -120 OFFCURVE",
"299 -121 CURVE SMOOTH",
"259 -122 OFFCURVE",
"236 -154 OFFCURVE",
"236 -189 CURVE SMOOTH",
"236 -230 OFFCURVE",
"270 -271 OFFCURVE",
"345 -271 CURVE SMOOTH",
"465 -271 OFFCURVE",
"556 -183 OFFCURVE",
"556 2 CURVE SMOOTH",
"556 231 LINE"
);
}
);
};
layerId = "4C2B4986-1645-43C1-94B7-5E4C57EFF0D9";
paths = (
{
closed = 1;
nodes = (
"464 -271 OFFCURVE",
"556 -183 OFFCURVE",
"556 2 CURVE SMOOTH",
"556 295 LINE SMOOTH",
"556 449 OFFCURVE",
"509 516 OFFCURVE",
"387 516 CURVE SMOOTH",
"347 516 OFFCURVE",
"282 491 OFFCURVE",
"243 460 CURVE",
"237 487 OFFCURVE",
"241 484 OFFCURVE",
"237 510 CURVE",
"188 510 LINE",
"174 497 OFFCURVE",
"126 480 OFFCURVE",
"34 480 CURVE",
"34 404 LINE",
"48 405 OFFCURVE",
"83 406 OFFCURVE",
"104 407 CURVE",
"101 377 OFFCURVE",
"100 346 OFFCURVE",
"100 322 CURVE SMOOTH",
"100 154 LINE SMOOTH",
"100 101 OFFCURVE",
"96 65 OFFCURVE",
"41 65 CURVE",
"41 0 LINE",
"303 0 LINE",
"303 76 LINE",
"289 76 OFFCURVE",
"259 75 OFFCURVE",
"238 73 CURVE",
"241 103 OFFCURVE",
"242 142 OFFCURVE",
"242 161 CURVE SMOOTH",
"242 319 LINE",
"242 342 OFFCURVE",
"242 364 OFFCURVE",
"242 387 CURVE",
"264 407 OFFCURVE",
"300 424 OFFCURVE",
"333 424 CURVE SMOOTH",
"392 424 OFFCURVE",
"414 383 OFFCURVE",
"414 296 CURVE SMOOTH",
"416 -126 LINE SMOOTH",
"416 -155 OFFCURVE",
"411 -201 OFFCURVE",
"374 -201 CURVE SMOOTH",
"369 -201 OFFCURVE",
"360 -199 OFFCURVE",
"357 -197 CURVE",
"358 -191 OFFCURVE",
"359 -185 OFFCURVE",
"359 -180 CURVE SMOOTH",
"359 -145 OFFCURVE",
"334 -120 OFFCURVE",
"298 -121 CURVE SMOOTH",
"258 -122 OFFCURVE",
"235 -154 OFFCURVE",
"235 -189 CURVE SMOOTH",
"235 -230 OFFCURVE",
"269 -271 OFFCURVE",
"344 -271 CURVE SMOOTH"
);
}
);
width = 616;
}
);
unicode = 014B;
},
{
color = 4;
glyphname = o;
layers = (
{
anchors = (
{
name = bottom;
position = "{293, 0}";
},
{
name = center;
position = "{293, 250}";
},
{
name = ogonek;
position = "{526, 10}";
},
{
name = top;
position = "{292, 500}";
},
{
name = topright;
position = "{448, 500}";
}
);
layerId = UUID0;
paths = (
{
closed = 1;
nodes = (
"434 -16 OFFCURVE",
"544 107 OFFCURVE",
"544 262 CURVE SMOOTH",
"544 407 OFFCURVE",
"432 516 OFFCURVE",
"292 516 CURVE SMOOTH",
"150 516 OFFCURVE",
"41 396 OFFCURVE",
"41 238 CURVE SMOOTH",
"41 90 OFFCURVE",
"152 -16 OFFCURVE",
"292 -16 CURVE SMOOTH"
);
},
{
closed = 1;
nodes = (
"194 24 OFFCURVE",
"143 143 OFFCURVE",
"143 267 CURVE SMOOTH",
"143 376 OFFCURVE",
"187 478 OFFCURVE",
"292 478 CURVE SMOOTH",
"399 478 OFFCURVE",
"442 353 OFFCURVE",
"442 233 CURVE SMOOTH",
"442 127 OFFCURVE",
"405 24 OFFCURVE",
"300 24 CURVE SMOOTH"
);
}
);
width = 585;
},
{
anchors = (
{
name = bottom;
position = "{283, 0}";
},
{
name = center;
position = "{283, 250}";
},
{
name = ogonek;
position = "{509, 10}";
},
{
name = top;
position = "{283, 500}";
},
{
name = topright;
position = "{452, 500}";
}
);
layerId = "4C2B4986-1645-43C1-94B7-5E4C57EFF0D9";
paths = (
{
closed = 1;
nodes = (
"432 -16 OFFCURVE",
"535 91 OFFCURVE",
"535 259 CURVE SMOOTH",
"535 419 OFFCURVE",
"426 516 OFFCURVE",
"283 516 CURVE SMOOTH",
"146 516 OFFCURVE",
"31 405 OFFCURVE",
"31 239 CURVE SMOOTH",
"31 82 OFFCURVE",
"141 -16 OFFCURVE",
"286 -16 CURVE SMOOTH"
);
},
{
closed = 1;
nodes = (
"208 53 OFFCURVE",
"178 164 OFFCURVE",
"178 266 CURVE SMOOTH",
"178 353 OFFCURVE",
"203 444 OFFCURVE",
"281 446 CURVE SMOOTH",
"362 448 OFFCURVE",
"387 333 OFFCURVE",
"387 234 CURVE SMOOTH",
"387 149 OFFCURVE",
"369 56 OFFCURVE",
"290 55 CURVE SMOOTH"
);
}
);
width = 566;
}
);
leftKerningGroup = o;
rightKerningGroup = o;
unicode = 006F;
},
{
color = 4;
glyphname = oslash;
layers = (
{
anchors = (
{
name = top;
position = "{293, 500}";
}
);
layerId = UUID0;
paths = (
{
closed = 1;
nodes = (
"513 534 LINE",
"466 565 LINE",
"80 -48 LINE",
"117 -75 LINE"
);
},
{
closed = 1;
nodes = (
"434 -16 OFFCURVE",
"544 107 OFFCURVE",
"544 262 CURVE SMOOTH",
"544 407 OFFCURVE",
"432 516 OFFCURVE",
"292 516 CURVE SMOOTH",
"150 516 OFFCURVE",
"41 396 OFFCURVE",
"41 238 CURVE SMOOTH",
"41 90 OFFCURVE",
"152 -16 OFFCURVE",
"292 -16 CURVE SMOOTH"
);
},
{
closed = 1;
nodes = (
"194 24 OFFCURVE",
"143 143 OFFCURVE",
"143 267 CURVE SMOOTH",
"143 376 OFFCURVE",
"187 478 OFFCURVE",
"292 478 CURVE SMOOTH",
"399 478 OFFCURVE",
"442 353 OFFCURVE",
"442 233 CURVE SMOOTH",
"442 127 OFFCURVE",
"405 24 OFFCURVE",
"300 24 CURVE SMOOTH"
);
}
);
width = 585;
},
{
anchors = (
{
name = top;
position = "{283, 500}";
}
);
background = {
anchors = (
{
name = bottom;
position = "{283, 0}";
},
{
name = center;
position = "{283, 250}";
},
{
name = ogonek;
position = "{509, 10}";
},
{
name = top;
position = "{283, 500}";
},
{
name = topright;
position = "{452, 500}";
}
);
paths = (
{
closed = 1;
nodes = (
"512 531 LINE",
"445 574 LINE",
"55 -36 LINE",
"116 -83 LINE"
);
},
{
closed = 1;
nodes = (
"432 -16 OFFCURVE",
"535 91 OFFCURVE",
"535 259 CURVE SMOOTH",
"535 419 OFFCURVE",
"426 516 OFFCURVE",
"283 516 CURVE SMOOTH",
"146 516 OFFCURVE",
"31 405 OFFCURVE",
"31 239 CURVE SMOOTH",
"31 82 OFFCURVE",
"141 -16 OFFCURVE",
"286 -16 CURVE SMOOTH"
);
},
{
closed = 1;
nodes = (
"208 53 OFFCURVE",
"178 164 OFFCURVE",
"178 266 CURVE SMOOTH",
"178 353 OFFCURVE",
"203 444 OFFCURVE",
"281 446 CURVE SMOOTH",
"362 448 OFFCURVE",
"387 333 OFFCURVE",
"387 234 CURVE SMOOTH",
"387 149 OFFCURVE",
"369 56 OFFCURVE",
"290 55 CURVE SMOOTH"
);
}
);
};
layerId = "4C2B4986-1645-43C1-94B7-5E4C57EFF0D9";
paths = (
{
closed = 1;
nodes = (
"512 531 LINE",
"445 574 LINE",
"55 -36 LINE",
"116 -83 LINE"
);
},
{
closed = 1;
nodes = (
"432 -16 OFFCURVE",
"535 91 OFFCURVE",
"535 259 CURVE SMOOTH",
"535 419 OFFCURVE",
"426 516 OFFCURVE",
"283 516 CURVE SMOOTH",
"146 516 OFFCURVE",
"31 405 OFFCURVE",
"31 239 CURVE SMOOTH",
"31 82 OFFCURVE",
"141 -16 OFFCURVE",
"286 -16 CURVE SMOOTH"
);
},
{
closed = 1;
nodes = (
"208 53 OFFCURVE",
"178 164 OFFCURVE",
"178 266 CURVE SMOOTH",
"178 353 OFFCURVE",
"203 444 OFFCURVE",
"281 446 CURVE SMOOTH",
"362 448 OFFCURVE",
"387 333 OFFCURVE",
"387 234 CURVE SMOOTH",
"387 149 OFFCURVE",
"369 56 OFFCURVE",
"290 55 CURVE SMOOTH"
);
}
);
width = 566;
}
);
leftKerningGroup = o;
rightKerningGroup = o;
unicode = 00F8;
},
{
color = 4;
glyphname = oe;
layers = (
{
background = {
paths = (
{
closed = 1;
nodes = (
"160 516 OFFCURVE",
"56 396 OFFCURVE",
"56 238 CURVE SMOOTH",
"56 90 OFFCURVE",
"161 -16 OFFCURVE",
"292 -16 CURVE SMOOTH",
"375 -16 OFFCURVE",
"437 36 OFFCURVE",
"478 116 CURVE",
"491 374 LINE",
"451 460 OFFCURVE",
"382 516 OFFCURVE",
"292 516 CURVE SMOOTH"
);
},
{
closed = 1;
nodes = (
"389 478 OFFCURVE",
"429 353 OFFCURVE",
"430 233 CURVE SMOOTH",
"428 127 OFFCURVE",
"395 24 OFFCURVE",
"300 24 CURVE SMOOTH",
"206 24 OFFCURVE",
"158 143 OFFCURVE",
"158 267 CURVE SMOOTH",
"158 376 OFFCURVE",
"197 478 OFFCURVE",
"292 478 CURVE SMOOTH"
);
},
{
closed = 1;
nodes = (
"571 516 OFFCURVE",
"502 459 OFFCURVE",
"463 377 CURVE",
"462 117 LINE",
"500 33 OFFCURVE",
"570 -16 OFFCURVE",
"652 -16 CURVE SMOOTH",
"718 -16 OFFCURVE",
"805 15 OFFCURVE",
"864 98 CURVE",
"839 118 LINE",
"803 71 OFFCURVE",
"735 35 OFFCURVE",
"676 35 CURVE SMOOTH",
"566 35 OFFCURVE",
"520 136 OFFCURVE",
"521 289 CURVE",
"858 295 LINE",
"853 444 OFFCURVE",
"768 516 OFFCURVE",
"660 516 CURVE SMOOTH"
);
},
{
closed = 1;
nodes = (
"735 477 OFFCURVE",
"758 402 OFFCURVE",
"764 331 CURVE",
"523 331 LINE",
"538 434 OFFCURVE",
"587 477 OFFCURVE",
"661 477 CURVE SMOOTH"
);
}
);
};
layerId = UUID0;
paths = (
{
closed = 1;
nodes = (
"353 -16 OFFCURVE",
"413 24 OFFCURVE",
"452 86 CURVE",
"453 86 LINE",
"490 19 OFFCURVE",
"560 -16 OFFCURVE",
"638 -16 CURVE SMOOTH",
"706 -16 OFFCURVE",
"789 15 OFFCURVE",
"844 98 CURVE",
"819 118 LINE",
"786 71 OFFCURVE",
"724 35 OFFCURVE",
"662 35 CURVE SMOOTH",
"549 35 OFFCURVE",
"507 135 OFFCURVE",
"507 288 CURVE",
"833 294 LINE",
"833 443 OFFCURVE",
"754 516 OFFCURVE",
"643 516 CURVE SMOOTH",
"563 516 OFFCURVE",
"498 470 OFFCURVE",
"460 410 CURVE",
"459 410 LINE",
"417 478 OFFCURVE",
"357 516 OFFCURVE",
"277 516 CURVE SMOOTH",
"135 516 OFFCURVE",
"41 396 OFFCURVE",
"41 238 CURVE SMOOTH",
"41 90 OFFCURVE",
"137 -16 OFFCURVE",
"277 -16 CURVE SMOOTH"
);
},
{
closed = 1;
nodes = (
"182 24 OFFCURVE",
"143 143 OFFCURVE",
"143 267 CURVE SMOOTH",
"143 376 OFFCURVE",
"178 478 OFFCURVE",
"278 478 CURVE SMOOTH",
"371 478 OFFCURVE",
"409 373 OFFCURVE",
"414 248 CURVE",
"414 143 OFFCURVE",
"394 24 OFFCURVE",
"284 24 CURVE SMOOTH"
);
},
{
closed = 1;
nodes = (
"524 426 OFFCURVE",
"566 479 OFFCURVE",
"638 477 CURVE SMOOTH",
"714 476 OFFCURVE",
"737 406 OFFCURVE",
"739 330 CURVE",
"510 330 LINE"
);
}
);
width = 883;
},
{
background = {
paths = (
{
closed = 1;
nodes = (
"150 516 OFFCURVE",
"41 405 OFFCURVE",
"41 239 CURVE SMOOTH",
"41 82 OFFCURVE",
"146 -16 OFFCURVE",
"284 -16 CURVE SMOOTH",
"382 -16 OFFCURVE",
"458 55 OFFCURVE",
"493 172 CURVE",
"495 356 LINE",
"455 457 OFFCURVE",
"377 516 OFFCURVE",
"283 516 CURVE SMOOTH"
);
},
{
closed = 1;
nodes = (
"362 448 OFFCURVE",
"387 333 OFFCURVE",
"387 234 CURVE SMOOTH",
"387 149 OFFCURVE",
"369 56 OFFCURVE",
"290 55 CURVE SMOOTH",
"215 53 OFFCURVE",
"187 164 OFFCURVE",
"188 266 CURVE SMOOTH",
"188 353 OFFCURVE",
"211 444 OFFCURVE",
"281 446 CURVE SMOOTH"
);
},
{
closed = 1;
nodes = (
"505 516 OFFCURVE",
"435 441 OFFCURVE",
"401 335 CURVE",
"407 188 LINE",
"433 47 OFFCURVE",
"520 -16 OFFCURVE",
"604 -16 CURVE SMOOTH",
"667 -16 OFFCURVE",
"745 3 OFFCURVE",
"813 106 CURVE",
"768 148 LINE",
"726 92 OFFCURVE",
"671 73 OFFCURVE",
"635 73 CURVE SMOOTH",
"542 73 OFFCURVE",
"509 154 OFFCURVE",
"509 263 CURVE",
"808 269 LINE",
"810 462 OFFCURVE",
"701 516 OFFCURVE",
"597 516 CURVE SMOOTH"
);
},
{
closed = 1;
nodes = (
"640 446 OFFCURVE",
"667 416 OFFCURVE",
"670 333 CURVE",
"515 333 LINE",
"523 400 OFFCURVE",
"552 446 OFFCURVE",
"602 446 CURVE SMOOTH"
);
}
);
};
layerId = "4C2B4986-1645-43C1-94B7-5E4C57EFF0D9";
paths = (
{
closed = 1;
nodes = (
"353 -16 OFFCURVE",
"413 12 OFFCURVE",
"454 62 CURVE",
"455 62 LINE",
"493 12 OFFCURVE",
"559 -16 OFFCURVE",
"628 -16 CURVE SMOOTH",
"696 -16 OFFCURVE",
"789 3 OFFCURVE",
"861 106 CURVE",
"816 148 LINE",
"770 92 OFFCURVE",
"709 73 OFFCURVE",
"669 73 CURVE SMOOTH",
"560 73 OFFCURVE",
"523 167 OFFCURVE",
"523 263 CURVE",
"853 269 LINE",
"854 458 OFFCURVE",
"742 516 OFFCURVE",
"633 516 CURVE SMOOTH",
"549 516 OFFCURVE",
"504 483 OFFCURVE",
"461 435 CURVE",
"459 435 LINE",
"418 486 OFFCURVE",
"374 516 OFFCURVE",
"283 516 CURVE SMOOTH",
"146 516 OFFCURVE",
"31 405 OFFCURVE",
"31 239 CURVE SMOOTH",
"31 82 OFFCURVE",
"141 -16 OFFCURVE",
"286 -16 CURVE SMOOTH"
);
},
{
closed = 1;
nodes = (
"208 53 OFFCURVE",
"178 164 OFFCURVE",
"178 266 CURVE SMOOTH",
"178 353 OFFCURVE",
"203 444 OFFCURVE",
"281 446 CURVE SMOOTH",
"362 448 OFFCURVE",
"385 333 OFFCURVE",
"387 249 CURVE SMOOTH",
"389 172 OFFCURVE",
"379 56 OFFCURVE",
"290 55 CURVE SMOOTH"
);
},
{
closed = 1;
nodes = (
"541 400 OFFCURVE",
"573 446 OFFCURVE",
"632 446 CURVE SMOOTH",
"679 446 OFFCURVE",
"712 416 OFFCURVE",
"715 333 CURVE",
"531 333 LINE"
);
}
);
width = 888;
}
);
leftKerningGroup = o;
leftMetricsKey = o;
rightKerningGroup = e;
rightMetricsKey = e;
unicode = 0153;
},
{
color = 4;
glyphname = p;
layers = (
{
layerId = UUID0;
paths = (
{
closed = 1;
nodes = (
"239 -255 LINE",
"239 -214 LINE",
"218 -215 OFFCURVE",
"197 -216 OFFCURVE",
"176 -217 CURVE",
"180 -194 OFFCURVE",
"180 -176 OFFCURVE",
"180 -149 CURVE SMOOTH",
"180 17 LINE",
"214 -5 OFFCURVE",
"253 -16 OFFCURVE",
"300 -16 CURVE SMOOTH",
"435 -16 OFFCURVE",
"555 97 OFFCURVE",
"555 268 CURVE SMOOTH",
"555 422 OFFCURVE",
"451 516 OFFCURVE",
"335 516 CURVE SMOOTH",
"279 516 OFFCURVE",
"220 492 OFFCURVE",
"180 456 CURVE",
"179 479 OFFCURVE",
"177 497 OFFCURVE",
"176 510 CURVE",
"146 510 LINE",
"132 496 OFFCURVE",
"117 483 OFFCURVE",
"29 483 CURVE",
"29 441 LINE",
"53 442 OFFCURVE",
"76 444 OFFCURVE",
"100 445 CURVE",
"96 422 OFFCURVE",
"96 401 OFFCURVE",
"96 380 CURVE SMOOTH",
"94 -103 LINE SMOOTH",
"93 -175 OFFCURVE",
"96 -225 OFFCURVE",
"35 -225 CURVE",
"35 -255 LINE"
);
},
{
closed = 1;
nodes = (
"254 24 OFFCURVE",
"214 38 OFFCURVE",
"181 63 CURVE",
"182 380 OFFCURVE",
"182 396 OFFCURVE",
"181 411 CURVE",
"209 441 OFFCURVE",
"253 467 OFFCURVE",
"299 467 CURVE SMOOTH",
"408 467 OFFCURVE",
"452 360 OFFCURVE",
"452 252 CURVE SMOOTH",
"452 120 OFFCURVE",
"393 24 OFFCURVE",
"298 24 CURVE SMOOTH"
);
}
);
width = 597;
},
{
layerId = "4C2B4986-1645-43C1-94B7-5E4C57EFF0D9";
paths = (
{
closed = 1;
nodes = (
"293 -255 LINE",
"293 -179 LINE",
"279 -179 OFFCURVE",
"250 -180 OFFCURVE",
"229 -182 CURVE",
"231 -152 OFFCURVE",
"232 -113 OFFCURVE",
"232 -94 CURVE SMOOTH",
"232 2 LINE",
"257 -7 OFFCURVE",
"285 -16 OFFCURVE",
"321 -16 CURVE SMOOTH",
"470 -16 OFFCURVE",
"569 102 OFFCURVE",
"569 263 CURVE SMOOTH",
"569 417 OFFCURVE",
"487 516 OFFCURVE",
"367 516 CURVE SMOOTH",
"326 516 OFFCURVE",
"279 502 OFFCURVE",
"232 462 CURVE",
"231 474 OFFCURVE",
"229 496 OFFCURVE",
"227 510 CURVE",
"178 510 LINE",
"164 497 OFFCURVE",
"117 480 OFFCURVE",
"24 480 CURVE",
"24 404 LINE",
"39 405 OFFCURVE",
"73 406 OFFCURVE",
"95 407 CURVE",
"92 377 OFFCURVE",
"91 346 OFFCURVE",
"91 322 CURVE SMOOTH",
"91 -101 LINE SMOOTH",
"91 -154 OFFCURVE",
"87 -190 OFFCURVE",
"31 -190 CURVE",
"31 -255 LINE"
);
},
{
closed = 1;
nodes = (
"276 58 OFFCURVE",
"246 67 OFFCURVE",
"232 77 CURVE",
"232 179 OFFCURVE",
"232 280 OFFCURVE",
"232 382 CURVE",
"250 408 OFFCURVE",
"280 425 OFFCURVE",
"313 426 CURVE SMOOTH",
"390 428 OFFCURVE",
"422 339 OFFCURVE",
"422 248 CURVE SMOOTH",
"422 149 OFFCURVE",
"397 61 OFFCURVE",
"305 59 CURVE SMOOTH"
);
}
);
width = 601;
}
);
rightKerningGroup = o;
unicode = 0070;
},
{
color = 4;
glyphname = thorn;
layers = (
{
layerId = UUID0;
paths = (
{
closed = 1;
nodes = (
"219 -255 LINE",
"219 -214 LINE",
"198 -215 OFFCURVE",
"177 -216 OFFCURVE",
"156 -217 CURVE",
"160 -194 OFFCURVE",
"160 -176 OFFCURVE",
"160 -149 CURVE SMOOTH",
"160 15 LINE",
"193 -6 OFFCURVE",
"232 -16 OFFCURVE",
"279 -16 CURVE SMOOTH",
"418 -16 OFFCURVE",
"534 94 OFFCURVE",
"534 264 CURVE SMOOTH",
"534 419 OFFCURVE",
"432 516 OFFCURVE",
"311 516 CURVE SMOOTH",
"255 516 OFFCURVE",
"201 495 OFFCURVE",
"160 462 CURVE",
"161 755 LINE",
"132 755 LINE",
"117 741 OFFCURVE",
"97 728 OFFCURVE",
"9 728 CURVE",
"9 686 LINE",
"33 687 OFFCURVE",
"56 689 OFFCURVE",
"80 690 CURVE",
"76 667 OFFCURVE",
"76 646 OFFCURVE",
"76 625 CURVE SMOOTH",
"74 -103 LINE SMOOTH",
"73 -175 OFFCURVE",
"76 -225 OFFCURVE",
"15 -225 CURVE",
"15 -255 LINE"
);
},
{
closed = 1;
nodes = (
"233 24 OFFCURVE",
"193 37 OFFCURVE",
"160 62 CURVE",
"160 416 LINE",
"189 446 OFFCURVE",
"231 467 OFFCURVE",
"277 467 CURVE SMOOTH",
"386 467 OFFCURVE",
"431 357 OFFCURVE",
"431 249 CURVE SMOOTH",
"431 117 OFFCURVE",
"372 24 OFFCURVE",
"277 24 CURVE SMOOTH"
);
}
);
width = 577;
},
{
layerId = "4C2B4986-1645-43C1-94B7-5E4C57EFF0D9";
paths = (
{
closed = 1;
nodes = (
"265 -255 LINE",
"265 -179 LINE",
"251 -179 OFFCURVE",
"222 -180 OFFCURVE",
"200 -182 CURVE",
"203 -152 OFFCURVE",
"204 -113 OFFCURVE",
"204 -94 CURVE SMOOTH",
"204 2 LINE",
"229 -7 OFFCURVE",
"257 -16 OFFCURVE",
"293 -16 CURVE SMOOTH",
"441 -16 OFFCURVE",
"541 102 OFFCURVE",
"541 263 CURVE SMOOTH",
"541 417 OFFCURVE",
"459 516 OFFCURVE",
"339 516 CURVE SMOOTH",
"292 516 OFFCURVE",
"246 497 OFFCURVE",
"204 462 CURVE",
"204 755 LINE",
"150 755 LINE",
"136 742 OFFCURVE",
"89 725 OFFCURVE",
"-4 725 CURVE",
"-4 649 LINE",
"10 650 OFFCURVE",
"45 651 OFFCURVE",
"66 652 CURVE",
"63 623 OFFCURVE",
"63 589 OFFCURVE",
"63 565 CURVE SMOOTH",
"63 -101 LINE SMOOTH",
"63 -154 OFFCURVE",
"59 -190 OFFCURVE",
"3 -190 CURVE",
"3 -255 LINE"
);
},
{
closed = 1;
nodes = (
"248 58 OFFCURVE",
"218 67 OFFCURVE",
"204 77 CURVE",
"204 382 LINE",
"222 408 OFFCURVE",
"252 425 OFFCURVE",
"285 426 CURVE SMOOTH",
"362 428 OFFCURVE",
"394 339 OFFCURVE",
"394 248 CURVE SMOOTH",
"394 149 OFFCURVE",
"369 61 OFFCURVE",
"276 59 CURVE SMOOTH"
);
}
);
width = 573;
}
);
leftKerningGroup = b;
rightKerningGroup = o;
unicode = 00FE;
},
{
color = 4;
glyphname = q;
layers = (
{
layerId = UUID0;
paths = (
{
closed = 1;
nodes = (
"561 -255 LINE",
"561 -214 LINE",
"540 -215 OFFCURVE",
"519 -216 OFFCURVE",
"498 -217 CURVE",
"502 -194 OFFCURVE",
"502 -176 OFFCURVE",
"502 -149 CURVE SMOOTH",
"501 510 LINE",
"473 510 LINE",
"462 498 OFFCURVE",
"450 494 OFFCURVE",
"435 494 CURVE SMOOTH",
"401 494 OFFCURVE",
"355 516 OFFCURVE",
"299 516 CURVE SMOOTH",
"157 516 OFFCURVE",
"42 406 OFFCURVE",
"42 239 CURVE SMOOTH",
"42 84 OFFCURVE",
"141 -16 OFFCURVE",
"266 -16 CURVE SMOOTH",
"330 -16 OFFCURVE",
"381 7 OFFCURVE",
"416 47 CURVE",
"416 -103 LINE SMOOTH",
"416 -175 OFFCURVE",
"418 -225 OFFCURVE",
"357 -225 CURVE",
"357 -255 LINE"
);
},
{
closed = 1;
nodes = (
"203 33 OFFCURVE",
"145 135 OFFCURVE",
"145 263 CURVE SMOOTH",
"145 392 OFFCURVE",
"204 479 OFFCURVE",
"301 479 CURVE SMOOTH",
"387 479 OFFCURVE",
"416 439 OFFCURVE",
"416 359 CURVE SMOOTH",
"416 97 LINE",
"389 59 OFFCURVE",
"346 33 OFFCURVE",
"302 33 CURVE SMOOTH"
);
}
);
width = 576;
},
{
layerId = "4C2B4986-1645-43C1-94B7-5E4C57EFF0D9";
paths = (
{
closed = 1;
nodes = (
"572 -255 LINE",
"572 -179 LINE",
"558 -179 OFFCURVE",
"528 -180 OFFCURVE",
"507 -182 CURVE",
"510 -152 OFFCURVE",
"511 -113 OFFCURVE",
"511 -94 CURVE SMOOTH",
"511 510 LINE",
"457 510 LINE",
"449 500 OFFCURVE",
"432 494 OFFCURVE",
"422 494 CURVE SMOOTH",
"396 494 OFFCURVE",
"356 516 OFFCURVE",
"282 516 CURVE SMOOTH",
"131 516 OFFCURVE",
"32 398 OFFCURVE",
"32 237 CURVE SMOOTH",
"32 83 OFFCURVE",
"114 -16 OFFCURVE",
"234 -16 CURVE SMOOTH",
"281 -16 OFFCURVE",
"327 -1 OFFCURVE",
"370 40 CURVE",
"369 -101 LINE SMOOTH",
"369 -154 OFFCURVE",
"365 -190 OFFCURVE",
"310 -190 CURVE",
"310 -255 LINE"
);
},
{
closed = 1;
nodes = (
"209 74 OFFCURVE",
"180 167 OFFCURVE",
"179 252 CURVE SMOOTH",
"177 346 OFFCURVE",
"204 442 OFFCURVE",
"292 443 CURVE SMOOTH",
"325 443 OFFCURVE",
"369 430 OFFCURVE",
"369 355 CURVE SMOOTH",
"369 121 LINE",
"352 93 OFFCURVE",
"319 74 OFFCURVE",
"286 74 CURVE SMOOTH"
);
}
);
width = 573;
}
);
leftKerningGroup = d;
unicode = 0071;
},
{
color = 4;
glyphname = r;
layers = (
{
anchors = (
{
name = bottom;
position = "{217, 0}";
},
{
name = top;
position = "{255, 500}";
}
);
layerId = UUID0;
paths = (
{
closed = 1;
nodes = (
"44 0 LINE",
"249 0 LINE",
"249 41 LINE",
"228 40 OFFCURVE",
"207 39 OFFCURVE",
"186 38 CURVE",
"190 61 OFFCURVE",
"190 79 OFFCURVE",
"190 106 CURVE SMOOTH",
"189 352 LINE",
"224 417 OFFCURVE",
"280 463 OFFCURVE",
"331 461 CURVE",
"327 432 OFFCURVE",
"347 406 OFFCURVE",
"376 405 CURVE SMOOTH",
"412 404 OFFCURVE",
"426 436 OFFCURVE",
"426 453 CURVE SMOOTH",
"426 497 OFFCURVE",
"393 516 OFFCURVE",
"356 516 CURVE SMOOTH",
"284 516 OFFCURVE",
"218 460 OFFCURVE",
"188 411 CURVE",
"187 459 OFFCURVE",
"185 489 OFFCURVE",
"183 510 CURVE",
"154 510 LINE",
"139 496 OFFCURVE",
"124 483 OFFCURVE",
"67 483 CURVE SMOOTH",
"36 483 LINE",
"36 442 LINE",
"60 443 OFFCURVE",
"83 444 OFFCURVE",
"107 445 CURVE",
"103 422 OFFCURVE",
"103 401 OFFCURVE",
"103 380 CURVE SMOOTH",
"103 152 LINE SMOOTH",
"103 80 OFFCURVE",
"105 30 OFFCURVE",
"44 30 CURVE"
);
}
);
width = 433;
},
{
anchors = (
{
name = bottom;
position = "{240, 0}";
},
{
name = top;
position = "{288, 500}";
}
);
background = {
paths = (
{
closed = 1;
nodes = (
"41 0 LINE",
"303 0 LINE",
"303 76 LINE",
"289 76 OFFCURVE",
"259 75 OFFCURVE",
"238 73 CURVE",
"241 103 OFFCURVE",
"242 142 OFFCURVE",
"242 161 CURVE SMOOTH",
"242 324 LINE",
"254 361 OFFCURVE",
"299 421 OFFCURVE",
"339 421 CURVE",
"343 375 OFFCURVE",
"377 363 OFFCURVE",
"404 363 CURVE SMOOTH",
"455 362 OFFCURVE",
"474 403 OFFCURVE",
"474 433 CURVE SMOOTH",
"474 491 OFFCURVE",
"434 516 OFFCURVE",
"387 516 CURVE SMOOTH",
"318 516 OFFCURVE",
"269 459 OFFCURVE",
"243 424 CURVE",
"241 424 LINE",
"241 452 OFFCURVE",
"239 496 OFFCURVE",
"237 510 CURVE",
"188 510 LINE",
"174 497 OFFCURVE",
"126 480 OFFCURVE",
"34 480 CURVE",
"34 471 LINE",
"34 404 LINE",
"48 405 OFFCURVE",
"83 406 OFFCURVE",
"104 407 CURVE",
"101 377 OFFCURVE",
"100 346 OFFCURVE",
"100 322 CURVE SMOOTH",
"100 154 LINE SMOOTH",
"100 101 OFFCURVE",
"96 65 OFFCURVE",
"41 65 CURVE"
);
}
);
};
layerId = "4C2B4986-1645-43C1-94B7-5E4C57EFF0D9";
paths = (
{
closed = 1;
nodes = (
"41 0 LINE",
"303 0 LINE",
"303 76 LINE",
"289 76 OFFCURVE",
"259 75 OFFCURVE",
"238 73 CURVE",
"241 103 OFFCURVE",
"242 142 OFFCURVE",
"242 161 CURVE SMOOTH",
"242 324 LINE",
"254 361 OFFCURVE",
"299 421 OFFCURVE",
"339 421 CURVE",
"343 375 OFFCURVE",
"377 363 OFFCURVE",
"404 363 CURVE SMOOTH",
"455 362 OFFCURVE",
"474 403 OFFCURVE",
"474 433 CURVE SMOOTH",
"474 491 OFFCURVE",
"434 516 OFFCURVE",
"387 516 CURVE SMOOTH",
"339 516 OFFCURVE",
"294 490 OFFCURVE",
"241 424 CURVE",
"241 452 OFFCURVE",
"239 496 OFFCURVE",
"237 510 CURVE",
"188 510 LINE",
"174 497 OFFCURVE",
"126 480 OFFCURVE",
"74 480 CURVE",
"34 480 LINE",
"34 404 LINE",
"48 405 OFFCURVE",
"83 406 OFFCURVE",
"104 407 CURVE",
"101 377 OFFCURVE",
"100 346 OFFCURVE",
"100 322 CURVE SMOOTH",
"100 154 LINE SMOOTH",
"100 101 OFFCURVE",
"96 65 OFFCURVE",
"41 65 CURVE"
);
}
);
width = 480;
}
);
leftKerningGroup = n;
rightKerningGroup = r;
unicode = 0072;
},
{
color = 4;
glyphname = s;
layers = (
{
anchors = (
{
name = bottom;
position = "{278, 0}";
},
{
name = top;
position = "{229, 500}";
}
);
layerId = UUID0;
paths = (
{
closed = 1;
nodes = (
"334 -16 OFFCURVE",
"422 30 OFFCURVE",
"422 131 CURVE SMOOTH",
"422 221 OFFCURVE",
"342 255 OFFCURVE",
"266 287 CURVE SMOOTH",
"196 315 OFFCURVE",
"130 341 OFFCURVE",
"130 403 CURVE SMOOTH",
"130 443 OFFCURVE",
"166 479 OFFCURVE",
"228 479 CURVE SMOOTH",
"313 479 OFFCURVE",
"351 405 OFFCURVE",
"355 336 CURVE",
"387 336 LINE",
"387 511 LINE",
"345 511 LINE",
"347 473 LINE",
"306 506 OFFCURVE",
"259 516 OFFCURVE",
"223 516 CURVE SMOOTH",
"88 516 OFFCURVE",
"52 427 OFFCURVE",
"52 371 CURVE SMOOTH",
"52 270 OFFCURVE",
"143 238 OFFCURVE",
"223 207 CURVE SMOOTH",
"285 182 OFFCURVE",
"341 158 OFFCURVE",
"341 102 CURVE SMOOTH",
"341 48 OFFCURVE",
"282 23 OFFCURVE",
"231 23 CURVE SMOOTH",
"154 23 OFFCURVE",
"87 82 OFFCURVE",
"83 165 CURVE",
"52 165 LINE",
"58 -7 LINE",
"100 -7 LINE",
"96 28 LINE",
"129 5 OFFCURVE",
"182 -16 OFFCURVE",
"249 -16 CURVE SMOOTH"
);
}
);
width = 463;
},
{
anchors = (
{
name = bottom;
position = "{250, 0}";
},
{
name = top;
position = "{235, 500}";
}
);
layerId = "4C2B4986-1645-43C1-94B7-5E4C57EFF0D9";
paths = (
{
closed = 1;
nodes = (
"364 -16 OFFCURVE",
"453 34 OFFCURVE",
"453 138 CURVE SMOOTH",
"453 232 OFFCURVE",
"378 278 OFFCURVE",
"277 313 CURVE SMOOTH",
"208 336 OFFCURVE",
"155 346 OFFCURVE",
"155 393 CURVE SMOOTH",
"155 431 OFFCURVE",
"187 446 OFFCURVE",
"221 446 CURVE SMOOTH",
"293 446 OFFCURVE",
"346 403 OFFCURVE",
"358 334 CURVE",
"423 334 LINE",
"423 511 LINE",
"347 511 LINE",
"347 482 LINE",
"315 505 OFFCURVE",
"263 516 OFFCURVE",
"227 516 CURVE SMOOTH",
"96 516 OFFCURVE",
"39 432 OFFCURVE",
"39 355 CURVE SMOOTH",
"39 247 OFFCURVE",
"135 217 OFFCURVE",
"218 185 CURVE SMOOTH",
"293 156 OFFCURVE",
"333 144 OFFCURVE",
"334 106 CURVE SMOOTH",
"334 71 OFFCURVE",
"298 56 OFFCURVE",
"265 56 CURVE SMOOTH",
"180 56 OFFCURVE",
"116 104 OFFCURVE",
"110 165 CURVE",
"45 165 LINE",
"49 -7 LINE",
"125 -7 LINE",
"123 23 LINE",
"154 0 OFFCURVE",
"213 -16 OFFCURVE",
"271 -16 CURVE SMOOTH"
);
}
);
width = 485;
}
);
leftKerningGroup = s;
rightKerningGroup = s;
unicode = 0073;
},
{
color = 4;
glyphname = germandbls;
layers = (
{
background = {
paths = (
{
closed = 1;
nodes = (
"584 -16 OFFCURVE",
"653 31 OFFCURVE",
"653 132 CURVE SMOOTH",
"653 215 OFFCURVE",
"576 252 OFFCURVE",
"506 288 CURVE SMOOTH",
"446 318 OFFCURVE",
"390 348 OFFCURVE",
"390 403 CURVE SMOOTH",
"390 493 OFFCURVE",
"516 482 OFFCURVE",
"576 478 CURVE",
"578 490 OFFCURVE",
"579 500 OFFCURVE",
"579 507 CURVE SMOOTH",
"588 726 OFFCURVE",
"423 760 OFFCURVE",
"348 760 CURVE SMOOTH",
"188 760 OFFCURVE",
"107 649 OFFCURVE",
"107 501 CURVE SMOOTH",
"107 500 LINE",
"25 500 LINE",
"25 455 LINE",
"107 457 LINE",
"108 152 LINE SMOOTH",
"108 80 OFFCURVE",
"110 30 OFFCURVE",
"49 30 CURVE",
"49 0 LINE",
"253 0 LINE",
"253 41 LINE",
"232 40 OFFCURVE",
"211 39 OFFCURVE",
"190 38 CURVE",
"194 61 OFFCURVE",
"194 79 OFFCURVE",
"194 106 CURVE SMOOTH",
"193 458 LINE SMOOTH",
"193 600 OFFCURVE",
"217 715 OFFCURVE",
"344 717 CURVE SMOOTH",
"396 718 OFFCURVE",
"496 709 OFFCURVE",
"493 516 CURVE",
"375 519 OFFCURVE",
"311 461 OFFCURVE",
"311 371 CURVE SMOOTH",
"311 280 OFFCURVE",
"391 244 OFFCURVE",
"462 210 CURVE SMOOTH",
"518 183 OFFCURVE",
"569 156 OFFCURVE",
"569 104 CURVE SMOOTH",
"569 51 OFFCURVE",
"526 23 OFFCURVE",
"481 23 CURVE SMOOTH",
"404 23 OFFCURVE",
"359 81 OFFCURVE",
"354 164 CURVE",
"323 164 LINE",
"329 -8 LINE",
"371 -8 LINE",
"368 16 LINE",
"403 -5 OFFCURVE",
"454 -16 OFFCURVE",
"483 -16 CURVE SMOOTH"
);
}
);
};
layerId = UUID0;
paths = (
{
closed = 1;
nodes = (
"584 -16 OFFCURVE",
"653 31 OFFCURVE",
"653 132 CURVE SMOOTH",
"653 215 OFFCURVE",
"576 252 OFFCURVE",
"506 288 CURVE SMOOTH",
"446 318 OFFCURVE",
"390 348 OFFCURVE",
"390 403 CURVE SMOOTH",
"390 493 OFFCURVE",
"516 482 OFFCURVE",
"576 478 CURVE",
"579 496 OFFCURVE",
"581 514 OFFCURVE",
"581 532 CURVE SMOOTH",
"581 665 OFFCURVE",
"491 760 OFFCURVE",
"348 760 CURVE SMOOTH",
"188 760 OFFCURVE",
"107 649 OFFCURVE",
"107 500 CURVE",
"25 500 LINE",
"25 455 LINE",
"107 457 LINE",
"108 152 LINE SMOOTH",
"108 80 OFFCURVE",
"110 30 OFFCURVE",
"49 30 CURVE",
"49 0 LINE",
"253 0 LINE",
"253 41 LINE",
"232 40 OFFCURVE",
"211 39 OFFCURVE",
"190 38 CURVE",
"194 61 OFFCURVE",
"194 79 OFFCURVE",
"194 106 CURVE SMOOTH",
"193 458 LINE SMOOTH",
"193 600 OFFCURVE",
"217 715 OFFCURVE",
"344 717 CURVE SMOOTH",
"396 718 OFFCURVE",
"496 709 OFFCURVE",
"493 516 CURVE",
"375 519 OFFCURVE",
"311 461 OFFCURVE",
"311 371 CURVE SMOOTH",
"311 280 OFFCURVE",
"391 244 OFFCURVE",
"462 210 CURVE SMOOTH",
"518 183 OFFCURVE",
"569 156 OFFCURVE",
"569 104 CURVE SMOOTH",
"569 51 OFFCURVE",
"526 23 OFFCURVE",
"481 23 CURVE SMOOTH",
"404 23 OFFCURVE",
"359 81 OFFCURVE",
"354 164 CURVE",
"323 164 LINE",
"329 -8 LINE",
"371 -8 LINE",
"368 16 LINE",
"403 -5 OFFCURVE",
"454 -16 OFFCURVE",
"483 -16 CURVE SMOOTH"
);
}
);
width = 681;
},
{
layerId = "4C2B4986-1645-43C1-94B7-5E4C57EFF0D9";
paths = (
{
closed = 1;
nodes = (
"673 -16 OFFCURVE",
"757 34 OFFCURVE",
"757 138 CURVE SMOOTH",
"757 232 OFFCURVE",
"687 282 OFFCURVE",
"586 316 CURVE SMOOTH",
"517 340 OFFCURVE",
"483 352 OFFCURVE",
"483 393 CURVE SMOOTH",
"484 445 OFFCURVE",
"557 449 OFFCURVE",
"624 444 CURVE",
"626 463 OFFCURVE",
"627 481 OFFCURVE",
"627 498 CURVE SMOOTH",
"627 738 OFFCURVE",
"445 755 OFFCURVE",
"375 755 CURVE SMOOTH",
"235 755 OFFCURVE",
"119 699 OFFCURVE",
"104 500 CURVE",
"30 500 LINE",
"30 417 LINE",
"102 419 LINE",
"102 154 LINE SMOOTH",
"102 101 OFFCURVE",
"98 65 OFFCURVE",
"42 65 CURVE",
"42 0 LINE",
"310 0 LINE",
"310 76 LINE",
"295 76 OFFCURVE",
"261 75 OFFCURVE",
"240 73 CURVE",
"243 103 OFFCURVE",
"244 144 OFFCURVE",
"244 163 CURVE",
"244 487 LINE SMOOTH",
"244 640 OFFCURVE",
"308 678 OFFCURVE",
"368 680 CURVE SMOOTH",
"418 681 OFFCURVE",
"493 665 OFFCURVE",
"494 512 CURVE",
"403 494 OFFCURVE",
"367 427 OFFCURVE",
"367 360 CURVE SMOOTH",
"367 252 OFFCURVE",
"444 221 OFFCURVE",
"527 189 CURVE SMOOTH",
"603 160 OFFCURVE",
"638 144 OFFCURVE",
"638 106 CURVE SMOOTH",
"639 74 OFFCURVE",
"603 56 OFFCURVE",
"574 56 CURVE SMOOTH",
"489 56 OFFCURVE",
"444 104 OFFCURVE",
"438 165 CURVE",
"374 165 LINE",
"378 -7 LINE",
"454 -7 LINE",
"452 23 LINE",
"483 0 OFFCURVE",
"522 -16 OFFCURVE",
"580 -16 CURVE SMOOTH"
);
}
);
width = 771;
}
);
leftKerningGroup = f;
unicode = 00DF;
},
{
color = 7;
glyphname = longs;
layers = (
{
layerId = UUID0;
paths = (
{
closed = 1;
nodes = (
"253 0 LINE",
"253 41 LINE",
"232 40 OFFCURVE",
"211 39 OFFCURVE",
"190 38 CURVE",
"194 61 OFFCURVE",
"194 79 OFFCURVE",
"194 106 CURVE",
"193 605 LINE",
"193 662 OFFCURVE",
"210 724 OFFCURVE",
"272 724 CURVE SMOOTH",
"286 724 OFFCURVE",
"305 719 OFFCURVE",
"315 707 CURVE",
"311 698 OFFCURVE",
"310 690 OFFCURVE",
"310 682 CURVE SMOOTH",
"310 667 OFFCURVE",
"321 640 OFFCURVE",
"353 641 CURVE SMOOTH",
"379 641 OFFCURVE",
"394 661 OFFCURVE",
"394 686 CURVE SMOOTH",
"394 738 OFFCURVE",
"330 760 OFFCURVE",
"287 760 CURVE SMOOTH",
"155 760 OFFCURVE",
"107 669 OFFCURVE",
"107 521 CURVE SMOOTH",
"107 500 LINE",
"25 500 LINE",
"25 455 LINE",
"107 457 LINE",
"108 152 LINE SMOOTH",
"108 80 OFFCURVE",
"110 30 OFFCURVE",
"49 30 CURVE",
"49 0 LINE"
);
}
);
width = 338;
},
{
layerId = "4C2B4986-1645-43C1-94B7-5E4C57EFF0D9";
paths = (
{
closed = 1;
nodes = (
"310 0 LINE",
"310 76 LINE",
"296 76 OFFCURVE",
"262 75 OFFCURVE",
"240 73 CURVE",
"243 103 OFFCURVE",
"244 144 OFFCURVE",
"244 163 CURVE",
"242 623 LINE",
"242 652 OFFCURVE",
"249 684 OFFCURVE",
"282 685 CURVE SMOOTH",
"288 685 OFFCURVE",
"298 684 OFFCURVE",
"305 677 CURVE",
"303 670 OFFCURVE",
"303 664 OFFCURVE",
"303 657 CURVE SMOOTH",
"303 623 OFFCURVE",
"325 599 OFFCURVE",
"364 600 CURVE SMOOTH",
"404 601 OFFCURVE",
"426 632 OFFCURVE",
"426 667 CURVE SMOOTH",
"426 708 OFFCURVE",
"393 755 OFFCURVE",
"299 755 CURVE SMOOTH",
"179 755 OFFCURVE",
"103 690 OFFCURVE",
"103 529 CURVE SMOOTH",
"103 500 LINE",
"30 500 LINE",
"30 417 LINE",
"103 418 LINE",
"103 154 LINE SMOOTH",
"103 101 OFFCURVE",
"99 65 OFFCURVE",
"43 65 CURVE",
"43 0 LINE"
);
}
);
width = 369;
}
);
unicode = 017F;
},
{
color = 4;
glyphname = t;
layers = (
{
anchors = (
{
name = bottom;
position = "{253, 0}";
},
{
name = center;
position = "{174, 250}";
}
);
layerId = UUID0;
paths = (
{
closed = 1;
nodes = (
"265 -16 OFFCURVE",
"324 -9 OFFCURVE",
"383 79 CURVE",
"356 101 LINE",
"330 63 OFFCURVE",
"297 41 OFFCURVE",
"260 41 CURVE SMOOTH",
"205 41 OFFCURVE",
"184 90 OFFCURVE",
"184 181 CURVE",
"186 459 LINE",
"354 461 LINE",
"354 500 LINE",
"186 500 LINE",
"186 640 LINE",
"152 640 LINE",
"135 563 OFFCURVE",
"72 501 OFFCURVE",
"21 500 CURVE",
"21 457 LINE",
"98 458 LINE",
"96 168 LINE SMOOTH",
"95 8 OFFCURVE",
"171 -16 OFFCURVE",
"232 -16 CURVE SMOOTH"
);
}
);
width = 387;
},
{
anchors = (
{
name = bottom;
position = "{247, 0}";
},
{
name = center;
position = "{207, 250}";
}
);
layerId = "4C2B4986-1645-43C1-94B7-5E4C57EFF0D9";
paths = (
{
closed = 1;
nodes = (
"261 -16 OFFCURVE",
"353 -14 OFFCURVE",
"425 92 CURVE",
"377 137 LINE",
"339 84 OFFCURVE",
"305 77 OFFCURVE",
"286 77 CURVE SMOOTH",
"236 77 OFFCURVE",
"226 128 OFFCURVE",
"226 174 CURVE",
"227 420 LINE",
"354 423 LINE",
"354 500 LINE",
"227 500 LINE",
"228 640 LINE",
"154 640 LINE",
"140 569 OFFCURVE",
"79 501 OFFCURVE",
"17 500 CURVE",
"17 417 LINE",
"85 417 LINE",
"83 176 LINE SMOOTH",
"83 9 OFFCURVE",
"160 -16 OFFCURVE",
"239 -16 CURVE SMOOTH"
);
}
);
width = 413;
}
);
leftKerningGroup = t;
rightKerningGroup = t;
unicode = 0074;
},
{
color = 7;
glyphname = tbar;
layers = (
{
components = (
{
name = t;
}
);
layerId = UUID0;
paths = (
{
closed = 1;
nodes = (
"346 289 LINE",
"346 328 LINE",
"31 328 LINE",
"31 285 LINE"
);
}
);
width = 387;
},
{
components = (
{
name = t;
}
);
layerId = "4C2B4986-1645-43C1-94B7-5E4C57EFF0D9";
paths = (
{
closed = 1;
nodes = (
"346 279 LINE",
"346 328 LINE",
"31 328 LINE",
"31 275 LINE"
);
}
);
width = 413;
}
);
unicode = 0167;
},
{
color = 4;
glyphname = tcaron;
layers = (
{
layerId = UUID0;
paths = (
{
closed = 1;
nodes = (
"265 -16 OFFCURVE",
"324 -9 OFFCURVE",
"383 79 CURVE",
"356 101 LINE",
"330 63 OFFCURVE",
"297 41 OFFCURVE",
"260 41 CURVE SMOOTH",
"205 41 OFFCURVE",
"184 90 OFFCURVE",
"184 181 CURVE",
"186 459 LINE",
"354 461 LINE",
"354 500 LINE",
"186 500 LINE",
"186 640 LINE",
"152 640 LINE",
"135 563 OFFCURVE",
"72 501 OFFCURVE",
"21 500 CURVE",
"21 457 LINE",
"98 458 LINE",
"96 168 LINE SMOOTH",
"95 8 OFFCURVE",
"171 -16 OFFCURVE",
"232 -16 CURVE SMOOTH"
);
},
{
closed = 1;
nodes = (
"345 611 OFFCURVE",
"381 668 OFFCURVE",
"381 722 CURVE SMOOTH",
"381 740 OFFCURVE",
"378 757 OFFCURVE",
"370 773 CURVE",
"301 786 LINE",
"316 727 OFFCURVE",
"317 669 OFFCURVE",
"273 585 CURVE",
"299 565 LINE"
);
}
);
width = 387;
},
{
layerId = "4C2B4986-1645-43C1-94B7-5E4C57EFF0D9";
paths = (
{
closed = 1;
nodes = (
"261 -16 OFFCURVE",
"353 -14 OFFCURVE",
"425 92 CURVE",
"377 137 LINE",
"339 84 OFFCURVE",
"305 77 OFFCURVE",
"286 77 CURVE SMOOTH",
"236 77 OFFCURVE",
"226 128 OFFCURVE",
"226 174 CURVE",
"227 420 LINE",
"354 423 LINE",
"354 500 LINE",
"227 500 LINE",
"228 640 LINE",
"154 640 LINE",
"140 569 OFFCURVE",
"79 501 OFFCURVE",
"17 500 CURVE",
"17 417 LINE",
"85 417 LINE",
"83 176 LINE SMOOTH",
"83 9 OFFCURVE",
"160 -16 OFFCURVE",
"239 -16 CURVE SMOOTH"
);
},
{
closed = 1;
nodes = (
"366 599 OFFCURVE",
"410 662 OFFCURVE",
"410 728 CURVE SMOOTH",
"410 745 OFFCURVE",
"406 758 OFFCURVE",
"396 778 CURVE",
"307 795 LINE",
"324 731 OFFCURVE",
"329 672 OFFCURVE",
"280 582 CURVE",
"319 553 LINE"
);
}
);
width = 413;
}
);
leftKerningGroup = t;
rightKerningGroup = t;
unicode = 0165;
userData = {
public.markColor = "0.75,0.75,0.75,1";
};
},
{
color = 4;
glyphname = u;
layers = (
{
anchors = (
{
name = bottom;
position = "{299, 0}";
},
{
name = ogonek;
position = "{567, 0}";
},
{
name = top;
position = "{296, 500}";
},
{
name = topright;
position = "{554, 500}";
}
);
background = {
paths = (
{
closed = 1;
nodes = (
"313 -16 OFFCURVE",
"377 19 OFFCURVE",
"418 60 CURVE",
"419 42 OFFCURVE",
"421 23 OFFCURVE",
"425 0 CURVE",
"568 0 LINE",
"568 42 LINE",
"544 41 OFFCURVE",
"520 39 OFFCURVE",
"496 38 CURVE",
"499 65 OFFCURVE",
"500 111 OFFCURVE",
"500 132 CURVE SMOOTH",
"501 510 LINE",
"472 510 LINE",
"457 496 OFFCURVE",
"436 483 OFFCURVE",
"379 483 CURVE SMOOTH",
"348 483 LINE",
"348 442 LINE",
"420 445 LINE",
"416 422 OFFCURVE",
"415 401 OFFCURVE",
"415 369 CURVE SMOOTH",
"415 112 LINE",
"387 71 OFFCURVE",
"337 36 OFFCURVE",
"287 35 CURVE SMOOTH",
"208 34 OFFCURVE",
"179 90 OFFCURVE",
"179 205 CURVE SMOOTH",
"179 510 LINE",
"150 510 LINE",
"135 496 OFFCURVE",
"114 483 OFFCURVE",
"57 483 CURVE SMOOTH",
"26 483 LINE",
"26 442 LINE",
"49 443 OFFCURVE",
"72 444 OFFCURVE",
"95 445 CURVE",
"91 422 OFFCURVE",
"91 401 OFFCURVE",
"91 380 CURVE SMOOTH",
"91 202 LINE SMOOTH",
"91 37 OFFCURVE",
"146 -16 OFFCURVE",
"255 -16 CURVE SMOOTH"
);
}
);
};
layerId = UUID0;
paths = (
{
closed = 1;
nodes = (
"313 -16 OFFCURVE",
"377 19 OFFCURVE",
"418 60 CURVE",
"419 42 OFFCURVE",
"421 23 OFFCURVE",
"425 0 CURVE",
"568 0 LINE",
"568 42 LINE",
"544 41 OFFCURVE",
"520 39 OFFCURVE",
"496 38 CURVE",
"499 65 OFFCURVE",
"500 111 OFFCURVE",
"500 132 CURVE SMOOTH",
"501 510 LINE",
"472 510 LINE",
"457 496 OFFCURVE",
"436 483 OFFCURVE",
"379 483 CURVE SMOOTH",
"348 483 LINE",
"348 442 LINE",
"372 443 OFFCURVE",
"396 444 OFFCURVE",
"420 445 CURVE",
"416 422 OFFCURVE",
"415 401 OFFCURVE",
"415 369 CURVE SMOOTH",
"415 112 LINE",
"387 71 OFFCURVE",
"337 36 OFFCURVE",
"287 35 CURVE SMOOTH",
"208 34 OFFCURVE",
"179 90 OFFCURVE",
"179 205 CURVE SMOOTH",
"179 510 LINE",
"150 510 LINE",
"135 496 OFFCURVE",
"114 483 OFFCURVE",
"57 483 CURVE SMOOTH",
"26 483 LINE",
"26 442 LINE",
"49 443 OFFCURVE",
"72 444 OFFCURVE",
"95 445 CURVE",
"91 422 OFFCURVE",
"91 401 OFFCURVE",
"91 380 CURVE SMOOTH",
"91 202 LINE SMOOTH",
"91 37 OFFCURVE",
"146 -16 OFFCURVE",
"255 -16 CURVE SMOOTH"
);
}
);
width = 597;
},
{
anchors = (
{
name = bottom;
position = "{309, 0}";
},
{
name = ogonek;
position = "{594, 0}";
},
{
name = top;
position = "{316, 500}";
},
{
name = topright;
position = "{572, 500}";
}
);
background = {
paths = (
{
closed = 1;
nodes = (
"312 -16 OFFCURVE",
"357 17 OFFCURVE",
"398 52 CURVE",
"400 35 OFFCURVE",
"402 17 OFFCURVE",
"404 0 CURVE",
"594 0 LINE",
"594 76 LINE",
"580 76 OFFCURVE",
"550 75 OFFCURVE",
"529 73 CURVE",
"532 103 OFFCURVE",
"533 142 OFFCURVE",
"533 161 CURVE SMOOTH",
"533 510 LINE",
"478 510 LINE",
"464 497 OFFCURVE",
"417 480 OFFCURVE",
"325 480 CURVE",
"325 404 LINE",
"339 405 OFFCURVE",
"374 406 OFFCURVE",
"395 407 CURVE",
"392 377 OFFCURVE",
"391 344 OFFCURVE",
"391 320 CURVE SMOOTH",
"391 124 LINE",
"368 98 OFFCURVE",
"329 76 OFFCURVE",
"295 76 CURVE SMOOTH",
"245 76 OFFCURVE",
"224 117 OFFCURVE",
"224 204 CURVE SMOOTH",
"224 510 LINE",
"169 510 LINE",
"155 497 OFFCURVE",
"108 480 OFFCURVE",
"15 480 CURVE",
"15 404 LINE",
"29 405 OFFCURVE",
"64 406 OFFCURVE",
"85 407 CURVE",
"83 377 OFFCURVE",
"82 344 OFFCURVE",
"82 320 CURVE SMOOTH",
"82 205 LINE SMOOTH",
"82 51 OFFCURVE",
"128 -16 OFFCURVE",
"248 -16 CURVE SMOOTH"
);
}
);
};
layerId = "4C2B4986-1645-43C1-94B7-5E4C57EFF0D9";
paths = (
{
closed = 1;
nodes = (
"312 -16 OFFCURVE",
"357 17 OFFCURVE",
"398 52 CURVE",
"400 35 OFFCURVE",
"402 17 OFFCURVE",
"404 0 CURVE",
"594 0 LINE",
"594 76 LINE",
"580 76 OFFCURVE",
"550 75 OFFCURVE",
"529 73 CURVE",
"532 103 OFFCURVE",
"533 142 OFFCURVE",
"533 161 CURVE SMOOTH",
"533 510 LINE",
"478 510 LINE",
"465 498 OFFCURVE",
"412 480 OFFCURVE",
"349 480 CURVE SMOOTH",
"325 480 LINE",
"325 404 LINE",
"339 405 OFFCURVE",
"374 406 OFFCURVE",
"395 407 CURVE",
"392 377 OFFCURVE",
"391 344 OFFCURVE",
"391 320 CURVE SMOOTH",
"391 124 LINE",
"368 98 OFFCURVE",
"329 76 OFFCURVE",
"295 76 CURVE SMOOTH",
"245 76 OFFCURVE",
"224 117 OFFCURVE",
"224 204 CURVE SMOOTH",
"224 510 LINE",
"169 510 LINE",
"155 497 OFFCURVE",
"108 480 OFFCURVE",
"25 480 CURVE SMOOTH",
"15 480 LINE",
"15 404 LINE",
"29 405 OFFCURVE",
"64 406 OFFCURVE",
"85 407 CURVE",
"83 377 OFFCURVE",
"82 344 OFFCURVE",
"82 320 CURVE SMOOTH",
"82 205 LINE SMOOTH",
"82 51 OFFCURVE",
"128 -16 OFFCURVE",
"248 -16 CURVE SMOOTH"
);
}
);
width = 618;
}
);
leftKerningGroup = u;
rightKerningGroup = u;
unicode = 0075;
},
{
color = 4;
glyphname = v;
layers = (
{
layerId = UUID0;
paths = (
{
closed = 1;
nodes = (
"274 -3 LINE",
"405 335 LINE SMOOTH",
"440 425 OFFCURVE",
"458 470 OFFCURVE",
"502 470 CURVE",
"502 500 LINE",
"344 500 LINE",
"344 459 LINE",
"408 462 LINE",
"402 450 OFFCURVE",
"389 425 OFFCURVE",
"378 393 CURVE SMOOTH",
"298 174 LINE SMOOTH",
"291 152 OFFCURVE",
"282 129 OFFCURVE",
"275 109 CURVE",
"274 109 LINE",
"264 135 OFFCURVE",
"254 160 OFFCURVE",
"244 183 CURVE SMOOTH",
"167 359 LINE SMOOTH",
"142 417 OFFCURVE",
"129 470 OFFCURVE",
"190 470 CURVE",
"190 500 LINE",
"6 500 LINE",
"6 459 LINE",
"49 462 LINE",
"50 439 OFFCURVE",
"58 399 OFFCURVE",
"91 323 CURVE SMOOTH",
"234 -3 LINE"
);
}
);
width = 505;
},
{
layerId = "4C2B4986-1645-43C1-94B7-5E4C57EFF0D9";
paths = (
{
closed = 1;
nodes = (
"314 -3 LINE",
"442 316 LINE SMOOTH",
"458 356 OFFCURVE",
"488 428 OFFCURVE",
"535 436 CURVE",
"535 500 LINE",
"345 500 LINE",
"345 424 LINE",
"407 428 LINE",
"395 407 OFFCURVE",
"386 390 OFFCURVE",
"374 357 CURVE SMOOTH",
"331 235 LINE",
"321 207 OFFCURVE",
"311 179 OFFCURVE",
"301 151 CURVE",
"300 151 LINE",
"289 177 OFFCURVE",
"279 204 OFFCURVE",
"268 230 CURVE",
"216 358 LINE SMOOTH",
"202 398 OFFCURVE",
"198 434 OFFCURVE",
"240 436 CURVE",
"240 500 LINE",
"6 500 LINE",
"6 424 LINE",
"43 426 LINE",
"48 402 OFFCURVE",
"47 393 OFFCURVE",
"69 344 CURVE SMOOTH",
"227 -3 LINE"
);
}
);
width = 538;
}
);
unicode = 0076;
},
{
color = 4;
glyphname = w;
layers = (
{
anchors = (
{
name = top;
position = "{400, 500}";
}
);
layerId = UUID0;
paths = (
{
closed = 1;
nodes = (
"254 -3 LINE",
"348 270 LINE",
"360 305 OFFCURVE",
"372 340 OFFCURVE",
"384 375 CURVE",
"396 340 OFFCURVE",
"408 305 OFFCURVE",
"420 270 CURVE",
"515 -3 LINE",
"555 -3 LINE",
"699 391 LINE SMOOTH",
"716 438 OFFCURVE",
"731 466 OFFCURVE",
"800 470 CURVE",
"800 500 LINE",
"626 500 LINE",
"626 459 LINE",
"684 462 LINE",
"672 447 OFFCURVE",
"663 422 OFFCURVE",
"654 395 CURVE SMOOTH",
"588 205 LINE",
"578 176 OFFCURVE",
"568 147 OFFCURVE",
"558 118 CURVE",
"547 148 OFFCURVE",
"537 179 OFFCURVE",
"526 209 CURVE",
"425 500 LINE",
"384 500 LINE",
"295 235 LINE",
"283 198 OFFCURVE",
"270 161 OFFCURVE",
"258 125 CURVE",
"247 157 OFFCURVE",
"237 190 OFFCURVE",
"226 222 CURVE",
"180 362 LINE SMOOTH",
"158 426 OFFCURVE",
"158 468 OFFCURVE",
"218 470 CURVE",
"218 500 LINE",
"6 500 LINE",
"6 459 LINE",
"59 462 LINE",
"63 446 OFFCURVE",
"70 423 OFFCURVE",
"85 381 CURVE SMOOTH",
"216 -3 LINE"
);
}
);
width = 801;
},
{
anchors = (
{
name = top;
position = "{418, 500}";
}
);
layerId = "4C2B4986-1645-43C1-94B7-5E4C57EFF0D9";
paths = (
{
closed = 1;
nodes = (
"292 -3 LINE",
"347 162 LINE SMOOTH",
"354 184 OFFCURVE",
"383 277 OFFCURVE",
"394 333 CURVE",
"405 291 OFFCURVE",
"422 232 OFFCURVE",
"429 210 CURVE SMOOTH",
"498 -3 LINE",
"604 -3 LINE",
"718 328 LINE SMOOTH",
"727 354 OFFCURVE",
"755 436 OFFCURVE",
"808 436 CURVE",
"808 500 LINE",
"618 500 LINE",
"618 424 LINE",
"675 428 LINE",
"663 404 OFFCURVE",
"657 384 OFFCURVE",
"646 348 CURVE SMOOTH",
"607 221 LINE SMOOTH",
"599 196 OFFCURVE",
"588 160 OFFCURVE",
"583 134 CURVE",
"576 161 OFFCURVE",
"567 196 OFFCURVE",
"559 224 CURVE SMOOTH",
"479 500 LINE",
"370 500 LINE",
"297 249 LINE SMOOTH",
"282 199 OFFCURVE",
"277 169 OFFCURVE",
"270 141 CURVE",
"265 173 OFFCURVE",
"257 207 OFFCURVE",
"249 236 CURVE SMOOTH",
"215 358 LINE SMOOTH",
"204 399 OFFCURVE",
"206 434 OFFCURVE",
"248 436 CURVE",
"248 500 LINE",
"8 500 LINE",
"8 424 LINE",
"47 426 LINE",
"52 402 OFFCURVE",
"54 395 OFFCURVE",
"72 344 CURVE SMOOTH",
"193 -3 LINE"
);
}
);
width = 811;
}
);
unicode = 0077;
},
{
color = 4;
glyphname = x;
layers = (
{
layerId = UUID0;
paths = (
{
closed = 1;
nodes = (
"192 0 LINE",
"192 41 LINE",
"115 38 LINE",
"135 59 OFFCURVE",
"141 67 OFFCURVE",
"161 94 CURVE SMOOTH",
"245 209 LINE",
"350 79 LINE SMOOTH",
"378 44 OFFCURVE",
"358 30 OFFCURVE",
"326 30 CURVE",
"326 0 LINE",
"519 0 LINE",
"519 41 LINE",
"474 38 LINE",
"459 63 OFFCURVE",
"445 80 OFFCURVE",
"430 100 CURVE SMOOTH",
"292 271 LINE",
"369 363 LINE SMOOTH",
"423 428 OFFCURVE",
"443 454 OFFCURVE",
"498 470 CURVE",
"498 500 LINE",
"334 500 LINE",
"334 459 LINE",
"403 463 LINE",
"389 449 OFFCURVE",
"378 434 OFFCURVE",
"358 410 CURVE SMOOTH",
"267 300 LINE",
"209 379 LINE SMOOTH",
"159 447 OFFCURVE",
"168 468 OFFCURVE",
"228 470 CURVE",
"228 500 LINE",
"22 500 LINE",
"22 459 LINE",
"69 461 LINE",
"76 443 OFFCURVE",
"88 416 OFFCURVE",
"120 374 CURVE SMOOTH",
"139 349 OFFCURVE",
"190 279 OFFCURVE",
"219 241 CURVE",
"119 111 LINE SMOOTH",
"82 63 OFFCURVE",
"65 40 OFFCURVE",
"24 30 CURVE",
"24 0 LINE"
);
}
);
width = 530;
},
{
layerId = "4C2B4986-1645-43C1-94B7-5E4C57EFF0D9";
paths = (
{
closed = 1;
nodes = (
"206 0 LINE",
"206 76 LINE",
"160 72 LINE",
"172 81 OFFCURVE",
"198 111 OFFCURVE",
"205 120 CURVE SMOOTH",
"252 176 LINE",
"312 113 LINE SMOOTH",
"336 86 OFFCURVE",
"337 66 OFFCURVE",
"295 64 CURVE",
"295 0 LINE",
"531 0 LINE",
"531 76 LINE",
"497 74 LINE",
"484 98 OFFCURVE",
"467 118 OFFCURVE",
"449 139 CURVE SMOOTH",
"333 274 LINE",
"400 356 LINE SMOOTH",
"429 393 OFFCURVE",
"460 419 OFFCURVE",
"500 436 CURVE",
"500 500 LINE",
"324 500 LINE",
"324 424 LINE",
"373 428 LINE",
"355 411 OFFCURVE",
"340 392 OFFCURVE",
"324 373 CURVE SMOOTH",
"285 327 LINE",
"239 381 LINE SMOOTH",
"215 409 OFFCURVE",
"205 434 OFFCURVE",
"242 436 CURVE",
"242 500 LINE",
"21 500 LINE",
"21 424 LINE",
"48 426 LINE",
"57 402 OFFCURVE",
"89 364 OFFCURVE",
"105 344 CURVE SMOOTH",
"138 306 OFFCURVE",
"170 267 OFFCURVE",
"203 229 CURVE",
"116 129 LINE SMOOTH",
"89 98 OFFCURVE",
"67 75 OFFCURVE",
"40 64 CURVE",
"40 0 LINE"
);
}
);
width = 548;
}
);
unicode = 0078;
},
{
color = 4;
glyphname = y;
layers = (
{
anchors = (
{
name = bottom;
position = "{358, 0}";
},
{
name = top;
position = "{287, 500}";
}
);
background = {
paths = (
{
closed = 1;
nodes = (
"210 -271 OFFCURVE",
"246 -177 OFFCURVE",
"306 -9 CURVE SMOOTH",
"431 340 LINE SMOOTH",
"456 408 OFFCURVE",
"474 451 OFFCURVE",
"524 470 CURVE",
"524 500 LINE",
"367 500 LINE",
"367 459 LINE",
"436 463 LINE",
"422 452 OFFCURVE",
"402 396 OFFCURVE",
"387 352 CURVE SMOOTH",
"359 269 OFFCURVE",
"331 186 OFFCURVE",
"301 101 CURVE",
"184 352 LINE SMOOTH",
"148 429 OFFCURVE",
"151 466 OFFCURVE",
"207 470 CURVE SMOOTH",
"211 470 LINE",
"211 500 LINE",
"4 500 LINE",
"4 459 LINE",
"52 461 LINE",
"57 439 OFFCURVE",
"70 398 OFFCURVE",
"105 323 CURVE SMOOTH",
"261 -11 LINE",
"232 -92 OFFCURVE",
"208 -153 OFFCURVE",
"191 -182 CURVE SMOOTH",
"176 -208 OFFCURVE",
"156 -221 OFFCURVE",
"140 -221 CURVE SMOOTH",
"136 -221 OFFCURVE",
"132 -221 OFFCURVE",
"129 -219 CURVE",
"130 -214 OFFCURVE",
"130 -209 OFFCURVE",
"130 -205 CURVE SMOOTH",
"130 -189 OFFCURVE",
"121 -161 OFFCURVE",
"89 -162 CURVE SMOOTH",
"63 -162 OFFCURVE",
"46 -186 OFFCURVE",
"46 -210 CURVE SMOOTH",
"46 -251 OFFCURVE",
"80 -271 OFFCURVE",
"121 -271 CURVE SMOOTH"
);
}
);
};
layerId = UUID0;
paths = (
{
closed = 1;
nodes = (
"210 -271 OFFCURVE",
"246 -177 OFFCURVE",
"306 -9 CURVE SMOOTH",
"431 340 LINE SMOOTH",
"456 408 OFFCURVE",
"474 451 OFFCURVE",
"524 470 CURVE",
"524 500 LINE",
"367 500 LINE",
"367 459 LINE",
"436 463 LINE",
"422 452 OFFCURVE",
"402 396 OFFCURVE",
"387 352 CURVE SMOOTH",
"359 269 OFFCURVE",
"331 186 OFFCURVE",
"301 101 CURVE",
"184 352 LINE SMOOTH",
"148 429 OFFCURVE",
"151 466 OFFCURVE",
"207 470 CURVE SMOOTH",
"211 470 LINE",
"211 500 LINE",
"4 500 LINE",
"4 459 LINE",
"52 461 LINE",
"57 439 OFFCURVE",
"70 398 OFFCURVE",
"105 323 CURVE SMOOTH",
"261 -11 LINE",
"232 -92 OFFCURVE",
"208 -153 OFFCURVE",
"191 -182 CURVE SMOOTH",
"176 -208 OFFCURVE",
"156 -221 OFFCURVE",
"140 -221 CURVE SMOOTH",
"136 -221 OFFCURVE",
"132 -221 OFFCURVE",
"129 -219 CURVE",
"130 -214 OFFCURVE",
"130 -209 OFFCURVE",
"130 -205 CURVE SMOOTH",
"130 -189 OFFCURVE",
"121 -161 OFFCURVE",
"89 -162 CURVE SMOOTH",
"63 -162 OFFCURVE",
"46 -186 OFFCURVE",
"46 -210 CURVE SMOOTH",
"46 -251 OFFCURVE",
"80 -271 OFFCURVE",
"121 -271 CURVE SMOOTH"
);
}
);
width = 528;
},
{
anchors = (
{
name = bottom;
position = "{396, 0}";
},
{
name = top;
position = "{295, 500}";
}
);
background = {
paths = (
{
closed = 1;
nodes = (
"239 -271 OFFCURVE",
"278 -198 OFFCURVE",
"334 -35 CURVE SMOOTH",
"459 322 LINE SMOOTH",
"480 382 OFFCURVE",
"506 426 OFFCURVE",
"547 436 CURVE",
"547 500 LINE",
"369 500 LINE",
"369 424 LINE",
"426 427 LINE",
"408 405 OFFCURVE",
"392 358 OFFCURVE",
"384 333 CURVE SMOOTH",
"355 247 OFFCURVE",
"333 168 OFFCURVE",
"320 134 CURVE",
"222 358 LINE SMOOTH",
"206 392 OFFCURVE",
"203 430 OFFCURVE",
"254 436 CURVE",
"254 500 LINE",
"5 500 LINE",
"5 424 LINE",
"51 426 LINE",
"55 396 OFFCURVE",
"61 365 OFFCURVE",
"99 291 CURVE SMOOTH",
"257 -26 LINE",
"234 -110 OFFCURVE",
"199 -190 OFFCURVE",
"172 -190 CURVE",
"173 -185 OFFCURVE",
"173 -181 OFFCURVE",
"173 -177 CURVE SMOOTH",
"173 -141 OFFCURVE",
"149 -119 OFFCURVE",
"120 -120 CURVE SMOOTH",
"83 -121 OFFCURVE",
"57 -153 OFFCURVE",
"57 -189 CURVE SMOOTH",
"57 -238 OFFCURVE",
"97 -271 OFFCURVE",
"148 -271 CURVE SMOOTH"
);
}
);
};
layerId = "4C2B4986-1645-43C1-94B7-5E4C57EFF0D9";
paths = (
{
closed = 1;
nodes = (
"239 -271 OFFCURVE",
"278 -198 OFFCURVE",
"334 -35 CURVE SMOOTH",
"459 322 LINE SMOOTH",
"480 382 OFFCURVE",
"506 426 OFFCURVE",
"547 436 CURVE",
"547 500 LINE",
"369 500 LINE",
"369 424 LINE",
"426 427 LINE",
"408 405 OFFCURVE",
"392 358 OFFCURVE",
"384 333 CURVE SMOOTH",
"355 247 OFFCURVE",
"333 168 OFFCURVE",
"320 134 CURVE",
"222 358 LINE SMOOTH",
"206 392 OFFCURVE",
"205 430 OFFCURVE",
"254 436 CURVE",
"254 436 LINE",
"254 500 LINE",
"5 500 LINE",
"5 424 LINE",
"51 426 LINE",
"55 396 OFFCURVE",
"61 365 OFFCURVE",
"99 291 CURVE SMOOTH",
"257 -26 LINE",
"246 -67 OFFCURVE",
"232 -106 OFFCURVE",
"217 -137 CURVE SMOOTH",
"203 -166 OFFCURVE",
"189 -185 OFFCURVE",
"177 -189 CURVE",
"174 -190 OFFCURVE",
"173 -190 OFFCURVE",
"172 -190 CURVE",
"173 -185 OFFCURVE",
"173 -181 OFFCURVE",
"173 -177 CURVE SMOOTH",
"173 -141 OFFCURVE",
"149 -119 OFFCURVE",
"120 -120 CURVE SMOOTH",
"83 -121 OFFCURVE",
"57 -153 OFFCURVE",
"57 -189 CURVE SMOOTH",
"57 -238 OFFCURVE",
"97 -271 OFFCURVE",
"148 -271 CURVE SMOOTH"
);
}
);
width = 551;
}
);
leftKerningGroup = y;
rightKerningGroup = y;
unicode = 0079;
},
{
color = 4;
glyphname = z;
layers = (
{
anchors = (
{
name = top;
position = "{266, 500}";
}
);
layerId = UUID0;
paths = (
{
closed = 1;
nodes = (
"455 0 LINE",
"467 182 LINE",
"438 182 LINE",
"426 102 OFFCURVE",
"401 37 OFFCURVE",
"318 38 CURVE SMOOTH",
"125 41 LINE",
"150 62 OFFCURVE",
"160 75 OFFCURVE",
"177 97 CURVE SMOOTH",
"459 468 LINE",
"459 500 LINE",
"67 500 LINE",
"55 321 LINE",
"86 321 LINE",
"97 398 OFFCURVE",
"113 461 OFFCURVE",
"188 462 CURVE SMOOTH",
"376 465 LINE",
"363 457 OFFCURVE",
"340 427 OFFCURVE",
"319 400 CURVE SMOOTH",
"40 41 LINE",
"40 0 LINE"
);
}
);
width = 511;
},
{
anchors = (
{
name = top;
position = "{267, 500}";
}
);
layerId = "4C2B4986-1645-43C1-94B7-5E4C57EFF0D9";
paths = (
{
closed = 1;
nodes = (
"466 0 LINE",
"481 196 LINE",
"419 196 LINE",
"409 125 OFFCURVE",
"388 67 OFFCURVE",
"325 69 CURVE SMOOTH",
"184 73 LINE",
"202 89 OFFCURVE",
"221 108 OFFCURVE",
"240 134 CURVE SMOOTH",
"463 437 LINE",
"463 500 LINE",
"58 500 LINE",
"44 307 LINE",
"106 307 LINE",
"116 376 OFFCURVE",
"135 432 OFFCURVE",
"181 433 CURVE SMOOTH",
"316 435 LINE",
"311 429 OFFCURVE",
"287 404 OFFCURVE",
"265 375 CURVE SMOOTH",
"35 72 LINE",
"35 0 LINE"
);
}
);
width = 514;
}
);
leftKerningGroup = z;
rightKerningGroup = z;
unicode = 007A;
},
